G04 #@! TF.GenerationSoftware,KiCad,Pcbnew,(5.0.0)*
G04 #@! TF.CreationDate,2018-08-08T03:05:28+09:00*
G04 #@! TF.ProjectId,Altimeter,416C74696D657465722E6B696361645F,rev?*
G04 #@! TF.SameCoordinates,Original*
G04 #@! TF.FileFunction,Legend,Top*
G04 #@! TF.FilePolarity,Positive*
%FSLAX46Y46*%
G04 Gerber Fmt 4.6, Leading zero omitted, Abs format (unit mm)*
G04 Created by KiCad (PCBNEW (5.0.0)) date 08/08/18 03:05:28*
%MOMM*%
%LPD*%
G01*
G04 APERTURE LIST*
%ADD10C,0.150000*%
%ADD11C,0.100000*%
%ADD12C,0.120000*%
%ADD13C,0.050000*%
%ADD14C,2.020000*%
%ADD15R,2.020000X2.020000*%
%ADD16C,1.720000*%
%ADD17R,1.720000X1.720000*%
%ADD18R,1.220000X0.820000*%
%ADD19C,3.520000*%
%ADD20R,1.120000X1.070000*%
%ADD21R,1.120000X1.120000*%
%ADD22R,0.820000X1.220000*%
%ADD23R,1.370000X0.970000*%
%ADD24R,0.570000X1.320000*%
%ADD25R,1.320000X0.570000*%
%ADD26R,1.870000X0.920000*%
%ADD27R,1.520000X1.720000*%
%ADD28R,1.620000X2.520000*%
%ADD29R,1.520000X1.020000*%
%ADD30R,1.520000X1.320000*%
%ADD31R,1.120000X1.320000*%
%ADD32R,3.120000X1.320000*%
%ADD33R,2.220000X1.620000*%
%ADD34C,1.820000*%
G04 APERTURE END LIST*
D10*
X127222704Y-93645180D02*
X126889371Y-93168990D01*
X126651276Y-93645180D02*
X126651276Y-92645180D01*
X127032228Y-92645180D01*
X127127466Y-92692800D01*
X127175085Y-92740419D01*
X127222704Y-92835657D01*
X127222704Y-92978514D01*
X127175085Y-93073752D01*
X127127466Y-93121371D01*
X127032228Y-93168990D01*
X126651276Y-93168990D01*
X128032228Y-93597561D02*
X127936990Y-93645180D01*
X127746514Y-93645180D01*
X127651276Y-93597561D01*
X127603657Y-93502323D01*
X127603657Y-93121371D01*
X127651276Y-93026133D01*
X127746514Y-92978514D01*
X127936990Y-92978514D01*
X128032228Y-93026133D01*
X128079847Y-93121371D01*
X128079847Y-93216609D01*
X127603657Y-93311847D01*
X128460800Y-93597561D02*
X128556038Y-93645180D01*
X128746514Y-93645180D01*
X128841752Y-93597561D01*
X128889371Y-93502323D01*
X128889371Y-93454704D01*
X128841752Y-93359466D01*
X128746514Y-93311847D01*
X128603657Y-93311847D01*
X128508419Y-93264228D01*
X128460800Y-93168990D01*
X128460800Y-93121371D01*
X128508419Y-93026133D01*
X128603657Y-92978514D01*
X128746514Y-92978514D01*
X128841752Y-93026133D01*
X129698895Y-93597561D02*
X129603657Y-93645180D01*
X129413180Y-93645180D01*
X129317942Y-93597561D01*
X129270323Y-93502323D01*
X129270323Y-93121371D01*
X129317942Y-93026133D01*
X129413180Y-92978514D01*
X129603657Y-92978514D01*
X129698895Y-93026133D01*
X129746514Y-93121371D01*
X129746514Y-93216609D01*
X129270323Y-93311847D01*
X130032228Y-92978514D02*
X130413180Y-92978514D01*
X130175085Y-92645180D02*
X130175085Y-93502323D01*
X130222704Y-93597561D01*
X130317942Y-93645180D01*
X130413180Y-93645180D01*
X159842761Y-76474780D02*
X159509428Y-75998590D01*
X159271333Y-76474780D02*
X159271333Y-75474780D01*
X159652285Y-75474780D01*
X159747523Y-75522400D01*
X159795142Y-75570019D01*
X159842761Y-75665257D01*
X159842761Y-75808114D01*
X159795142Y-75903352D01*
X159747523Y-75950971D01*
X159652285Y-75998590D01*
X159271333Y-75998590D01*
X160652285Y-76427161D02*
X160557047Y-76474780D01*
X160366571Y-76474780D01*
X160271333Y-76427161D01*
X160223714Y-76331923D01*
X160223714Y-75950971D01*
X160271333Y-75855733D01*
X160366571Y-75808114D01*
X160557047Y-75808114D01*
X160652285Y-75855733D01*
X160699904Y-75950971D01*
X160699904Y-76046209D01*
X160223714Y-76141447D01*
X161271333Y-76474780D02*
X161176095Y-76427161D01*
X161128476Y-76331923D01*
X161128476Y-75474780D01*
X162033238Y-76427161D02*
X161938000Y-76474780D01*
X161747523Y-76474780D01*
X161652285Y-76427161D01*
X161604666Y-76331923D01*
X161604666Y-75950971D01*
X161652285Y-75855733D01*
X161747523Y-75808114D01*
X161938000Y-75808114D01*
X162033238Y-75855733D01*
X162080857Y-75950971D01*
X162080857Y-76046209D01*
X161604666Y-76141447D01*
X162938000Y-76474780D02*
X162938000Y-75950971D01*
X162890380Y-75855733D01*
X162795142Y-75808114D01*
X162604666Y-75808114D01*
X162509428Y-75855733D01*
X162938000Y-76427161D02*
X162842761Y-76474780D01*
X162604666Y-76474780D01*
X162509428Y-76427161D01*
X162461809Y-76331923D01*
X162461809Y-76236685D01*
X162509428Y-76141447D01*
X162604666Y-76093828D01*
X162842761Y-76093828D01*
X162938000Y-76046209D01*
X163366571Y-76427161D02*
X163461809Y-76474780D01*
X163652285Y-76474780D01*
X163747523Y-76427161D01*
X163795142Y-76331923D01*
X163795142Y-76284304D01*
X163747523Y-76189066D01*
X163652285Y-76141447D01*
X163509428Y-76141447D01*
X163414190Y-76093828D01*
X163366571Y-75998590D01*
X163366571Y-75950971D01*
X163414190Y-75855733D01*
X163509428Y-75808114D01*
X163652285Y-75808114D01*
X163747523Y-75855733D01*
X164604666Y-76427161D02*
X164509428Y-76474780D01*
X164318952Y-76474780D01*
X164223714Y-76427161D01*
X164176095Y-76331923D01*
X164176095Y-75950971D01*
X164223714Y-75855733D01*
X164318952Y-75808114D01*
X164509428Y-75808114D01*
X164604666Y-75855733D01*
X164652285Y-75950971D01*
X164652285Y-76046209D01*
X164176095Y-76141447D01*
X163627266Y-94457980D02*
X163627266Y-93457980D01*
X164008219Y-93457980D01*
X164103457Y-93505600D01*
X164151076Y-93553219D01*
X164198695Y-93648457D01*
X164198695Y-93791314D01*
X164151076Y-93886552D01*
X164103457Y-93934171D01*
X164008219Y-93981790D01*
X163627266Y-93981790D01*
X164532028Y-93457980D02*
X164770123Y-94457980D01*
X164960600Y-93743695D01*
X165151076Y-94457980D01*
X165389171Y-93457980D01*
X166341552Y-94457980D02*
X166008219Y-93981790D01*
X165770123Y-94457980D02*
X165770123Y-93457980D01*
X166151076Y-93457980D01*
X166246314Y-93505600D01*
X166293933Y-93553219D01*
X166341552Y-93648457D01*
X166341552Y-93791314D01*
X166293933Y-93886552D01*
X166246314Y-93934171D01*
X166151076Y-93981790D01*
X165770123Y-93981790D01*
X133660133Y-94537361D02*
X133802990Y-94584980D01*
X134041085Y-94584980D01*
X134136323Y-94537361D01*
X134183942Y-94489742D01*
X134231561Y-94394504D01*
X134231561Y-94299266D01*
X134183942Y-94204028D01*
X134136323Y-94156409D01*
X134041085Y-94108790D01*
X133850609Y-94061171D01*
X133755371Y-94013552D01*
X133707752Y-93965933D01*
X133660133Y-93870695D01*
X133660133Y-93775457D01*
X133707752Y-93680219D01*
X133755371Y-93632600D01*
X133850609Y-93584980D01*
X134088704Y-93584980D01*
X134231561Y-93632600D01*
X134517276Y-93584980D02*
X135088704Y-93584980D01*
X134802990Y-94584980D02*
X134802990Y-93584980D01*
X135898228Y-94584980D02*
X135422038Y-94584980D01*
X135422038Y-93584980D01*
X136231561Y-94584980D02*
X136231561Y-93918314D01*
X136231561Y-93584980D02*
X136183942Y-93632600D01*
X136231561Y-93680219D01*
X136279180Y-93632600D01*
X136231561Y-93584980D01*
X136231561Y-93680219D01*
X136707752Y-93918314D02*
X136707752Y-94584980D01*
X136707752Y-94013552D02*
X136755371Y-93965933D01*
X136850609Y-93918314D01*
X136993466Y-93918314D01*
X137088704Y-93965933D01*
X137136323Y-94061171D01*
X137136323Y-94584980D01*
X137612514Y-94584980D02*
X137612514Y-93584980D01*
X137707752Y-94204028D02*
X137993466Y-94584980D01*
X137993466Y-93918314D02*
X137612514Y-94299266D01*
X155262761Y-94457980D02*
X154929428Y-93981790D01*
X154691333Y-94457980D02*
X154691333Y-93457980D01*
X155072285Y-93457980D01*
X155167523Y-93505600D01*
X155215142Y-93553219D01*
X155262761Y-93648457D01*
X155262761Y-93791314D01*
X155215142Y-93886552D01*
X155167523Y-93934171D01*
X155072285Y-93981790D01*
X154691333Y-93981790D01*
X155643714Y-94410361D02*
X155786571Y-94457980D01*
X156024666Y-94457980D01*
X156119904Y-94410361D01*
X156167523Y-94362742D01*
X156215142Y-94267504D01*
X156215142Y-94172266D01*
X156167523Y-94077028D01*
X156119904Y-94029409D01*
X156024666Y-93981790D01*
X155834190Y-93934171D01*
X155738952Y-93886552D01*
X155691333Y-93838933D01*
X155643714Y-93743695D01*
X155643714Y-93648457D01*
X155691333Y-93553219D01*
X155738952Y-93505600D01*
X155834190Y-93457980D01*
X156072285Y-93457980D01*
X156215142Y-93505600D01*
X157072285Y-93791314D02*
X157072285Y-94457980D01*
X156834190Y-93410361D02*
X156596095Y-94124647D01*
X157215142Y-94124647D01*
X157738952Y-93886552D02*
X157643714Y-93838933D01*
X157596095Y-93791314D01*
X157548476Y-93696076D01*
X157548476Y-93648457D01*
X157596095Y-93553219D01*
X157643714Y-93505600D01*
X157738952Y-93457980D01*
X157929428Y-93457980D01*
X158024666Y-93505600D01*
X158072285Y-93553219D01*
X158119904Y-93648457D01*
X158119904Y-93696076D01*
X158072285Y-93791314D01*
X158024666Y-93838933D01*
X157929428Y-93886552D01*
X157738952Y-93886552D01*
X157643714Y-93934171D01*
X157596095Y-93981790D01*
X157548476Y-94077028D01*
X157548476Y-94267504D01*
X157596095Y-94362742D01*
X157643714Y-94410361D01*
X157738952Y-94457980D01*
X157929428Y-94457980D01*
X158024666Y-94410361D01*
X158072285Y-94362742D01*
X158119904Y-94267504D01*
X158119904Y-94077028D01*
X158072285Y-93981790D01*
X158024666Y-93934171D01*
X157929428Y-93886552D01*
X159024666Y-93457980D02*
X158548476Y-93457980D01*
X158500857Y-93934171D01*
X158548476Y-93886552D01*
X158643714Y-93838933D01*
X158881809Y-93838933D01*
X158977047Y-93886552D01*
X159024666Y-93934171D01*
X159072285Y-94029409D01*
X159072285Y-94267504D01*
X159024666Y-94362742D01*
X158977047Y-94410361D01*
X158881809Y-94457980D01*
X158643714Y-94457980D01*
X158548476Y-94410361D01*
X158500857Y-94362742D01*
X136847714Y-75547800D02*
X136752476Y-75500180D01*
X136609619Y-75500180D01*
X136466761Y-75547800D01*
X136371523Y-75643038D01*
X136323904Y-75738276D01*
X136276285Y-75928752D01*
X136276285Y-76071609D01*
X136323904Y-76262085D01*
X136371523Y-76357323D01*
X136466761Y-76452561D01*
X136609619Y-76500180D01*
X136704857Y-76500180D01*
X136847714Y-76452561D01*
X136895333Y-76404942D01*
X136895333Y-76071609D01*
X136704857Y-76071609D01*
X137323904Y-76500180D02*
X137323904Y-75500180D01*
X137895333Y-76500180D01*
X137895333Y-75500180D01*
X138323904Y-76452561D02*
X138466761Y-76500180D01*
X138704857Y-76500180D01*
X138800095Y-76452561D01*
X138847714Y-76404942D01*
X138895333Y-76309704D01*
X138895333Y-76214466D01*
X138847714Y-76119228D01*
X138800095Y-76071609D01*
X138704857Y-76023990D01*
X138514380Y-75976371D01*
X138419142Y-75928752D01*
X138371523Y-75881133D01*
X138323904Y-75785895D01*
X138323904Y-75690657D01*
X138371523Y-75595419D01*
X138419142Y-75547800D01*
X138514380Y-75500180D01*
X138752476Y-75500180D01*
X138895333Y-75547800D01*
X139276285Y-76452561D02*
X139419142Y-76500180D01*
X139657238Y-76500180D01*
X139752476Y-76452561D01*
X139800095Y-76404942D01*
X139847714Y-76309704D01*
X139847714Y-76214466D01*
X139800095Y-76119228D01*
X139752476Y-76071609D01*
X139657238Y-76023990D01*
X139466761Y-75976371D01*
X139371523Y-75928752D01*
X139323904Y-75881133D01*
X139276285Y-75785895D01*
X139276285Y-75690657D01*
X139323904Y-75595419D01*
X139371523Y-75547800D01*
X139466761Y-75500180D01*
X139704857Y-75500180D01*
X139847714Y-75547800D01*
G04 #@! TO.C,U2*
X155080000Y-85585500D02*
X144920000Y-85585500D01*
X144920000Y-85585500D02*
X144920000Y-70345500D01*
X144920000Y-70345500D02*
X155080000Y-70345500D01*
X155080000Y-70345500D02*
X155080000Y-85585500D01*
D11*
G04 #@! TO.C,J2*
X138726800Y-95249000D02*
X138726800Y-94849000D01*
X132926800Y-95249000D02*
X132926800Y-94849000D01*
X132526800Y-95249000D02*
X139126800Y-95249000D01*
X131826800Y-94849000D02*
X139826800Y-94849000D01*
X131826800Y-99849000D02*
X131826800Y-94849000D01*
X131826800Y-99849000D02*
X139826800Y-99849000D01*
X139826800Y-99849000D02*
X139826800Y-94849000D01*
X132526800Y-95249000D02*
X132526800Y-99849000D01*
X139126800Y-99849000D02*
X139126800Y-95249000D01*
X132526800Y-99449000D02*
X139126800Y-99449000D01*
X137376800Y-99449000D02*
X137376800Y-99849000D01*
X134276800Y-99449000D02*
X134276800Y-99849000D01*
D12*
G04 #@! TO.C,R13*
X151442000Y-96452000D02*
X151442000Y-97452000D01*
X150082000Y-97452000D02*
X150082000Y-96452000D01*
G04 #@! TO.C,C11*
X127209800Y-81848600D02*
X127909800Y-81848600D01*
X127909800Y-83048600D02*
X127209800Y-83048600D01*
G04 #@! TO.C,C12*
X127741800Y-87182600D02*
X128441800Y-87182600D01*
X128441800Y-88382600D02*
X127741800Y-88382600D01*
G04 #@! TO.C,C13*
X130981801Y-77968600D02*
X130281801Y-77968600D01*
X130281801Y-76768600D02*
X130981801Y-76768600D01*
G04 #@! TO.C,C14*
X127921800Y-77968600D02*
X127221800Y-77968600D01*
X127221800Y-76768600D02*
X127921800Y-76768600D01*
G04 #@! TO.C,D1*
X170870400Y-93819600D02*
X168770400Y-93819600D01*
X170870400Y-92819600D02*
X168770400Y-92819600D01*
X170870400Y-93819600D02*
X170870400Y-92819600D01*
G04 #@! TO.C,D2*
X152570000Y-93896000D02*
X152570000Y-92896000D01*
X152570000Y-92896000D02*
X150470000Y-92896000D01*
X152570000Y-93896000D02*
X150470000Y-93896000D01*
G04 #@! TO.C,D3*
X149966500Y-92435500D02*
X147866500Y-92435500D01*
X149966500Y-91435500D02*
X147866500Y-91435500D01*
X149966500Y-92435500D02*
X149966500Y-91435500D01*
G04 #@! TO.C,D4*
X152570000Y-90975000D02*
X150470000Y-90975000D01*
X152570000Y-89975000D02*
X150470000Y-89975000D01*
X152570000Y-90975000D02*
X152570000Y-89975000D01*
G04 #@! TO.C,D5*
X149966500Y-89514500D02*
X149966500Y-88514500D01*
X149966500Y-88514500D02*
X147866500Y-88514500D01*
X149966500Y-89514500D02*
X147866500Y-89514500D01*
D11*
G04 #@! TO.C,J1*
X164426600Y-99412500D02*
X164426600Y-99812500D01*
X165526600Y-99812500D02*
X165526600Y-99412500D01*
X165626600Y-95212500D02*
X165826600Y-95462500D01*
X165826600Y-95462500D02*
X166126600Y-95462500D01*
X166126600Y-95462500D02*
X166326600Y-95212500D01*
X163626600Y-95212500D02*
X163826600Y-95462500D01*
X163826600Y-95462500D02*
X164126600Y-95462500D01*
X164126600Y-95462500D02*
X164326600Y-95212500D01*
X167326600Y-95212500D02*
X166326600Y-95212500D01*
X165626600Y-95212500D02*
X164326600Y-95212500D01*
X163626600Y-95212500D02*
X162626600Y-95212500D01*
X162626600Y-99412500D02*
X167326600Y-99412500D01*
X167326600Y-99412500D02*
X167326600Y-95212500D01*
X162626600Y-95212500D02*
X162626600Y-99412500D01*
X167976600Y-99812500D02*
X167976600Y-94812500D01*
X161976600Y-99812500D02*
X167976600Y-99812500D01*
X161976600Y-99812500D02*
X161976600Y-94812500D01*
X161976600Y-94812500D02*
X167976600Y-94812500D01*
G04 #@! TO.C,J4*
X140412500Y-74815500D02*
X141712500Y-74815500D01*
X141912500Y-74565500D02*
X141712500Y-74815500D01*
X142412500Y-74815500D02*
X142212500Y-74565500D01*
X142212500Y-74565500D02*
X141912500Y-74565500D01*
X140412500Y-74815500D02*
X140212500Y-74565500D01*
X140212500Y-74565500D02*
X139912500Y-74565500D01*
X139912500Y-74565500D02*
X139712500Y-74815500D01*
X138412500Y-74815500D02*
X139712500Y-74815500D01*
X137912500Y-74565500D02*
X137712500Y-74815500D01*
X136412500Y-74815500D02*
X137712500Y-74815500D01*
X138212500Y-74565500D02*
X137912500Y-74565500D01*
X138412500Y-74815500D02*
X138212500Y-74565500D01*
X144062500Y-75215500D02*
X132062500Y-75215500D01*
X144062500Y-70215500D02*
X144062500Y-75215500D01*
X144062500Y-70215500D02*
X132062500Y-70215500D01*
X132062500Y-70215500D02*
X132062500Y-75215500D01*
X143412500Y-74815500D02*
X143412500Y-70615500D01*
X132712500Y-70615500D02*
X132712500Y-74815500D01*
X143412500Y-70615500D02*
X132712500Y-70615500D01*
X142412500Y-74815500D02*
X143412500Y-74815500D01*
X134412500Y-74815500D02*
X135712500Y-74815500D01*
X132712500Y-74815500D02*
X133712500Y-74815500D01*
X135912500Y-74565500D02*
X135712500Y-74815500D01*
X136212500Y-74565500D02*
X135912500Y-74565500D01*
X136412500Y-74815500D02*
X136212500Y-74565500D01*
X133912500Y-74565500D02*
X133712500Y-74815500D01*
X134212500Y-74565500D02*
X133912500Y-74565500D01*
X134412500Y-74815500D02*
X134212500Y-74565500D01*
X134512500Y-70615500D02*
X134512500Y-70215500D01*
X141612500Y-70615500D02*
X141612500Y-70215500D01*
G04 #@! TO.C,J5*
X154330600Y-99412500D02*
X154330600Y-99812500D01*
X159430600Y-99412500D02*
X159430600Y-99812500D01*
X159530600Y-95212500D02*
X159730600Y-95462500D01*
X159730600Y-95462500D02*
X160030600Y-95462500D01*
X160030600Y-95462500D02*
X160230600Y-95212500D01*
X157530600Y-95212500D02*
X157730600Y-95462500D01*
X157730600Y-95462500D02*
X158030600Y-95462500D01*
X158030600Y-95462500D02*
X158230600Y-95212500D01*
X161230600Y-95212500D02*
X160230600Y-95212500D01*
X159530600Y-95212500D02*
X158230600Y-95212500D01*
X153530600Y-95212500D02*
X152530600Y-95212500D01*
X152530600Y-99412500D02*
X161230600Y-99412500D01*
X161230600Y-99412500D02*
X161230600Y-95212500D01*
X152530600Y-95212500D02*
X152530600Y-99412500D01*
X161880600Y-99812500D02*
X161880600Y-94812500D01*
X151880600Y-99812500D02*
X161880600Y-99812500D01*
X151880600Y-99812500D02*
X151880600Y-94812500D01*
X151880600Y-94812500D02*
X161880600Y-94812500D01*
X155530600Y-95212500D02*
X155730600Y-95462500D01*
X155730600Y-95462500D02*
X156030600Y-95462500D01*
X157530600Y-95212500D02*
X156230600Y-95212500D01*
X156030600Y-95462500D02*
X156230600Y-95212500D01*
X155530600Y-95212500D02*
X154230600Y-95212500D01*
X154030600Y-95462500D02*
X154230600Y-95212500D01*
X153730600Y-95462500D02*
X154030600Y-95462500D01*
X153530600Y-95212500D02*
X153730600Y-95462500D01*
D12*
G04 #@! TO.C,R2*
X147976000Y-92716000D02*
X148976000Y-92716000D01*
X148976000Y-94076000D02*
X147976000Y-94076000D01*
G04 #@! TO.C,R3*
X151960500Y-92615500D02*
X150960500Y-92615500D01*
X150960500Y-91255500D02*
X151960500Y-91255500D01*
G04 #@! TO.C,R4*
X147976000Y-89795000D02*
X148976000Y-89795000D01*
X148976000Y-91155000D02*
X147976000Y-91155000D01*
G04 #@! TO.C,R5*
X151960500Y-89694500D02*
X150960500Y-89694500D01*
X150960500Y-88334500D02*
X151960500Y-88334500D01*
G04 #@! TO.C,R6*
X130918800Y-86012600D02*
X130918800Y-87012600D01*
X129558800Y-87012600D02*
X129558800Y-86012600D01*
G04 #@! TO.C,R12*
X142193500Y-79725000D02*
X141193500Y-79725000D01*
X141193500Y-78365000D02*
X142193500Y-78365000D01*
D11*
G04 #@! TO.C,SW1*
X130598600Y-91089100D02*
X130598600Y-90089100D01*
X126398600Y-91089100D02*
X126398600Y-90089100D01*
X128898600Y-89489100D02*
X128098600Y-89489100D01*
X128098600Y-91689100D02*
X128898600Y-91689100D01*
X128898600Y-89489100D02*
G75*
G02X128898600Y-91689100I0J-1100000D01*
G01*
X128098600Y-91689100D02*
G75*
G02X128098600Y-89489100I0J1100000D01*
G01*
X130598600Y-88989100D02*
X126398600Y-88989100D01*
X126398600Y-92189100D02*
X130598600Y-92189100D01*
D10*
G04 #@! TO.C,U1*
X133191800Y-82591600D02*
X132166800Y-82591600D01*
X143541800Y-81591600D02*
X142466800Y-81591600D01*
X143541800Y-91941600D02*
X142466800Y-91941600D01*
X133191800Y-91941600D02*
X134266800Y-91941600D01*
X133191800Y-81591600D02*
X134266800Y-81591600D01*
X133191800Y-91941600D02*
X133191800Y-90866600D01*
X143541800Y-91941600D02*
X143541800Y-90866600D01*
X143541800Y-81591600D02*
X143541800Y-82666600D01*
X133191800Y-81591600D02*
X133191800Y-82591600D01*
G04 #@! TO.C,U3*
X143810200Y-94427000D02*
X142410200Y-94427000D01*
X143810200Y-99527000D02*
X147960200Y-99527000D01*
X143810200Y-94377000D02*
X147960200Y-94377000D01*
X143810200Y-99527000D02*
X143810200Y-99382000D01*
X147960200Y-99527000D02*
X147960200Y-99382000D01*
X147960200Y-94377000D02*
X147960200Y-94522000D01*
X143810200Y-94377000D02*
X143810200Y-94427000D01*
D12*
G04 #@! TO.C,Y1*
X126225800Y-83115600D02*
X126225800Y-87115600D01*
X129425800Y-83115600D02*
X126225800Y-83115600D01*
D13*
G04 #@! TO.C,Y2*
X130195800Y-79173600D02*
X129395800Y-78373600D01*
X130195800Y-79573600D02*
X128995800Y-78373600D01*
X130195800Y-78773600D02*
X129795800Y-78373600D01*
X129195800Y-80173600D02*
X127995800Y-78973600D01*
X128395800Y-80173600D02*
X127995800Y-79773600D01*
X128795800Y-80173600D02*
X127995800Y-79373600D01*
X130195800Y-79973600D02*
X128595800Y-78373600D01*
X129995800Y-80173600D02*
X128195800Y-78373600D01*
X129595800Y-80173600D02*
X127995800Y-78573600D01*
X127995800Y-78773600D02*
X128395800Y-78373600D01*
X127995800Y-79173600D02*
X128795800Y-78373600D01*
X127995800Y-79573600D02*
X129195800Y-78373600D01*
X127995800Y-79973600D02*
X129595800Y-78373600D01*
X128195800Y-80173600D02*
X129995800Y-78373600D01*
X128995800Y-80173600D02*
X130195800Y-78973600D01*
X128595800Y-80173600D02*
X130195800Y-78573600D01*
X129395800Y-80173600D02*
X130195800Y-79373600D01*
X129795800Y-80173600D02*
X130195800Y-79773600D01*
D11*
X130195800Y-78373600D02*
X127995800Y-78373600D01*
X127995800Y-80173600D02*
X130195800Y-80173600D01*
D12*
G04 #@! TO.C,J3*
X173894600Y-90757000D02*
X173894600Y-88917000D01*
X173894600Y-79517000D02*
X173894600Y-81747000D01*
X157384600Y-91907000D02*
X157894600Y-91907000D01*
X157384600Y-91587000D02*
X157384600Y-91907000D01*
X157384600Y-77677000D02*
X159294600Y-77677000D01*
X157384600Y-79207000D02*
X157384600Y-77677000D01*
D11*
G04 #@! TO.C,J6*
X164287500Y-74815500D02*
X165587500Y-74815500D01*
X165787500Y-74565500D02*
X165587500Y-74815500D01*
X166287500Y-74815500D02*
X166087500Y-74565500D01*
X166087500Y-74565500D02*
X165787500Y-74565500D01*
X164287500Y-74815500D02*
X164087500Y-74565500D01*
X164087500Y-74565500D02*
X163787500Y-74565500D01*
X163787500Y-74565500D02*
X163587500Y-74815500D01*
X162287500Y-74815500D02*
X163587500Y-74815500D01*
X161787500Y-74565500D02*
X161587500Y-74815500D01*
X160287500Y-74815500D02*
X161587500Y-74815500D01*
X162087500Y-74565500D02*
X161787500Y-74565500D01*
X162287500Y-74815500D02*
X162087500Y-74565500D01*
X167937500Y-75215500D02*
X155937500Y-75215500D01*
X167937500Y-70215500D02*
X167937500Y-75215500D01*
X167937500Y-70215500D02*
X155937500Y-70215500D01*
X155937500Y-70215500D02*
X155937500Y-75215500D01*
X167287500Y-74815500D02*
X167287500Y-70615500D01*
X156587500Y-70615500D02*
X156587500Y-74815500D01*
X167287500Y-70615500D02*
X156587500Y-70615500D01*
X166287500Y-74815500D02*
X167287500Y-74815500D01*
X158287500Y-74815500D02*
X159587500Y-74815500D01*
X156587500Y-74815500D02*
X157587500Y-74815500D01*
X159787500Y-74565500D02*
X159587500Y-74815500D01*
X160087500Y-74565500D02*
X159787500Y-74565500D01*
X160287500Y-74815500D02*
X160087500Y-74565500D01*
X157787500Y-74565500D02*
X157587500Y-74815500D01*
X158087500Y-74565500D02*
X157787500Y-74565500D01*
X158287500Y-74815500D02*
X158087500Y-74565500D01*
X158387500Y-70615500D02*
X158387500Y-70215500D01*
X165487500Y-70615500D02*
X165487500Y-70215500D01*
G04 #@! TD*
%LPC*%
D14*
G04 #@! TO.C,U2*
X153810000Y-74155500D03*
X151270000Y-74155500D03*
X148730000Y-74155500D03*
X146190000Y-74155500D03*
X153810000Y-71615500D03*
X151270000Y-71615500D03*
X148730000Y-71615500D03*
D15*
X146190000Y-71615500D03*
G04 #@! TD*
D16*
G04 #@! TO.C,J2*
X133826800Y-96349000D03*
X133826800Y-98349000D03*
X135826800Y-96349000D03*
X135826800Y-98349000D03*
D17*
X137826800Y-98349000D03*
D16*
X137826800Y-96349000D03*
G04 #@! TD*
D18*
G04 #@! TO.C,R13*
X150762000Y-97702000D03*
X150762000Y-96202000D03*
G04 #@! TD*
D19*
G04 #@! TO.C,REF\002A\002A*
X127750000Y-72750000D03*
G04 #@! TD*
G04 #@! TO.C,REF\002A\002A*
X172250000Y-72750000D03*
G04 #@! TD*
G04 #@! TO.C,REF\002A\002A*
X172250000Y-97250000D03*
G04 #@! TD*
D20*
G04 #@! TO.C,C11*
X126809800Y-82448600D03*
X128309800Y-82448600D03*
G04 #@! TD*
G04 #@! TO.C,C12*
X127341800Y-87782600D03*
X128841800Y-87782600D03*
G04 #@! TD*
G04 #@! TO.C,C13*
X131381801Y-77368600D03*
X129881801Y-77368600D03*
G04 #@! TD*
G04 #@! TO.C,C14*
X128321800Y-77368600D03*
X126821800Y-77368600D03*
G04 #@! TD*
D21*
G04 #@! TO.C,D1*
X170370400Y-93319600D03*
X168770400Y-93319600D03*
G04 #@! TD*
G04 #@! TO.C,D2*
X150470000Y-93396000D03*
X152070000Y-93396000D03*
G04 #@! TD*
G04 #@! TO.C,D3*
X149466500Y-91935500D03*
X147866500Y-91935500D03*
G04 #@! TD*
G04 #@! TO.C,D4*
X152070000Y-90475000D03*
X150470000Y-90475000D03*
G04 #@! TD*
G04 #@! TO.C,D5*
X147866500Y-89014500D03*
X149466500Y-89014500D03*
G04 #@! TD*
D16*
G04 #@! TO.C,J1*
X163976600Y-98412500D03*
D17*
X165976600Y-98412500D03*
G04 #@! TD*
D16*
G04 #@! TO.C,J4*
X142062500Y-71615500D03*
X140062500Y-71615500D03*
X138062500Y-71615500D03*
D17*
X134062500Y-71615500D03*
D16*
X136062500Y-71615500D03*
G04 #@! TD*
G04 #@! TO.C,J5*
X157880600Y-98412500D03*
D17*
X159880600Y-98412500D03*
D16*
X155880600Y-98412500D03*
X153880600Y-98412500D03*
G04 #@! TD*
D22*
G04 #@! TO.C,R2*
X149226000Y-93396000D03*
X147726000Y-93396000D03*
G04 #@! TD*
G04 #@! TO.C,R3*
X150710500Y-91935500D03*
X152210500Y-91935500D03*
G04 #@! TD*
G04 #@! TO.C,R4*
X149226000Y-90475000D03*
X147726000Y-90475000D03*
G04 #@! TD*
G04 #@! TO.C,R5*
X150710500Y-89014500D03*
X152210500Y-89014500D03*
G04 #@! TD*
D18*
G04 #@! TO.C,R6*
X130238800Y-87262600D03*
X130238800Y-85762600D03*
G04 #@! TD*
D22*
G04 #@! TO.C,R12*
X140943500Y-79045000D03*
X142443500Y-79045000D03*
G04 #@! TD*
D23*
G04 #@! TO.C,SW1*
X126423600Y-89514100D03*
X130573600Y-89514100D03*
X126423600Y-91664100D03*
X130573600Y-91664100D03*
G04 #@! TD*
D24*
G04 #@! TO.C,U1*
X134616800Y-81066600D03*
X135116800Y-81066600D03*
X135616800Y-81066600D03*
X136116800Y-81066600D03*
X136616800Y-81066600D03*
X137116800Y-81066600D03*
X137616800Y-81066600D03*
X138116800Y-81066600D03*
X138616800Y-81066600D03*
X139116800Y-81066600D03*
X139616800Y-81066600D03*
X140116800Y-81066600D03*
X140616800Y-81066600D03*
X141116800Y-81066600D03*
X141616800Y-81066600D03*
X142116800Y-81066600D03*
D25*
X144066800Y-83016600D03*
X144066800Y-83516600D03*
X144066800Y-84016600D03*
X144066800Y-84516600D03*
X144066800Y-85016600D03*
X144066800Y-85516600D03*
X144066800Y-86016600D03*
X144066800Y-86516600D03*
X144066800Y-87016600D03*
X144066800Y-87516600D03*
X144066800Y-88016600D03*
X144066800Y-88516600D03*
X144066800Y-89016600D03*
X144066800Y-89516600D03*
X144066800Y-90016600D03*
X144066800Y-90516600D03*
D24*
X142116800Y-92466600D03*
X141616800Y-92466600D03*
X141116800Y-92466600D03*
X140616800Y-92466600D03*
X140116800Y-92466600D03*
X139616800Y-92466600D03*
X139116800Y-92466600D03*
X138616800Y-92466600D03*
X138116800Y-92466600D03*
X137616800Y-92466600D03*
X137116800Y-92466600D03*
X136616800Y-92466600D03*
X136116800Y-92466600D03*
X135616800Y-92466600D03*
X135116800Y-92466600D03*
X134616800Y-92466600D03*
D25*
X132666800Y-90516600D03*
X132666800Y-90016600D03*
X132666800Y-89516600D03*
X132666800Y-89016600D03*
X132666800Y-88516600D03*
X132666800Y-88016600D03*
X132666800Y-87516600D03*
X132666800Y-87016600D03*
X132666800Y-86516600D03*
X132666800Y-86016600D03*
X132666800Y-85516600D03*
X132666800Y-85016600D03*
X132666800Y-84516600D03*
X132666800Y-84016600D03*
X132666800Y-83516600D03*
X132666800Y-83016600D03*
G04 #@! TD*
D26*
G04 #@! TO.C,U3*
X148585200Y-95047000D03*
X148585200Y-96317000D03*
X148585200Y-97587000D03*
X148585200Y-98857000D03*
X143185200Y-98857000D03*
X143185200Y-97587000D03*
X143185200Y-96317000D03*
X143185200Y-95047000D03*
G04 #@! TD*
D27*
G04 #@! TO.C,Y1*
X128625800Y-84015600D03*
X128625800Y-86215600D03*
X127025800Y-86215600D03*
X127025800Y-84015600D03*
G04 #@! TD*
D28*
G04 #@! TO.C,Y2*
X126995800Y-79273600D03*
X131195800Y-79273600D03*
G04 #@! TD*
D29*
G04 #@! TO.C,J3*
X157664600Y-90687000D03*
X157664600Y-89737000D03*
X157664600Y-82037000D03*
X157664600Y-83137000D03*
X157664600Y-84237000D03*
X157664600Y-85337000D03*
X157664600Y-86437000D03*
X157664600Y-87537000D03*
X157664600Y-88637000D03*
D30*
X157664600Y-80487000D03*
X161964600Y-91637000D03*
D31*
X168164600Y-91637000D03*
D32*
X172314600Y-91637000D03*
D33*
X172764600Y-78137000D03*
G04 #@! TD*
D19*
G04 #@! TO.C,REF\002A\002A*
X127750000Y-97250000D03*
G04 #@! TD*
D16*
G04 #@! TO.C,J6*
X165937500Y-71615500D03*
X163937500Y-71615500D03*
X161937500Y-71615500D03*
D17*
X157937500Y-71615500D03*
D16*
X159937500Y-71615500D03*
G04 #@! TD*
D34*
G04 #@! TO.C,TP1*
X154051000Y-86677500D03*
G04 #@! TD*
M02*
