M48
;DRILL file {KiCad (5.0.0)} date 08/27/18 09:03:28
;FORMAT={-:-/ absolute / inch / decimal}
FMAT,2
INCH,TZ
T1C0.0118
T2C0.0157
T3C0.0300
T4C0.0315
T5C0.0394
%
G90
G05
M72
T1
X4.95Y-3.696
X4.955Y-3.011
X4.955Y-3.051
X4.955Y-3.142
X4.955Y-3.186
X4.955Y-3.096
X4.9575Y-3.211
X4.9575Y-3.246
X4.9575Y-3.281
X4.9575Y-3.316
X4.9575Y-3.351
X4.9575Y-3.386
X4.9575Y-3.421
X4.9575Y-3.456
X4.9575Y-3.491
X4.981Y-3.456
X4.9925Y-3.186
X4.9925Y-3.211
X4.9975Y-3.011
X5.0075Y-3.491
X5.0325Y-3.186
X5.0325Y-3.211
X5.0375Y-3.011
X5.0525Y-3.071
X5.0625Y-3.491
X5.0725Y-3.186
X5.0725Y-3.211
X5.079Y-3.246
X5.0825Y-3.011
X5.104Y-3.524
X5.104Y-3.608
X5.107Y-3.211
X5.107Y-3.25
X5.107Y-3.29
X5.107Y-3.328
X5.1125Y-3.071
X5.1175Y-3.491
X5.1275Y-3.011
X5.1339Y-3.7244
X5.1625Y-2.7825
X5.1625Y-2.9225
X5.163Y-3.909
X5.165Y-3.39
X5.165Y-3.44
X5.165Y-3.491
X5.165Y-3.69
X5.1675Y-3.011
X5.173Y-3.186
X5.173Y-3.281
X5.173Y-3.234
X5.185Y-3.58
X5.19Y-3.623
X5.21Y-3.138
X5.21Y-3.011
X5.21Y-3.094
X5.21Y-3.186
X5.21Y-3.053
X5.249Y-2.868
X5.2495Y-3.02
X5.255Y-3.235
X5.26Y-3.268
X5.26Y-3.479
X5.26Y-3.51
X5.2615Y-3.1565
X5.2645Y-3.377
X5.286Y-3.297
X5.3Y-3.678
X5.305Y-3.709
X5.308Y-3.911
X5.314Y-3.604
X5.317Y-3.089
X5.323Y-3.229
X5.343Y-3.033
X5.344Y-3.603
X5.3553Y-3.4705
X5.368Y-3.323
X5.373Y-2.977
X5.374Y-3.033
X5.387Y-3.716
X5.3888Y-3.5541
X5.389Y-3.266
X5.4105Y-2.912
X5.413Y-2.9445
X5.4305Y-3.745
X5.4445Y-3.484
X5.451Y-3.403
X5.458Y-3.322
X5.458Y-2.922
X5.4645Y-3.5365
X5.4665Y-3.089
X5.4665Y-3.149
X5.4744Y-2.7825
X5.4745Y-2.975
X5.49Y-3.682
X5.4905Y-3.734
X5.5195Y-3.114
X5.524Y-3.767
X5.535Y-3.322
X5.535Y-3.403
X5.535Y-3.483
X5.536Y-3.229
X5.538Y-3.265
X5.5445Y-3.792
X5.552Y-3.5365
X5.5625Y-3.152
X5.5675Y-3.911
X5.575Y-3.604
X5.5785Y-3.091
X5.5845Y-2.87
X5.588Y-3.767
X5.591Y-3.376
X5.591Y-3.498
X5.593Y-3.234
X5.6235Y-3.182
X5.6305Y-3.437
X5.631Y-3.309
X5.632Y-3.268
X5.6385Y-3.135
X5.6635Y-3.6135
X5.6685Y-3.182
X5.67Y-3.6765
X5.6915Y-2.975
X5.6915Y-3.792
X5.6915Y-3.911
X5.6945Y-3.243
X5.695Y-3.7595
X5.7055Y-3.135
X5.7195Y-3.269
X5.7195Y-3.59
X5.7196Y-3.645
X5.7325Y-3.09
X5.7325Y-3.09
X5.7325Y-3.09
X5.7325Y-3.09
X5.7325Y-3.09
X5.7325Y-3.09
X5.7325Y-3.09
X5.744Y-3.181
X5.7475Y-3.3225
X5.7475Y-3.645
X5.7475Y-3.59
X5.7495Y-3.229
X5.7735Y-3.129
X5.7825Y-3.326
X5.7935Y-3.742
X5.7935Y-3.774
X5.7945Y-3.909
X5.808Y-3.303
X5.8105Y-3.1815
X5.8105Y-3.229
X5.818Y-3.4595
X5.8335Y-3.279
X5.8455Y-3.562
X5.8455Y-3.677
X5.853Y-3.4595
X5.8555Y-3.2545
X5.856Y-3.129
X5.8635Y-3.1815
X5.8745Y-3.23
X5.9045Y-3.755
X5.9325Y-3.331
X5.9545Y-3.909
X5.9765Y-3.8465
X5.9785Y-3.28
X5.9795Y-3.23
X5.9805Y-3.13
X5.9805Y-3.1815
X5.986Y-2.993
X5.99Y-3.46
X5.9975Y-3.38
X6.005Y-3.859
X6.021Y-3.709
X6.024Y-3.649
X6.0455Y-3.514
X6.055Y-3.3325
X6.0645Y-3.363
X6.065Y-3.1815
X6.0655Y-3.2295
X6.0655Y-3.281
X6.07Y-3.05
X6.0715Y-3.134
X6.0715Y-3.4625
X6.08Y-3.712
X6.087Y-3.797
X6.0895Y-3.6655
X6.095Y-3.557
X6.0974Y-3.9124
X6.1155Y-3.412
X6.116Y-3.648
X6.1215Y-3.513
X6.123Y-3.352
X6.13Y-2.851
X6.132Y-2.782
X6.159Y-3.723
X6.1615Y-3.159
X6.1625Y-3.425
X6.163Y-3.227
X6.163Y-3.291
X6.1635Y-3.358
X6.1645Y-3.513
X6.176Y-2.867
X6.1969Y-3.0492
X6.207Y-3.607
X6.216Y-3.789
X6.241Y-3.648
X6.246Y-3.446
X6.248Y-3.724
X6.249Y-3.49
X6.249Y-3.545
X6.251Y-3.39
X6.2539Y-3.2697
X6.254Y-3.324
X6.254Y-3.215
X6.263Y-2.868
X6.2645Y-3.517
X6.2667Y-3.242
X6.269Y-3.297
X6.283Y-3.138
X6.293Y-3.048
X6.314Y-3.789
X6.3245Y-3.826
X6.3297Y-3.2874
X6.3297Y-3.5207
X6.342Y-3.912
X6.344Y-3.725
X6.355Y-3.118
X6.377Y-3.649
X6.3905Y-3.5205
X6.4095Y-3.4575
X6.4105Y-3.393
X6.4135Y-3.751
X6.4135Y-3.818
X6.415Y-2.782
X6.486Y-3.649
X6.4865Y-3.751
X6.4865Y-3.818
X6.4915Y-3.1755
X6.4915Y-3.346
X6.505Y-3.457
X6.5065Y-3.3935
X6.5095Y-3.535
X6.5615Y-3.751
X6.5615Y-3.818
X6.567Y-3.5385
X6.5765Y-3.617
X6.5825Y-3.4755
X6.648Y-2.782
X6.649Y-3.91
X6.672Y-3.72
X6.677Y-3.5265
X6.6772Y-2.9685
X6.715Y-3.347
X6.717Y-3.176
X6.796Y-3.663
X6.823Y-3.347
X6.862Y-2.997
X6.862Y-3.176
X6.862Y-3.527
X6.863Y-3.697
T2
X5.29Y-3.227
X5.607Y-3.603
X6.3605Y-3.3595
T3
X5.2688Y-3.7933
X5.2688Y-3.872
X5.3475Y-3.7933
T4
X6.218Y-2.8195
X6.2968Y-2.8195
X6.3755Y-2.8195
X6.4542Y-2.8195
X6.533Y-2.8195
X6.0583Y-3.8745
X6.137Y-3.8745
X6.2158Y-3.8745
X6.2945Y-3.8745
X5.2781Y-2.8195
X5.3568Y-2.8195
X5.4355Y-2.8195
X5.5143Y-2.8195
X5.593Y-2.8195
X6.065Y-3.4125
X5.3475Y-3.872
X5.4263Y-3.7933
X5.4263Y-3.872
X6.4558Y-3.8745
X6.5345Y-3.8745
T5
X5.7555Y-2.8195
X5.7555Y-2.9195
X5.8555Y-2.8195
X5.8555Y-2.9195
X5.9555Y-2.8195
X5.9555Y-2.9195
X6.0555Y-2.8195
X6.0555Y-2.9195
T0
M30
