G04 #@! TF.GenerationSoftware,KiCad,Pcbnew,(5.0.0)*
G04 #@! TF.CreationDate,2018-08-10T16:39:42+09:00*
G04 #@! TF.ProjectId,Altimeter,416C74696D657465722E6B696361645F,rev?*
G04 #@! TF.SameCoordinates,Original*
G04 #@! TF.FileFunction,Soldermask,Top*
G04 #@! TF.FilePolarity,Negative*
%FSLAX46Y46*%
G04 Gerber Fmt 4.6, Leading zero omitted, Abs format (unit mm)*
G04 Created by KiCad (PCBNEW (5.0.0)) date 08/10/18 16:39:42*
%MOMM*%
%LPD*%
G01*
G04 APERTURE LIST*
%ADD10C,2.020000*%
%ADD11R,2.020000X2.020000*%
%ADD12C,1.720000*%
%ADD13R,1.720000X1.720000*%
%ADD14R,1.220000X0.820000*%
%ADD15C,3.520000*%
%ADD16R,1.120000X1.070000*%
%ADD17R,1.120000X1.120000*%
%ADD18R,0.820000X1.220000*%
%ADD19R,1.370000X0.970000*%
%ADD20R,0.570000X1.320000*%
%ADD21R,1.320000X0.570000*%
%ADD22R,1.870000X0.920000*%
%ADD23R,1.520000X1.720000*%
%ADD24R,1.620000X2.520000*%
%ADD25R,1.520000X1.020000*%
%ADD26R,1.520000X1.320000*%
%ADD27R,1.120000X1.320000*%
%ADD28R,3.120000X1.320000*%
%ADD29R,2.220000X1.620000*%
%ADD30C,1.820000*%
G04 APERTURE END LIST*
D10*
G04 #@! TO.C,U2*
X153810000Y-74155500D03*
X151270000Y-74155500D03*
X148730000Y-74155500D03*
X146190000Y-74155500D03*
X153810000Y-71615500D03*
X151270000Y-71615500D03*
X148730000Y-71615500D03*
D11*
X146190000Y-71615500D03*
G04 #@! TD*
D12*
G04 #@! TO.C,J2*
X133826800Y-96349000D03*
X133826800Y-98349000D03*
X135826800Y-96349000D03*
X135826800Y-98349000D03*
D13*
X137826800Y-98349000D03*
D12*
X137826800Y-96349000D03*
G04 #@! TD*
D14*
G04 #@! TO.C,R13*
X150762000Y-97702000D03*
X150762000Y-96202000D03*
G04 #@! TD*
D15*
G04 #@! TO.C,REF\002A\002A*
X127750000Y-72750000D03*
G04 #@! TD*
G04 #@! TO.C,REF\002A\002A*
X172250000Y-72750000D03*
G04 #@! TD*
G04 #@! TO.C,REF\002A\002A*
X172250000Y-97250000D03*
G04 #@! TD*
D16*
G04 #@! TO.C,C11*
X126809800Y-82448600D03*
X128309800Y-82448600D03*
G04 #@! TD*
G04 #@! TO.C,C12*
X127341800Y-87782600D03*
X128841800Y-87782600D03*
G04 #@! TD*
G04 #@! TO.C,C13*
X131381801Y-77368600D03*
X129881801Y-77368600D03*
G04 #@! TD*
G04 #@! TO.C,C14*
X128321800Y-77368600D03*
X126821800Y-77368600D03*
G04 #@! TD*
D17*
G04 #@! TO.C,D1*
X170370400Y-93319600D03*
X168770400Y-93319600D03*
G04 #@! TD*
G04 #@! TO.C,D2*
X150470000Y-93396000D03*
X152070000Y-93396000D03*
G04 #@! TD*
G04 #@! TO.C,D3*
X149466500Y-91935500D03*
X147866500Y-91935500D03*
G04 #@! TD*
G04 #@! TO.C,D4*
X152070000Y-90475000D03*
X150470000Y-90475000D03*
G04 #@! TD*
G04 #@! TO.C,D5*
X147866500Y-89014500D03*
X149466500Y-89014500D03*
G04 #@! TD*
D12*
G04 #@! TO.C,J1*
X163976600Y-98412500D03*
D13*
X165976600Y-98412500D03*
G04 #@! TD*
D12*
G04 #@! TO.C,J4*
X142062500Y-71615500D03*
X140062500Y-71615500D03*
X138062500Y-71615500D03*
D13*
X134062500Y-71615500D03*
D12*
X136062500Y-71615500D03*
G04 #@! TD*
G04 #@! TO.C,J5*
X157880600Y-98412500D03*
D13*
X159880600Y-98412500D03*
D12*
X155880600Y-98412500D03*
X153880600Y-98412500D03*
G04 #@! TD*
D18*
G04 #@! TO.C,R2*
X149226000Y-93396000D03*
X147726000Y-93396000D03*
G04 #@! TD*
G04 #@! TO.C,R3*
X150710500Y-91935500D03*
X152210500Y-91935500D03*
G04 #@! TD*
G04 #@! TO.C,R4*
X149226000Y-90475000D03*
X147726000Y-90475000D03*
G04 #@! TD*
G04 #@! TO.C,R5*
X150710500Y-89014500D03*
X152210500Y-89014500D03*
G04 #@! TD*
D14*
G04 #@! TO.C,R6*
X130238800Y-87262600D03*
X130238800Y-85762600D03*
G04 #@! TD*
D18*
G04 #@! TO.C,R12*
X140943500Y-79045000D03*
X142443500Y-79045000D03*
G04 #@! TD*
D19*
G04 #@! TO.C,SW1*
X126423600Y-89514100D03*
X130573600Y-89514100D03*
X126423600Y-91664100D03*
X130573600Y-91664100D03*
G04 #@! TD*
D20*
G04 #@! TO.C,U1*
X134616800Y-81066600D03*
X135116800Y-81066600D03*
X135616800Y-81066600D03*
X136116800Y-81066600D03*
X136616800Y-81066600D03*
X137116800Y-81066600D03*
X137616800Y-81066600D03*
X138116800Y-81066600D03*
X138616800Y-81066600D03*
X139116800Y-81066600D03*
X139616800Y-81066600D03*
X140116800Y-81066600D03*
X140616800Y-81066600D03*
X141116800Y-81066600D03*
X141616800Y-81066600D03*
X142116800Y-81066600D03*
D21*
X144066800Y-83016600D03*
X144066800Y-83516600D03*
X144066800Y-84016600D03*
X144066800Y-84516600D03*
X144066800Y-85016600D03*
X144066800Y-85516600D03*
X144066800Y-86016600D03*
X144066800Y-86516600D03*
X144066800Y-87016600D03*
X144066800Y-87516600D03*
X144066800Y-88016600D03*
X144066800Y-88516600D03*
X144066800Y-89016600D03*
X144066800Y-89516600D03*
X144066800Y-90016600D03*
X144066800Y-90516600D03*
D20*
X142116800Y-92466600D03*
X141616800Y-92466600D03*
X141116800Y-92466600D03*
X140616800Y-92466600D03*
X140116800Y-92466600D03*
X139616800Y-92466600D03*
X139116800Y-92466600D03*
X138616800Y-92466600D03*
X138116800Y-92466600D03*
X137616800Y-92466600D03*
X137116800Y-92466600D03*
X136616800Y-92466600D03*
X136116800Y-92466600D03*
X135616800Y-92466600D03*
X135116800Y-92466600D03*
X134616800Y-92466600D03*
D21*
X132666800Y-90516600D03*
X132666800Y-90016600D03*
X132666800Y-89516600D03*
X132666800Y-89016600D03*
X132666800Y-88516600D03*
X132666800Y-88016600D03*
X132666800Y-87516600D03*
X132666800Y-87016600D03*
X132666800Y-86516600D03*
X132666800Y-86016600D03*
X132666800Y-85516600D03*
X132666800Y-85016600D03*
X132666800Y-84516600D03*
X132666800Y-84016600D03*
X132666800Y-83516600D03*
X132666800Y-83016600D03*
G04 #@! TD*
D22*
G04 #@! TO.C,U3*
X148585200Y-95047000D03*
X148585200Y-96317000D03*
X148585200Y-97587000D03*
X148585200Y-98857000D03*
X143185200Y-98857000D03*
X143185200Y-97587000D03*
X143185200Y-96317000D03*
X143185200Y-95047000D03*
G04 #@! TD*
D23*
G04 #@! TO.C,Y1*
X128625800Y-84015600D03*
X128625800Y-86215600D03*
X127025800Y-86215600D03*
X127025800Y-84015600D03*
G04 #@! TD*
D24*
G04 #@! TO.C,Y2*
X126995800Y-79273600D03*
X131195800Y-79273600D03*
G04 #@! TD*
D25*
G04 #@! TO.C,J3*
X157664600Y-90687000D03*
X157664600Y-89737000D03*
X157664600Y-82037000D03*
X157664600Y-83137000D03*
X157664600Y-84237000D03*
X157664600Y-85337000D03*
X157664600Y-86437000D03*
X157664600Y-87537000D03*
X157664600Y-88637000D03*
D26*
X157664600Y-80487000D03*
X161964600Y-91637000D03*
D27*
X168164600Y-91637000D03*
D28*
X172314600Y-91637000D03*
D29*
X172764600Y-78137000D03*
G04 #@! TD*
D15*
G04 #@! TO.C,REF\002A\002A*
X127750000Y-97250000D03*
G04 #@! TD*
D12*
G04 #@! TO.C,J6*
X165937500Y-71615500D03*
X163937500Y-71615500D03*
X161937500Y-71615500D03*
D13*
X157937500Y-71615500D03*
D12*
X159937500Y-71615500D03*
G04 #@! TD*
D30*
G04 #@! TO.C,TP1*
X154051000Y-86677500D03*
G04 #@! TD*
M02*
