G04 #@! TF.GenerationSoftware,KiCad,Pcbnew,(5.0.0)*
G04 #@! TF.CreationDate,2018-12-10T03:32:36+09:00*
G04 #@! TF.ProjectId,Altimeter,416C74696D657465722E6B696361645F,rev?*
G04 #@! TF.SameCoordinates,Original*
G04 #@! TF.FileFunction,Copper,L1,Top,Signal*
G04 #@! TF.FilePolarity,Positive*
%FSLAX46Y46*%
G04 Gerber Fmt 4.6, Leading zero omitted, Abs format (unit mm)*
G04 Created by KiCad (PCBNEW (5.0.0)) date 12/10/18 03:32:36*
%MOMM*%
%LPD*%
G01*
G04 APERTURE LIST*
G04 #@! TA.AperFunction,ComponentPad*
%ADD10C,1.700000*%
G04 #@! TD*
G04 #@! TA.AperFunction,ComponentPad*
%ADD11R,1.700000X1.700000*%
G04 #@! TD*
G04 #@! TA.AperFunction,ComponentPad*
%ADD12C,1.400000*%
G04 #@! TD*
G04 #@! TA.AperFunction,ComponentPad*
%ADD13R,1.400000X1.400000*%
G04 #@! TD*
G04 #@! TA.AperFunction,SMDPad,CuDef*
%ADD14R,0.900000X0.500000*%
G04 #@! TD*
G04 #@! TA.AperFunction,SMDPad,CuDef*
%ADD15R,0.800000X0.750000*%
G04 #@! TD*
G04 #@! TA.AperFunction,SMDPad,CuDef*
%ADD16R,0.800000X0.800000*%
G04 #@! TD*
G04 #@! TA.AperFunction,SMDPad,CuDef*
%ADD17R,0.500000X0.900000*%
G04 #@! TD*
G04 #@! TA.AperFunction,SMDPad,CuDef*
%ADD18R,1.050000X0.650000*%
G04 #@! TD*
G04 #@! TA.AperFunction,SMDPad,CuDef*
%ADD19R,0.250000X1.000000*%
G04 #@! TD*
G04 #@! TA.AperFunction,SMDPad,CuDef*
%ADD20R,1.000000X0.250000*%
G04 #@! TD*
G04 #@! TA.AperFunction,SMDPad,CuDef*
%ADD21R,1.550000X0.600000*%
G04 #@! TD*
G04 #@! TA.AperFunction,SMDPad,CuDef*
%ADD22R,1.200000X1.400000*%
G04 #@! TD*
G04 #@! TA.AperFunction,SMDPad,CuDef*
%ADD23R,1.300000X2.200000*%
G04 #@! TD*
G04 #@! TA.AperFunction,SMDPad,CuDef*
%ADD24R,1.200000X0.700000*%
G04 #@! TD*
G04 #@! TA.AperFunction,SMDPad,CuDef*
%ADD25R,1.200000X1.000000*%
G04 #@! TD*
G04 #@! TA.AperFunction,SMDPad,CuDef*
%ADD26R,0.800000X1.000000*%
G04 #@! TD*
G04 #@! TA.AperFunction,SMDPad,CuDef*
%ADD27R,2.800000X1.000000*%
G04 #@! TD*
G04 #@! TA.AperFunction,SMDPad,CuDef*
%ADD28R,1.900000X1.300000*%
G04 #@! TD*
G04 #@! TA.AperFunction,ComponentPad*
%ADD29C,1.500000*%
G04 #@! TD*
G04 #@! TA.AperFunction,ViaPad*
%ADD30C,0.500000*%
G04 #@! TD*
G04 #@! TA.AperFunction,ViaPad*
%ADD31C,0.600000*%
G04 #@! TD*
G04 #@! TA.AperFunction,Conductor*
%ADD32C,0.200000*%
G04 #@! TD*
G04 #@! TA.AperFunction,Conductor*
%ADD33C,0.400000*%
G04 #@! TD*
G04 #@! TA.AperFunction,Conductor*
%ADD34C,0.250000*%
G04 #@! TD*
G04 #@! TA.AperFunction,Conductor*
%ADD35C,0.500000*%
G04 #@! TD*
G04 #@! TA.AperFunction,Conductor*
%ADD36C,0.254000*%
G04 #@! TD*
G04 APERTURE END LIST*
D10*
G04 #@! TO.P,U2,8*
G04 #@! TO.N,+3V3*
X153810000Y-74155500D03*
G04 #@! TO.P,U2,7*
X151270000Y-74155500D03*
G04 #@! TO.P,U2,6*
G04 #@! TO.N,/LPS22HB_INT*
X148730000Y-74155500D03*
G04 #@! TO.P,U2,5*
G04 #@! TO.N,GND*
X146190000Y-74155500D03*
G04 #@! TO.P,U2,4*
G04 #@! TO.N,+3V3*
X153810000Y-71615500D03*
G04 #@! TO.P,U2,3*
G04 #@! TO.N,/I2C1_SCL*
X151270000Y-71615500D03*
G04 #@! TO.P,U2,2*
G04 #@! TO.N,/I2C1_SDA*
X148730000Y-71615500D03*
D11*
G04 #@! TO.P,U2,1*
G04 #@! TO.N,GND*
X146190000Y-71615500D03*
G04 #@! TD*
D12*
G04 #@! TO.P,J2,6*
G04 #@! TO.N,/DEBUG_TX*
X133826800Y-96349000D03*
G04 #@! TO.P,J2,5*
G04 #@! TO.N,/DEBUG_RX*
X133826800Y-98349000D03*
G04 #@! TO.P,J2,4*
G04 #@! TO.N,/SWCLK*
X135826800Y-96349000D03*
G04 #@! TO.P,J2,3*
G04 #@! TO.N,/SWDIO*
X135826800Y-98349000D03*
D13*
G04 #@! TO.P,J2,1*
G04 #@! TO.N,GND*
X137826800Y-98349000D03*
D12*
G04 #@! TO.P,J2,2*
G04 #@! TO.N,/RESET*
X137826800Y-96349000D03*
G04 #@! TD*
D14*
G04 #@! TO.P,R13,1*
G04 #@! TO.N,Net-(J5-Pad3)*
X150762000Y-97702000D03*
G04 #@! TO.P,R13,2*
G04 #@! TO.N,Net-(J5-Pad4)*
X150762000Y-96202000D03*
G04 #@! TD*
D15*
G04 #@! TO.P,C11,1*
G04 #@! TO.N,/HSE_IN*
X126809800Y-82448600D03*
G04 #@! TO.P,C11,2*
G04 #@! TO.N,GND*
X128309800Y-82448600D03*
G04 #@! TD*
G04 #@! TO.P,C12,2*
G04 #@! TO.N,GND*
X127341800Y-87782600D03*
G04 #@! TO.P,C12,1*
G04 #@! TO.N,Net-(C12-Pad1)*
X128841800Y-87782600D03*
G04 #@! TD*
G04 #@! TO.P,C13,1*
G04 #@! TO.N,/LSE_IN*
X131381801Y-77368600D03*
G04 #@! TO.P,C13,2*
G04 #@! TO.N,GND*
X129881801Y-77368600D03*
G04 #@! TD*
G04 #@! TO.P,C14,2*
G04 #@! TO.N,GND*
X128321800Y-77368600D03*
G04 #@! TO.P,C14,1*
G04 #@! TO.N,/LSE_OUT*
X126821800Y-77368600D03*
G04 #@! TD*
D16*
G04 #@! TO.P,D1,1*
G04 #@! TO.N,Net-(D1-Pad1)*
X170370400Y-93319600D03*
G04 #@! TO.P,D1,2*
G04 #@! TO.N,+3V3*
X168770400Y-93319600D03*
G04 #@! TD*
G04 #@! TO.P,D2,2*
G04 #@! TO.N,Net-(D2-Pad2)*
X150470000Y-93396000D03*
G04 #@! TO.P,D2,1*
G04 #@! TO.N,GND*
X152070000Y-93396000D03*
G04 #@! TD*
G04 #@! TO.P,D3,1*
G04 #@! TO.N,Net-(D3-Pad1)*
X149466500Y-91935500D03*
G04 #@! TO.P,D3,2*
G04 #@! TO.N,/LED_G*
X147866500Y-91935500D03*
G04 #@! TD*
G04 #@! TO.P,D4,1*
G04 #@! TO.N,GND*
X152070000Y-90475000D03*
G04 #@! TO.P,D4,2*
G04 #@! TO.N,Net-(D4-Pad2)*
X150470000Y-90475000D03*
G04 #@! TD*
G04 #@! TO.P,D5,2*
G04 #@! TO.N,/LED_R*
X147866500Y-89014500D03*
G04 #@! TO.P,D5,1*
G04 #@! TO.N,Net-(D5-Pad1)*
X149466500Y-89014500D03*
G04 #@! TD*
D12*
G04 #@! TO.P,J1,2*
G04 #@! TO.N,GND*
X163976600Y-98412500D03*
D13*
G04 #@! TO.P,J1,1*
G04 #@! TO.N,Net-(D6-Pad2)*
X165976600Y-98412500D03*
G04 #@! TD*
D12*
G04 #@! TO.P,J4,5*
G04 #@! TO.N,/GNSS_1PPS*
X142062500Y-71615500D03*
G04 #@! TO.P,J4,4*
G04 #@! TO.N,/GNSS_RX*
X140062500Y-71615500D03*
G04 #@! TO.P,J4,3*
G04 #@! TO.N,/GNSS_TX*
X138062500Y-71615500D03*
D13*
G04 #@! TO.P,J4,1*
G04 #@! TO.N,+3V3*
X134062500Y-71615500D03*
D12*
G04 #@! TO.P,J4,2*
G04 #@! TO.N,GND*
X136062500Y-71615500D03*
G04 #@! TD*
G04 #@! TO.P,J5,2*
G04 #@! TO.N,GND*
X157880600Y-98412500D03*
D13*
G04 #@! TO.P,J5,1*
G04 #@! TO.N,Net-(D7-Pad2)*
X159880600Y-98412500D03*
D12*
G04 #@! TO.P,J5,3*
G04 #@! TO.N,Net-(J5-Pad3)*
X155880600Y-98412500D03*
G04 #@! TO.P,J5,4*
G04 #@! TO.N,Net-(J5-Pad4)*
X153880600Y-98412500D03*
G04 #@! TD*
D17*
G04 #@! TO.P,R2,1*
G04 #@! TO.N,Net-(D2-Pad2)*
X149226000Y-93396000D03*
G04 #@! TO.P,R2,2*
G04 #@! TO.N,/LED_B*
X147726000Y-93396000D03*
G04 #@! TD*
G04 #@! TO.P,R3,2*
G04 #@! TO.N,Net-(D3-Pad1)*
X150710500Y-91935500D03*
G04 #@! TO.P,R3,1*
G04 #@! TO.N,GND*
X152210500Y-91935500D03*
G04 #@! TD*
G04 #@! TO.P,R4,1*
G04 #@! TO.N,Net-(D4-Pad2)*
X149226000Y-90475000D03*
G04 #@! TO.P,R4,2*
G04 #@! TO.N,/LED_Y*
X147726000Y-90475000D03*
G04 #@! TD*
G04 #@! TO.P,R5,2*
G04 #@! TO.N,Net-(D5-Pad1)*
X150710500Y-89014500D03*
G04 #@! TO.P,R5,1*
G04 #@! TO.N,GND*
X152210500Y-89014500D03*
G04 #@! TD*
D14*
G04 #@! TO.P,R6,2*
G04 #@! TO.N,Net-(C12-Pad1)*
X130238800Y-87262600D03*
G04 #@! TO.P,R6,1*
G04 #@! TO.N,/HSE_OUT*
X130238800Y-85762600D03*
G04 #@! TD*
D17*
G04 #@! TO.P,R12,2*
G04 #@! TO.N,/SD_CLK*
X140943500Y-79045000D03*
G04 #@! TO.P,R12,1*
G04 #@! TO.N,Net-(J3-Pad5)*
X142443500Y-79045000D03*
G04 #@! TD*
D18*
G04 #@! TO.P,SW1,4*
G04 #@! TO.N,GND*
X126423600Y-89514100D03*
G04 #@! TO.P,SW1,3*
X130573600Y-89514100D03*
G04 #@! TO.P,SW1,2*
G04 #@! TO.N,N/C*
X126423600Y-91664100D03*
G04 #@! TO.P,SW1,1*
G04 #@! TO.N,/RESET*
X130573600Y-91664100D03*
G04 #@! TD*
D19*
G04 #@! TO.P,U1,64*
G04 #@! TO.N,+3V3*
X134616800Y-81066600D03*
G04 #@! TO.P,U1,63*
G04 #@! TO.N,GND*
X135116800Y-81066600D03*
G04 #@! TO.P,U1,62*
G04 #@! TO.N,/I2C1_SDA*
X135616800Y-81066600D03*
G04 #@! TO.P,U1,61*
G04 #@! TO.N,/I2C1_SCL*
X136116800Y-81066600D03*
G04 #@! TO.P,U1,60*
G04 #@! TO.N,GND*
X136616800Y-81066600D03*
G04 #@! TO.P,U1,59*
G04 #@! TO.N,/GNSS_RX*
X137116800Y-81066600D03*
G04 #@! TO.P,U1,58*
G04 #@! TO.N,/GNSS_TX*
X137616800Y-81066600D03*
G04 #@! TO.P,U1,57*
G04 #@! TO.N,/GNSS_1PPS*
X138116800Y-81066600D03*
G04 #@! TO.P,U1,56*
G04 #@! TO.N,N/C*
X138616800Y-81066600D03*
G04 #@! TO.P,U1,55*
G04 #@! TO.N,/LPS22HB_INT*
X139116800Y-81066600D03*
G04 #@! TO.P,U1,54*
G04 #@! TO.N,/SD_CMD*
X139616800Y-81066600D03*
G04 #@! TO.P,U1,53*
G04 #@! TO.N,/SD_CLK*
X140116800Y-81066600D03*
G04 #@! TO.P,U1,52*
G04 #@! TO.N,/SD_DAT3*
X140616800Y-81066600D03*
G04 #@! TO.P,U1,51*
G04 #@! TO.N,/SD_DAT2*
X141116800Y-81066600D03*
G04 #@! TO.P,U1,50*
G04 #@! TO.N,N/C*
X141616800Y-81066600D03*
G04 #@! TO.P,U1,49*
G04 #@! TO.N,/SWCLK*
X142116800Y-81066600D03*
D20*
G04 #@! TO.P,U1,48*
G04 #@! TO.N,+3V3*
X144066800Y-83016600D03*
G04 #@! TO.P,U1,47*
G04 #@! TO.N,GND*
X144066800Y-83516600D03*
G04 #@! TO.P,U1,46*
G04 #@! TO.N,/SWDIO*
X144066800Y-84016600D03*
G04 #@! TO.P,U1,45*
G04 #@! TO.N,N/C*
X144066800Y-84516600D03*
G04 #@! TO.P,U1,44*
G04 #@! TO.N,/TRIGGER*
X144066800Y-85016600D03*
G04 #@! TO.P,U1,43*
G04 #@! TO.N,/BUZZER*
X144066800Y-85516600D03*
G04 #@! TO.P,U1,42*
G04 #@! TO.N,/FLIGHTPIN*
X144066800Y-86016600D03*
G04 #@! TO.P,U1,41*
G04 #@! TO.N,Net-(TP1-Pad1)*
X144066800Y-86516600D03*
G04 #@! TO.P,U1,40*
G04 #@! TO.N,/SD_DAT1*
X144066800Y-87016600D03*
G04 #@! TO.P,U1,39*
G04 #@! TO.N,/SD_DAT0*
X144066800Y-87516600D03*
G04 #@! TO.P,U1,38*
G04 #@! TO.N,N/C*
X144066800Y-88016600D03*
G04 #@! TO.P,U1,37*
X144066800Y-88516600D03*
G04 #@! TO.P,U1,36*
G04 #@! TO.N,/LED_R*
X144066800Y-89016600D03*
G04 #@! TO.P,U1,35*
G04 #@! TO.N,/LED_Y*
X144066800Y-89516600D03*
G04 #@! TO.P,U1,34*
G04 #@! TO.N,/LED_G*
X144066800Y-90016600D03*
G04 #@! TO.P,U1,33*
G04 #@! TO.N,/LED_B*
X144066800Y-90516600D03*
D19*
G04 #@! TO.P,U1,32*
G04 #@! TO.N,+3V3*
X142116800Y-92466600D03*
G04 #@! TO.P,U1,31*
G04 #@! TO.N,GND*
X141616800Y-92466600D03*
G04 #@! TO.P,U1,30*
G04 #@! TO.N,/RS485_RX*
X141116800Y-92466600D03*
G04 #@! TO.P,U1,29*
G04 #@! TO.N,/RS485_TX*
X140616800Y-92466600D03*
G04 #@! TO.P,U1,28*
G04 #@! TO.N,/RS485_EN*
X140116800Y-92466600D03*
G04 #@! TO.P,U1,27*
G04 #@! TO.N,N/C*
X139616800Y-92466600D03*
G04 #@! TO.P,U1,26*
X139116800Y-92466600D03*
G04 #@! TO.P,U1,25*
X138616800Y-92466600D03*
G04 #@! TO.P,U1,24*
X138116800Y-92466600D03*
G04 #@! TO.P,U1,23*
X137616800Y-92466600D03*
G04 #@! TO.P,U1,22*
X137116800Y-92466600D03*
G04 #@! TO.P,U1,21*
X136616800Y-92466600D03*
G04 #@! TO.P,U1,20*
X136116800Y-92466600D03*
G04 #@! TO.P,U1,19*
G04 #@! TO.N,+3V3*
X135616800Y-92466600D03*
G04 #@! TO.P,U1,18*
G04 #@! TO.N,GND*
X135116800Y-92466600D03*
G04 #@! TO.P,U1,17*
G04 #@! TO.N,/DEBUG_RX*
X134616800Y-92466600D03*
D20*
G04 #@! TO.P,U1,16*
G04 #@! TO.N,/DEBUG_TX*
X132666800Y-90516600D03*
G04 #@! TO.P,U1,15*
G04 #@! TO.N,N/C*
X132666800Y-90016600D03*
G04 #@! TO.P,U1,14*
X132666800Y-89516600D03*
G04 #@! TO.P,U1,13*
G04 #@! TO.N,+3V3*
X132666800Y-89016600D03*
G04 #@! TO.P,U1,12*
G04 #@! TO.N,GND*
X132666800Y-88516600D03*
G04 #@! TO.P,U1,11*
G04 #@! TO.N,N/C*
X132666800Y-88016600D03*
G04 #@! TO.P,U1,10*
X132666800Y-87516600D03*
G04 #@! TO.P,U1,9*
X132666800Y-87016600D03*
G04 #@! TO.P,U1,8*
X132666800Y-86516600D03*
G04 #@! TO.P,U1,7*
G04 #@! TO.N,/RESET*
X132666800Y-86016600D03*
G04 #@! TO.P,U1,6*
G04 #@! TO.N,/HSE_OUT*
X132666800Y-85516600D03*
G04 #@! TO.P,U1,5*
G04 #@! TO.N,/HSE_IN*
X132666800Y-85016600D03*
G04 #@! TO.P,U1,4*
G04 #@! TO.N,/LSE_OUT*
X132666800Y-84516600D03*
G04 #@! TO.P,U1,3*
G04 #@! TO.N,/LSE_IN*
X132666800Y-84016600D03*
G04 #@! TO.P,U1,2*
G04 #@! TO.N,N/C*
X132666800Y-83516600D03*
G04 #@! TO.P,U1,1*
G04 #@! TO.N,+3V3*
X132666800Y-83016600D03*
G04 #@! TD*
D21*
G04 #@! TO.P,U3,8*
G04 #@! TO.N,+3V3*
X148585200Y-95047000D03*
G04 #@! TO.P,U3,7*
G04 #@! TO.N,Net-(J5-Pad4)*
X148585200Y-96317000D03*
G04 #@! TO.P,U3,6*
G04 #@! TO.N,Net-(J5-Pad3)*
X148585200Y-97587000D03*
G04 #@! TO.P,U3,5*
G04 #@! TO.N,GND*
X148585200Y-98857000D03*
G04 #@! TO.P,U3,4*
G04 #@! TO.N,/RS485_TX*
X143185200Y-98857000D03*
G04 #@! TO.P,U3,3*
G04 #@! TO.N,/RS485_EN*
X143185200Y-97587000D03*
G04 #@! TO.P,U3,2*
X143185200Y-96317000D03*
G04 #@! TO.P,U3,1*
G04 #@! TO.N,/RS485_RX*
X143185200Y-95047000D03*
G04 #@! TD*
D22*
G04 #@! TO.P,Y1,4*
G04 #@! TO.N,GND*
X128625800Y-84015600D03*
G04 #@! TO.P,Y1,3*
G04 #@! TO.N,Net-(C12-Pad1)*
X128625800Y-86215600D03*
G04 #@! TO.P,Y1,2*
G04 #@! TO.N,GND*
X127025800Y-86215600D03*
G04 #@! TO.P,Y1,1*
G04 #@! TO.N,/HSE_IN*
X127025800Y-84015600D03*
G04 #@! TD*
D23*
G04 #@! TO.P,Y2,2*
G04 #@! TO.N,/LSE_OUT*
X126995800Y-79273600D03*
G04 #@! TO.P,Y2,1*
G04 #@! TO.N,/LSE_IN*
X131195800Y-79273600D03*
G04 #@! TD*
D24*
G04 #@! TO.P,J3,9*
G04 #@! TO.N,N/C*
X157664600Y-90687000D03*
G04 #@! TO.P,J3,8*
G04 #@! TO.N,/SD_DAT1*
X157664600Y-89737000D03*
G04 #@! TO.P,J3,1*
G04 #@! TO.N,/SD_DAT2*
X157664600Y-82037000D03*
G04 #@! TO.P,J3,2*
G04 #@! TO.N,/SD_DAT3*
X157664600Y-83137000D03*
G04 #@! TO.P,J3,3*
G04 #@! TO.N,/SD_CMD*
X157664600Y-84237000D03*
G04 #@! TO.P,J3,4*
G04 #@! TO.N,VDD*
X157664600Y-85337000D03*
G04 #@! TO.P,J3,5*
G04 #@! TO.N,Net-(J3-Pad5)*
X157664600Y-86437000D03*
G04 #@! TO.P,J3,6*
G04 #@! TO.N,GND*
X157664600Y-87537000D03*
G04 #@! TO.P,J3,7*
G04 #@! TO.N,/SD_DAT0*
X157664600Y-88637000D03*
D25*
G04 #@! TO.P,J3,11*
G04 #@! TO.N,GND*
X157664600Y-80487000D03*
X161964600Y-91637000D03*
D26*
G04 #@! TO.P,J3,10*
G04 #@! TO.N,N/C*
X168164600Y-91637000D03*
D27*
G04 #@! TO.P,J3,11*
G04 #@! TO.N,GND*
X172314600Y-91637000D03*
D28*
X172764600Y-78137000D03*
G04 #@! TD*
D12*
G04 #@! TO.P,J6,5*
G04 #@! TO.N,/FLIGHTPIN*
X165937500Y-71615500D03*
G04 #@! TO.P,J6,4*
G04 #@! TO.N,/BUZZER*
X163937500Y-71615500D03*
G04 #@! TO.P,J6,3*
G04 #@! TO.N,/TRIGGER*
X161937500Y-71615500D03*
D13*
G04 #@! TO.P,J6,1*
G04 #@! TO.N,Net-(J6-Pad1)*
X157937500Y-71615500D03*
D12*
G04 #@! TO.P,J6,2*
G04 #@! TO.N,GND*
X159937500Y-71615500D03*
G04 #@! TD*
D29*
G04 #@! TO.P,TP1,1*
G04 #@! TO.N,Net-(TP1-Pad1)*
X154051000Y-86677500D03*
G04 #@! TD*
D30*
G04 #@! TO.N,GND*
X129857800Y-78003600D03*
X125920800Y-81559600D03*
X126809800Y-81559600D03*
X128841800Y-81559600D03*
X127825800Y-81559600D03*
X125920800Y-83337600D03*
X125920800Y-82448600D03*
X125920800Y-84226600D03*
X125920800Y-86004600D03*
X125920800Y-87782600D03*
X128841800Y-80924586D03*
X127825800Y-80924600D03*
X126809800Y-80924600D03*
X127952800Y-76479600D03*
X126936800Y-76479600D03*
X129095800Y-76479600D03*
X130238800Y-76479600D03*
X128587800Y-88671600D03*
X129984800Y-88671600D03*
X127190800Y-88671600D03*
X125920800Y-85115600D03*
X138290600Y-88493800D03*
X138798300Y-89827100D03*
X141020800Y-89827100D03*
X125920800Y-88671600D03*
X129641600Y-89509600D03*
X148666500Y-87871500D03*
X154064000Y-82029500D03*
X156540500Y-81966000D03*
X156540500Y-83591400D03*
X154064000Y-83337600D03*
X148933200Y-80810300D03*
X147587000Y-80810300D03*
X147587000Y-82016800D03*
X146037600Y-82016800D03*
X146647200Y-79476800D03*
X145897900Y-80797600D03*
X143980200Y-80823000D03*
X144640600Y-82372200D03*
X154216400Y-87947500D03*
X152146000Y-87884000D03*
X153556000Y-89255800D03*
X152336500Y-85852200D03*
X153797000Y-84645500D03*
X156527500Y-86995200D03*
X148742400Y-79476600D03*
X131127500Y-70675500D03*
X131127500Y-74231500D03*
X152044400Y-76022200D03*
X142011400Y-85750400D03*
X136829800Y-94386400D03*
X137935000Y-95123200D03*
X134823200Y-99339400D03*
X158788100Y-72885300D03*
X159588200Y-79705200D03*
X161417000Y-79197200D03*
X168859200Y-70662800D03*
X174294800Y-76123800D03*
X162814000Y-86156800D03*
X168884600Y-99314000D03*
X174320200Y-93903800D03*
X125730000Y-93878400D03*
X131140200Y-99288600D03*
X131826000Y-92024200D03*
X139446000Y-93522800D03*
X140589000Y-88468200D03*
X142011400Y-88849200D03*
X133604000Y-88366600D03*
X140589000Y-84378800D03*
X138633200Y-84378800D03*
X136347200Y-84404200D03*
X134264400Y-83743800D03*
X136880600Y-82956400D03*
X140665200Y-82931000D03*
X142062200Y-82143600D03*
X143027404Y-84048600D03*
X142837200Y-80823000D03*
X156553200Y-85293400D03*
X159118600Y-89332000D03*
X148476000Y-93395800D03*
X156578600Y-89230400D03*
X155486400Y-89230400D03*
X162941000Y-70662800D03*
X174294800Y-80670400D03*
X174294800Y-89585800D03*
X139050000Y-70675000D03*
X130400000Y-94600000D03*
X169600000Y-75400000D03*
X136875000Y-90275000D03*
X136025000Y-88150000D03*
X161086800Y-99364800D03*
X154875000Y-99375000D03*
X159175000Y-82347000D03*
X160775000Y-83500000D03*
X160775000Y-89425000D03*
X147155200Y-95859800D03*
X141414500Y-99339400D03*
X139459000Y-94843800D03*
X140830600Y-96317000D03*
X144564400Y-99339600D03*
X147180600Y-99288800D03*
X152527000Y-98018600D03*
X133718600Y-85776000D03*
X149974600Y-95377200D03*
X166662400Y-96977400D03*
X162903200Y-96977400D03*
X162903200Y-95275600D03*
X166662400Y-95275600D03*
X160642600Y-97180600D03*
X164757400Y-95275600D03*
X164757400Y-96977400D03*
X151244600Y-99288800D03*
X143015000Y-87300000D03*
X155334000Y-86665000D03*
X154038600Y-85420400D03*
X131254800Y-76479600D03*
X139052600Y-75565200D03*
X141694200Y-78511600D03*
X140195600Y-79095800D03*
X145605800Y-78486200D03*
X145605800Y-78486200D03*
X145605800Y-78486200D03*
X145605800Y-78486200D03*
X145605800Y-78486200D03*
X145605800Y-78486200D03*
X145605800Y-78486200D03*
X150685800Y-84607600D03*
X146875800Y-84480600D03*
X151854200Y-83312200D03*
X151905000Y-80810300D03*
X151879600Y-82042200D03*
X149212600Y-82042200D03*
X148171200Y-83286800D03*
X151905000Y-79502200D03*
X156502400Y-80238800D03*
X154051300Y-80810300D03*
X148476000Y-90475000D03*
X134747000Y-94208600D03*
X159232600Y-83743800D03*
X134975594Y-91541600D03*
X141605000Y-91541600D03*
X126517400Y-87782400D03*
X132334006Y-77546200D03*
X132334000Y-76479400D03*
X132334000Y-78587600D03*
X132333998Y-79705200D03*
X132334000Y-80924400D03*
X131394208Y-82143600D03*
X131394200Y-83337400D03*
X131394200Y-80924400D03*
X128333800Y-78003600D03*
X129717800Y-84531200D03*
X129717800Y-81559404D03*
X129006600Y-82448400D03*
X129717800Y-83566002D03*
X129717800Y-82549998D03*
X131191000Y-86106004D03*
X131191000Y-87376000D03*
X131191000Y-88671396D03*
X125920800Y-86893600D03*
X125857000Y-79806800D03*
X125857004Y-78638400D03*
X125857000Y-77495400D03*
X125857000Y-76479401D03*
X125857000Y-80924400D03*
D31*
X144564400Y-75565200D03*
D30*
X135051800Y-78460600D03*
X133477000Y-82169000D03*
X138455400Y-86436200D03*
X140589000Y-86436200D03*
X133324600Y-72847200D03*
X152933400Y-94208600D03*
X154609800Y-96443800D03*
X154432000Y-94284800D03*
X156438600Y-94564200D03*
X160642300Y-96227900D03*
X157886400Y-96240600D03*
X158699200Y-94589600D03*
X161137600Y-94615000D03*
X154813000Y-90347800D03*
X153009600Y-92684600D03*
X143852900Y-91782900D03*
X144018000Y-93383100D03*
X144653000Y-95491300D03*
X135204200Y-82016600D03*
X133642100Y-80175100D03*
X133337300Y-76708000D03*
X165341300Y-89789000D03*
X166801800Y-89877900D03*
X167195500Y-88277700D03*
X157657800Y-91617800D03*
X162318700Y-89420700D03*
X162750500Y-87858600D03*
X165265100Y-86156800D03*
X167005000Y-91897200D03*
X165277800Y-87871300D03*
X169608500Y-89509600D03*
X164884100Y-84988400D03*
X169468800Y-94488000D03*
X155346400Y-92659200D03*
X161975800Y-92684600D03*
X158521400Y-92659200D03*
X164744400Y-92684600D03*
X158648400Y-87528400D03*
X158775400Y-86106000D03*
X141846600Y-72898200D03*
X173304200Y-85013800D03*
X144920000Y-79629200D03*
X143218200Y-79629200D03*
X154216400Y-79603800D03*
X170612100Y-80670600D03*
X136474500Y-75616000D03*
X137427000Y-73965000D03*
X144285000Y-70675000D03*
X164833600Y-75895400D03*
X157099000Y-72859900D03*
X155740400Y-70663000D03*
X155740400Y-73533000D03*
X163118800Y-77533500D03*
X169608800Y-83540800D03*
X166268400Y-80251300D03*
X167551400Y-78943400D03*
X171336000Y-85014000D03*
X169177000Y-91846600D03*
X171348400Y-89509600D03*
X155460700Y-75539600D03*
X155651200Y-77444800D03*
X161277600Y-72822000D03*
X157099000Y-74980800D03*
X158788100Y-75476100D03*
X160159700Y-77470000D03*
X161264600Y-75831700D03*
X162407600Y-82054700D03*
G04 #@! TO.N,+3V3*
X147155200Y-95047000D03*
X135737596Y-91516200D03*
X133604000Y-89154000D03*
D31*
X142417800Y-91516200D03*
D30*
X143052800Y-83007196D03*
D31*
X134366000Y-81965800D03*
D30*
X133603996Y-83007200D03*
X154673300Y-93103700D03*
G04 #@! TO.N,/RESET*
X129641600Y-91643200D03*
G04 #@! TO.N,Net-(D1-Pad1)*
X172618400Y-93040200D03*
G04 #@! TO.N,/SWDIO*
X145986496Y-84391500D03*
X145986800Y-91186200D03*
X145986500Y-92583002D03*
G04 #@! TO.N,/SWCLK*
X145275600Y-91186200D03*
X145275600Y-83032801D03*
X145277840Y-92583002D03*
G04 #@! TO.N,/DEBUG_RX*
X134620000Y-93421200D03*
G04 #@! TO.N,/DEBUG_TX*
X131191000Y-93726006D03*
X131699000Y-90932000D03*
G04 #@! TO.N,/SD_DAT2*
X158851602Y-81661000D03*
X141287800Y-80061000D03*
G04 #@! TO.N,/SD_DAT3*
X158850000Y-83050000D03*
X140614400Y-82016600D03*
G04 #@! TO.N,Net-(J3-Pad5)*
X155524500Y-85141000D03*
X147523200Y-83896200D03*
G04 #@! TO.N,/SD_DAT0*
X158724600Y-88646000D03*
X147777500Y-87871500D03*
G04 #@! TO.N,/SD_DAT1*
X158724600Y-90042998D03*
G04 #@! TO.N,/SD_CMD*
X148730000Y-82664502D03*
X158851600Y-84429599D03*
G04 #@! TO.N,Net-(J5-Pad3)*
X151803400Y-97702000D03*
G04 #@! TO.N,/RS485_EN*
X144564400Y-96317000D03*
X140309604Y-95681800D03*
X141935200Y-95681800D03*
G04 #@! TO.N,/I2C1_SDA*
X135712200Y-77038200D03*
G04 #@! TO.N,/I2C1_SCL*
X136499600Y-77038200D03*
G04 #@! TO.N,/GNSS_RX*
X137490500Y-74790500D03*
X138633500Y-74219000D03*
D31*
G04 #@! TO.N,VDD*
X161557000Y-85331500D03*
D30*
G04 #@! TO.N,/LPS22HB_INT*
X148730000Y-76530400D03*
G04 #@! TD*
D32*
G04 #@! TO.N,GND*
X129881801Y-77368600D02*
X129881801Y-77979599D01*
X129881801Y-77979599D02*
X129857800Y-78003600D01*
X127025800Y-86215600D02*
X127025800Y-86115600D01*
D33*
X129730800Y-81559600D02*
X129730800Y-81559600D01*
X125920800Y-85115600D02*
X125920800Y-85115600D01*
X125920800Y-86893600D02*
X125920800Y-86893600D01*
D34*
X128309800Y-83699600D02*
X128625800Y-84015600D01*
X128309800Y-82448600D02*
X128309800Y-83699600D01*
X127317800Y-86507600D02*
X127025800Y-86215600D01*
X127341800Y-87782600D02*
X127317800Y-87758600D01*
X127317800Y-87758600D02*
X127317800Y-86507600D01*
X131039600Y-89826600D02*
X131039600Y-89826600D01*
X130569100Y-89509600D02*
X130573600Y-89514100D01*
X129641600Y-89509600D02*
X130569100Y-89509600D01*
X133454000Y-88516600D02*
X133604000Y-88366600D01*
X132666800Y-88516600D02*
X133454000Y-88516600D01*
X135116800Y-92466600D02*
X135116800Y-91682806D01*
X135116800Y-91682806D02*
X134975594Y-91541600D01*
X141616800Y-92466600D02*
X141616800Y-91553400D01*
X141616800Y-91553400D02*
X141605000Y-91541600D01*
X144066800Y-83516600D02*
X143419804Y-83516600D01*
X143419804Y-83516600D02*
X143027404Y-83909000D01*
X143027404Y-83909000D02*
X143027404Y-84048600D01*
X126517600Y-87782600D02*
X126517400Y-87782400D01*
X127341800Y-87782600D02*
X126517600Y-87782600D01*
D35*
X131394208Y-82143600D02*
X131394208Y-83337392D01*
X131394208Y-83337392D02*
X131394200Y-83337400D01*
X131394208Y-82143600D02*
X131394208Y-80924408D01*
X131394208Y-80924408D02*
X131394200Y-80924400D01*
X131394200Y-80924400D02*
X132334000Y-80924400D01*
X132334000Y-79705202D02*
X132333998Y-79705200D01*
X132334000Y-80924400D02*
X132334000Y-79705202D01*
X132333998Y-78587602D02*
X132334000Y-78587600D01*
X132333998Y-79705200D02*
X132333998Y-78587602D01*
X132334000Y-77546206D02*
X132334006Y-77546200D01*
X132334000Y-78587600D02*
X132334000Y-77546206D01*
X132334006Y-76479406D02*
X132334000Y-76479400D01*
X132334006Y-77546200D02*
X132334006Y-76479406D01*
X131255000Y-76479400D02*
X131254800Y-76479600D01*
X132334000Y-76479400D02*
X131255000Y-76479400D01*
X131254800Y-76479600D02*
X130238800Y-76479600D01*
X130238800Y-76479600D02*
X129095800Y-76479600D01*
X129095800Y-76479600D02*
X127952800Y-76479600D01*
X126936800Y-76479600D02*
X127952800Y-76479600D01*
D32*
X128321800Y-77368600D02*
X128321800Y-77991600D01*
X128321800Y-77991600D02*
X128333800Y-78003600D01*
D35*
X125920800Y-81559600D02*
X126809800Y-81559600D01*
X126809800Y-81559600D02*
X127825800Y-81559600D01*
X128841800Y-81559600D02*
X129717604Y-81559600D01*
X129717604Y-81559600D02*
X129717800Y-81559404D01*
D32*
X129006400Y-82448600D02*
X129006600Y-82448400D01*
X128309800Y-82448600D02*
X129006400Y-82448600D01*
D35*
X129717800Y-84531200D02*
X129717800Y-83566002D01*
X129717800Y-81559404D02*
X129717800Y-82549998D01*
X129717800Y-83566002D02*
X129717800Y-82549998D01*
X131191000Y-86106004D02*
X131191000Y-87376000D01*
X131191000Y-87376000D02*
X131191000Y-88671396D01*
X129985004Y-88671396D02*
X129984800Y-88671600D01*
X131191000Y-88671396D02*
X129985004Y-88671396D01*
X129984800Y-88671600D02*
X128587800Y-88671600D01*
X128587800Y-88671600D02*
X127190800Y-88671600D01*
X127190800Y-88671600D02*
X125920800Y-88671600D01*
X125920800Y-88671600D02*
X125920800Y-87782600D01*
X125920800Y-87782600D02*
X125920800Y-86893600D01*
X125920800Y-86004600D02*
X125920800Y-86893600D01*
X125920800Y-86004600D02*
X125920800Y-85115600D01*
X125920800Y-85115600D02*
X125920800Y-84226600D01*
X125920800Y-83337600D02*
X125920800Y-84226600D01*
X125920800Y-81559600D02*
X125920800Y-82448600D01*
X125920800Y-82448600D02*
X125920800Y-83337600D01*
X127825800Y-81559600D02*
X128841800Y-81559600D01*
X127825814Y-80924586D02*
X127825800Y-80924600D01*
X128841800Y-80924586D02*
X127825814Y-80924586D01*
X127825800Y-80924600D02*
X126809800Y-80924600D01*
X126809800Y-80924600D02*
X125857200Y-80924600D01*
X125857200Y-80924600D02*
X125857000Y-80924400D01*
X125857000Y-80924400D02*
X125857000Y-79806800D01*
X125857000Y-78638404D02*
X125857004Y-78638400D01*
X125857000Y-79806800D02*
X125857000Y-78638404D01*
X125857004Y-77495404D02*
X125857000Y-77495400D01*
X125857004Y-78638400D02*
X125857004Y-77495404D01*
X125857000Y-76479401D02*
X125857000Y-77495400D01*
X126936601Y-76479401D02*
X126936800Y-76479600D01*
X125857000Y-76479401D02*
X126936601Y-76479401D01*
D34*
X135116800Y-81066600D02*
X135116800Y-81929200D01*
X135116800Y-81929200D02*
X135204200Y-82016600D01*
D32*
X134366000Y-82905600D02*
X134366000Y-83743800D01*
X133477000Y-82169000D02*
X133629400Y-82169000D01*
X133629400Y-82169000D02*
X134366000Y-82905600D01*
D34*
X157664600Y-87537000D02*
X158639800Y-87537000D01*
X158639800Y-87537000D02*
X158648400Y-87528400D01*
D32*
X129616202Y-82448400D02*
X129717800Y-82549998D01*
X129006600Y-82448400D02*
X129616202Y-82448400D01*
X125921000Y-87782400D02*
X125920800Y-87782600D01*
X126517400Y-87782400D02*
X125921000Y-87782400D01*
X136616800Y-82692600D02*
X136880600Y-82956400D01*
X136616800Y-81066600D02*
X136616800Y-82692600D01*
X151690847Y-76022200D02*
X151513247Y-75844600D01*
X152044400Y-76022200D02*
X151690847Y-76022200D01*
D34*
G04 #@! TO.N,+3V3*
X148585200Y-95047000D02*
X147167900Y-95047000D01*
X133466600Y-89016600D02*
X133604000Y-89154000D01*
X132666800Y-89016600D02*
X133466600Y-89016600D01*
X135616800Y-91636996D02*
X135616800Y-92466600D01*
X135737596Y-91516200D02*
X135616800Y-91636996D01*
X142116800Y-92466600D02*
X142116800Y-92091600D01*
X142491800Y-91716600D02*
X142491800Y-91590200D01*
X142116800Y-92091600D02*
X142491800Y-91716600D01*
X142491800Y-91590200D02*
X142417800Y-91516200D01*
X143062204Y-83016600D02*
X143052800Y-83007196D01*
X144066800Y-83016600D02*
X143062204Y-83016600D01*
X134616800Y-81715000D02*
X134366000Y-81965800D01*
X134616800Y-81066600D02*
X134616800Y-81715000D01*
X133594596Y-83016600D02*
X133603996Y-83007200D01*
X132666800Y-83016600D02*
X133594596Y-83016600D01*
D32*
X154889200Y-93319600D02*
X154673300Y-93103700D01*
X168770400Y-93319600D02*
X154889200Y-93319600D01*
G04 #@! TO.N,/RESET*
X129641600Y-91643200D02*
X130552700Y-91643200D01*
X136346800Y-94869000D02*
X137826800Y-96349000D01*
X133159500Y-94869000D02*
X136346800Y-94869000D01*
X130573600Y-91664100D02*
X130573600Y-92283100D01*
X130573600Y-92283100D02*
X133159500Y-94869000D01*
X131766402Y-89946298D02*
X130573600Y-91139100D01*
X132666800Y-86016600D02*
X131966800Y-86016600D01*
X131766402Y-86216998D02*
X131766402Y-89946298D01*
X131966800Y-86016600D02*
X131766402Y-86216998D01*
X130573600Y-91139100D02*
X130573600Y-91664100D01*
D34*
G04 #@! TO.N,/HSE_IN*
X126809800Y-83799600D02*
X127025800Y-84015600D01*
X126809800Y-82448600D02*
X126809800Y-83799600D01*
X127025800Y-84300602D02*
X127025800Y-84015600D01*
X127840798Y-85115600D02*
X127025800Y-84300602D01*
X130111800Y-85115600D02*
X127840798Y-85115600D01*
X132666800Y-85016600D02*
X130210800Y-85016600D01*
X130210800Y-85016600D02*
X130111800Y-85115600D01*
G04 #@! TO.N,Net-(C12-Pad1)*
X128841800Y-86431600D02*
X128625800Y-86215600D01*
X128841800Y-87782600D02*
X128841800Y-86431600D01*
X130186800Y-87262600D02*
X130238800Y-87262600D01*
X128841800Y-87782600D02*
X129666800Y-87782600D01*
X129666800Y-87782600D02*
X130186800Y-87262600D01*
D32*
G04 #@! TO.N,/LSE_IN*
X131381801Y-79087599D02*
X131195800Y-79273600D01*
X131381801Y-77368600D02*
X131381801Y-79087599D01*
D34*
X130746800Y-83568602D02*
X130746800Y-80172600D01*
X131194798Y-84016600D02*
X130746800Y-83568602D01*
X132666800Y-84016600D02*
X131194798Y-84016600D01*
X130746800Y-80172600D02*
X131195800Y-79723600D01*
X131195800Y-79723600D02*
X131195800Y-79273600D01*
D32*
G04 #@! TO.N,/LSE_OUT*
X126821801Y-79099600D02*
X126995800Y-79273600D01*
X126821800Y-77368600D02*
X126821801Y-79099600D01*
D34*
X126995800Y-79586600D02*
X126995800Y-79273600D01*
X131058387Y-84516600D02*
X130296789Y-83755002D01*
X130296789Y-83755002D02*
X130296789Y-81274789D01*
X130296789Y-81274789D02*
X129362200Y-80340200D01*
X132666800Y-84516600D02*
X131058387Y-84516600D01*
X129362200Y-80340200D02*
X127749400Y-80340200D01*
X127749400Y-80340200D02*
X126995800Y-79586600D01*
D32*
G04 #@! TO.N,Net-(D1-Pad1)*
X170370400Y-93319600D02*
X172313600Y-93319600D01*
X172313600Y-93319600D02*
X172593000Y-93040200D01*
X172593000Y-93040200D02*
X172618400Y-93040200D01*
G04 #@! TO.N,/LED_R*
X147864400Y-89016600D02*
X147866500Y-89014500D01*
X144066800Y-89016600D02*
X147864400Y-89016600D01*
G04 #@! TO.N,Net-(D3-Pad1)*
X149466500Y-91935500D02*
X150710500Y-91935500D01*
G04 #@! TO.N,/LED_Y*
X147726000Y-90275000D02*
X147726000Y-90475000D01*
X146967600Y-89516600D02*
X147726000Y-90275000D01*
X144066800Y-89516600D02*
X146967600Y-89516600D01*
G04 #@! TO.N,/LED_G*
X147333000Y-91935500D02*
X147866500Y-91935500D01*
X146977400Y-91579900D02*
X147333000Y-91935500D01*
X146977400Y-90246400D02*
X146977400Y-91579900D01*
X144066800Y-90016600D02*
X146747600Y-90016600D01*
X146747600Y-90016600D02*
X146977400Y-90246400D01*
G04 #@! TO.N,/LED_B*
X147269500Y-93396000D02*
X147726000Y-93396000D01*
X146295100Y-90516600D02*
X146571000Y-90792500D01*
X144066800Y-90516600D02*
X146295100Y-90516600D01*
X146571000Y-90792500D02*
X146571000Y-91745000D01*
X146952000Y-92126000D02*
X146952000Y-93078500D01*
X146571000Y-91745000D02*
X146952000Y-92126000D01*
X146952000Y-93078500D02*
X147269500Y-93396000D01*
G04 #@! TO.N,Net-(D5-Pad1)*
X149466500Y-89014500D02*
X150710500Y-89014500D01*
G04 #@! TO.N,/SWDIO*
X145611596Y-84016600D02*
X145986496Y-84391500D01*
X145611596Y-84016600D02*
X144066800Y-84016600D01*
X145986800Y-91186200D02*
X145986800Y-92582702D01*
X145986800Y-92582702D02*
X145986500Y-92583002D01*
G04 #@! TO.N,/SWCLK*
X145275600Y-81267600D02*
X145275600Y-83032801D01*
X144246800Y-80238800D02*
X145275600Y-81267600D01*
X142569600Y-80238800D02*
X144246800Y-80238800D01*
X142116800Y-81066600D02*
X142116800Y-80691600D01*
X142116800Y-80691600D02*
X142569600Y-80238800D01*
X145275600Y-92580762D02*
X145277840Y-92583002D01*
X145275600Y-91186200D02*
X145275600Y-92580762D01*
D34*
G04 #@! TO.N,/DEBUG_RX*
X134616800Y-93216600D02*
X134616800Y-93216600D01*
X134616800Y-93418000D02*
X134620000Y-93421200D01*
X134616800Y-92466600D02*
X134616800Y-93418000D01*
D32*
G04 #@! TO.N,/DEBUG_TX*
X131203806Y-93726006D02*
X131191000Y-93726006D01*
X133813994Y-96349000D02*
X133826800Y-96349000D01*
X131191000Y-93726006D02*
X133813994Y-96349000D01*
X132114400Y-90516600D02*
X131699000Y-90932000D01*
X132666800Y-90516600D02*
X132114400Y-90516600D01*
G04 #@! TO.N,/SD_DAT2*
X157851600Y-81850000D02*
X157664600Y-82037000D01*
X158675000Y-81850000D02*
X157851600Y-81850000D01*
X158851602Y-81661000D02*
X158851602Y-81673398D01*
X158851602Y-81673398D02*
X158675000Y-81850000D01*
X141116800Y-80232000D02*
X141287800Y-80061000D01*
X141116800Y-81066600D02*
X141116800Y-80232000D01*
G04 #@! TO.N,/SD_DAT3*
X157751600Y-83050000D02*
X158850000Y-83050000D01*
X157664600Y-83137000D02*
X157751600Y-83050000D01*
X140616800Y-82014200D02*
X140614400Y-82016600D01*
X140616800Y-81066600D02*
X140616800Y-82014200D01*
G04 #@! TO.N,Net-(J3-Pad5)*
X155724499Y-85340999D02*
X155524500Y-85141000D01*
X156820500Y-86437000D02*
X155724499Y-85340999D01*
X157664600Y-86437000D02*
X156820500Y-86437000D01*
X146888500Y-80759500D02*
X146888500Y-83261500D01*
X145174000Y-79045000D02*
X146888500Y-80759500D01*
X142443500Y-79045000D02*
X145174000Y-79045000D01*
X146888500Y-83261500D02*
X147523200Y-83896200D01*
G04 #@! TO.N,/SD_DAT0*
X157673600Y-88646000D02*
X157664600Y-88637000D01*
X158724600Y-88646000D02*
X157673600Y-88646000D01*
X145274900Y-87871500D02*
X144920000Y-87516600D01*
X147777500Y-87871500D02*
X145274900Y-87871500D01*
X144066800Y-87516600D02*
X144920000Y-87516600D01*
G04 #@! TO.N,/SD_DAT1*
X158724598Y-90043000D02*
X158724600Y-90042998D01*
X158330900Y-90043000D02*
X158724598Y-90043000D01*
X157664600Y-89737000D02*
X158024900Y-89737000D01*
X158024900Y-89737000D02*
X158330900Y-90043000D01*
X157561600Y-89840000D02*
X157664600Y-89737000D01*
X155245000Y-89840000D02*
X157561600Y-89840000D01*
X144066800Y-87016600D02*
X152421600Y-87016600D01*
X152421600Y-87016600D02*
X155245000Y-89840000D01*
G04 #@! TO.N,/SD_CMD*
X148285500Y-82220002D02*
X148730000Y-82664502D01*
X148285500Y-80124500D02*
X148285500Y-82220002D01*
X145783600Y-77622600D02*
X148285500Y-80124500D01*
X140373400Y-77622600D02*
X145783600Y-77622600D01*
X139616800Y-81066600D02*
X139616800Y-78379200D01*
X139616800Y-78379200D02*
X140373400Y-77622600D01*
X157664600Y-84237000D02*
X158659001Y-84237000D01*
X158659001Y-84237000D02*
X158851600Y-84429599D01*
D34*
G04 #@! TO.N,Net-(J5-Pad3)*
X148700200Y-97702000D02*
X148585200Y-97587000D01*
X150762000Y-97702000D02*
X148700200Y-97702000D01*
X150762000Y-97702000D02*
X151803400Y-97702000D01*
G04 #@! TO.N,Net-(J5-Pad4)*
X148700200Y-96202000D02*
X148585200Y-96317000D01*
X150762000Y-96202000D02*
X148700200Y-96202000D01*
X151670100Y-96202000D02*
X153880600Y-98412500D01*
X150762000Y-96202000D02*
X151670100Y-96202000D01*
G04 #@! TO.N,/RS485_EN*
X143185200Y-96317000D02*
X143185200Y-97587000D01*
X143185200Y-96317000D02*
X144564400Y-96317000D01*
D32*
X140116800Y-92466600D02*
X140116800Y-95488996D01*
X140116800Y-95488996D02*
X140309604Y-95681800D01*
X143185200Y-96317000D02*
X142710200Y-96317000D01*
X142710200Y-96317000D02*
X142075000Y-95681800D01*
X142075000Y-95681800D02*
X141935200Y-95681800D01*
D34*
G04 #@! TO.N,/HSE_OUT*
X130484800Y-85516600D02*
X130238800Y-85762600D01*
X132666800Y-85516600D02*
X130484800Y-85516600D01*
D32*
G04 #@! TO.N,/SD_CLK*
X140943500Y-79211500D02*
X140943500Y-79045000D01*
X140116800Y-81066600D02*
X140116800Y-80038200D01*
X140116800Y-80038200D02*
X140943500Y-79211500D01*
G04 #@! TO.N,/I2C1_SDA*
X135616800Y-77133600D02*
X135712200Y-77038200D01*
X135616800Y-81066600D02*
X135616800Y-77133600D01*
G04 #@! TO.N,/I2C1_SCL*
X136116800Y-81066600D02*
X136116800Y-77421000D01*
X136499600Y-77038200D02*
X136116800Y-77421000D01*
G04 #@! TO.N,/RS485_TX*
X140616800Y-92466600D02*
X140616800Y-95188900D01*
X141693900Y-97840700D02*
X142710200Y-98857000D01*
X140616800Y-95188900D02*
X141693900Y-96266000D01*
X142710200Y-98857000D02*
X143185200Y-98857000D01*
X141693900Y-96266000D02*
X141693900Y-97840700D01*
G04 #@! TO.N,/RS485_RX*
X142710200Y-95047000D02*
X141116800Y-93453600D01*
X143185200Y-95047000D02*
X142710200Y-95047000D01*
X141116800Y-93453600D02*
X141116800Y-92466600D01*
G04 #@! TO.N,/GNSS_RX*
X137116800Y-81066600D02*
X137116800Y-75164200D01*
X137116800Y-75164200D02*
X137490500Y-74790500D01*
X140062500Y-71615500D02*
X140062500Y-72790000D01*
X140062500Y-72790000D02*
X138633500Y-74219000D01*
G04 #@! TO.N,/GNSS_TX*
X138062500Y-75044000D02*
X138062500Y-71615500D01*
X137616800Y-81066600D02*
X137616800Y-75489700D01*
X137616800Y-75489700D02*
X138062500Y-75044000D01*
G04 #@! TO.N,/GNSS_1PPS*
X138116800Y-75561200D02*
X138116800Y-81066600D01*
X142062500Y-71615500D02*
X138116800Y-75561200D01*
G04 #@! TO.N,/FLIGHTPIN*
X165937500Y-73711500D02*
X165937500Y-71615500D01*
X153416000Y-83896200D02*
X153416000Y-79502000D01*
X153416000Y-79502000D02*
X153924000Y-78994000D01*
X144066800Y-86016600D02*
X151295600Y-86016600D01*
X153924000Y-78994000D02*
X160655000Y-78994000D01*
X151295600Y-86016600D02*
X153416000Y-83896200D01*
X160655000Y-78994000D02*
X165937500Y-73711500D01*
G04 #@! TO.N,/BUZZER*
X163937500Y-75140000D02*
X163937500Y-71615500D01*
X160528000Y-78549500D02*
X163937500Y-75140000D01*
X153797000Y-78549500D02*
X160528000Y-78549500D01*
X144072200Y-85522000D02*
X144737202Y-85522000D01*
X144066800Y-85516600D02*
X144072200Y-85522000D01*
X152971500Y-79375000D02*
X153797000Y-78549500D01*
X144737202Y-85522000D02*
X144831792Y-85616590D01*
X144831792Y-85616590D02*
X151111410Y-85616590D01*
X151111410Y-85616590D02*
X152971500Y-83756500D01*
X152971500Y-83756500D02*
X152971500Y-79375000D01*
G04 #@! TO.N,/TRIGGER*
X160401000Y-78105000D02*
X161937500Y-76568500D01*
X152527000Y-79248000D02*
X153670000Y-78105000D01*
X152527000Y-83629500D02*
X152527000Y-79248000D01*
X150939920Y-85216580D02*
X152527000Y-83629500D01*
X145071780Y-85216580D02*
X150939920Y-85216580D01*
X144066800Y-85016600D02*
X144871800Y-85016600D01*
X153670000Y-78105000D02*
X160401000Y-78105000D01*
X144871800Y-85016600D02*
X145071780Y-85216580D01*
X161937500Y-76568500D02*
X161937500Y-71615500D01*
G04 #@! TO.N,Net-(D2-Pad2)*
X150470000Y-93396000D02*
X149226000Y-93396000D01*
G04 #@! TO.N,Net-(D4-Pad2)*
X150470000Y-90475000D02*
X149226000Y-90475000D01*
G04 #@! TO.N,Net-(TP1-Pad1)*
X152814900Y-86516600D02*
X144066800Y-86516600D01*
X152975800Y-86677500D02*
X154051000Y-86677500D01*
X152814900Y-86516600D02*
X152975800Y-86677500D01*
D33*
G04 #@! TO.N,VDD*
X158851600Y-85337000D02*
X158851600Y-85337000D01*
D35*
X161551500Y-85337000D02*
X161557000Y-85331500D01*
X157664600Y-85337000D02*
X161551500Y-85337000D01*
D32*
G04 #@! TO.N,/LPS22HB_INT*
X139116800Y-78168000D02*
X139116800Y-81066600D01*
X140195600Y-77089200D02*
X139116800Y-78168000D01*
X148730000Y-76530400D02*
X148171200Y-77089200D01*
X148171200Y-77089200D02*
X140195600Y-77089200D01*
G04 #@! TD*
D36*
G04 #@! TO.N,GND*
G36*
X144475500Y-75108000D02*
X144485167Y-75156601D01*
X144512697Y-75197803D01*
X145147697Y-75832803D01*
X145188899Y-75860333D01*
X145237500Y-75870000D01*
X154762500Y-75870000D01*
X154811101Y-75860333D01*
X154852303Y-75832803D01*
X155487303Y-75197803D01*
X155514833Y-75156601D01*
X155524500Y-75108000D01*
X155524500Y-70915500D01*
X156849036Y-70915500D01*
X156849036Y-72315500D01*
X156878606Y-72464159D01*
X156962814Y-72590186D01*
X157088841Y-72674394D01*
X157237500Y-72703964D01*
X158637500Y-72703964D01*
X158786159Y-72674394D01*
X158912186Y-72590186D01*
X158996394Y-72464159D01*
X159001826Y-72436849D01*
X159295756Y-72436849D01*
X159368972Y-72614078D01*
X159794388Y-72755631D01*
X160241591Y-72723611D01*
X160506028Y-72614078D01*
X160579244Y-72436849D01*
X159937500Y-71795105D01*
X159295756Y-72436849D01*
X159001826Y-72436849D01*
X159025964Y-72315500D01*
X159025964Y-72219986D01*
X159116151Y-72257244D01*
X159757895Y-71615500D01*
X159116151Y-70973756D01*
X159025964Y-71011014D01*
X159025964Y-70915500D01*
X159001827Y-70794151D01*
X159295756Y-70794151D01*
X159937500Y-71435895D01*
X160579244Y-70794151D01*
X160506028Y-70616922D01*
X160080612Y-70475369D01*
X159633409Y-70507389D01*
X159368972Y-70616922D01*
X159295756Y-70794151D01*
X159001827Y-70794151D01*
X158996394Y-70766841D01*
X158912186Y-70640814D01*
X158786159Y-70556606D01*
X158637500Y-70527036D01*
X157237500Y-70527036D01*
X157088841Y-70556606D01*
X156962814Y-70640814D01*
X156878606Y-70766841D01*
X156849036Y-70915500D01*
X155524500Y-70915500D01*
X155524500Y-70456000D01*
X169123000Y-70456000D01*
X169123000Y-74250000D01*
X169132667Y-74298601D01*
X169160197Y-74339803D01*
X170660197Y-75839803D01*
X170701399Y-75867333D01*
X170750000Y-75877000D01*
X174544000Y-75877000D01*
X174544001Y-82455084D01*
X174532398Y-82513418D01*
X174524796Y-82524796D01*
X174513418Y-82532398D01*
X174411039Y-82552762D01*
X174411038Y-82552762D01*
X174219697Y-82590822D01*
X174219695Y-82590822D01*
X174055316Y-82658911D01*
X173893105Y-82767298D01*
X173830024Y-82830380D01*
X173767298Y-82893105D01*
X173658911Y-83055316D01*
X173658911Y-83055317D01*
X173658910Y-83055318D01*
X173652639Y-83070458D01*
X173590822Y-83219695D01*
X173590822Y-83219697D01*
X173552762Y-83411039D01*
X173552762Y-83411043D01*
X173544000Y-83455092D01*
X173544001Y-87044909D01*
X173552762Y-87088953D01*
X173552762Y-87088961D01*
X173590822Y-87280303D01*
X173590822Y-87280305D01*
X173658911Y-87444684D01*
X173767298Y-87606895D01*
X173798984Y-87638580D01*
X173893105Y-87732702D01*
X174055316Y-87841089D01*
X174219695Y-87909178D01*
X174219697Y-87909178D01*
X174411038Y-87947238D01*
X174411039Y-87947238D01*
X174513418Y-87967602D01*
X174524796Y-87975204D01*
X174532398Y-87986582D01*
X174544000Y-88044911D01*
X174544001Y-94123000D01*
X170750000Y-94123000D01*
X170701399Y-94132667D01*
X170660197Y-94160197D01*
X169160197Y-95660197D01*
X169132667Y-95701399D01*
X169123000Y-95750000D01*
X169123000Y-99544000D01*
X163954032Y-99544000D01*
X164280691Y-99520611D01*
X164545128Y-99411078D01*
X164618344Y-99233849D01*
X163976600Y-98592105D01*
X163334856Y-99233849D01*
X163408072Y-99411078D01*
X163807549Y-99544000D01*
X157858032Y-99544000D01*
X158184691Y-99520611D01*
X158449128Y-99411078D01*
X158522344Y-99233849D01*
X157880600Y-98592105D01*
X157238856Y-99233849D01*
X157312072Y-99411078D01*
X157711549Y-99544000D01*
X149541704Y-99544000D01*
X149602076Y-99518993D01*
X149722193Y-99398876D01*
X149787200Y-99241936D01*
X149787200Y-99090750D01*
X149680450Y-98984000D01*
X148712200Y-98984000D01*
X148712200Y-99004000D01*
X148458200Y-99004000D01*
X148458200Y-98984000D01*
X147489950Y-98984000D01*
X147383200Y-99090750D01*
X147383200Y-99241936D01*
X147448207Y-99398876D01*
X147568324Y-99518993D01*
X147628696Y-99544000D01*
X143967560Y-99544000D01*
X144108859Y-99515894D01*
X144234886Y-99431686D01*
X144319094Y-99305659D01*
X144348664Y-99157000D01*
X144348664Y-98557000D01*
X144319094Y-98408341D01*
X144297400Y-98375873D01*
X144297400Y-98068127D01*
X144319094Y-98035659D01*
X144348664Y-97887000D01*
X144348664Y-97287000D01*
X144319094Y-97138341D01*
X144297400Y-97105873D01*
X144297400Y-96889395D01*
X144438886Y-96948000D01*
X144689914Y-96948000D01*
X144921833Y-96851936D01*
X145099336Y-96674433D01*
X145195400Y-96442514D01*
X145195400Y-96191486D01*
X145099336Y-95959567D01*
X144921833Y-95782064D01*
X144689914Y-95686000D01*
X144438886Y-95686000D01*
X144297400Y-95744605D01*
X144297400Y-95528127D01*
X144319094Y-95495659D01*
X144348664Y-95347000D01*
X144348664Y-94921486D01*
X146524200Y-94921486D01*
X146524200Y-95172514D01*
X146620264Y-95404433D01*
X146797767Y-95581936D01*
X147029686Y-95678000D01*
X147280714Y-95678000D01*
X147474236Y-95597841D01*
X147476179Y-95831115D01*
X147451306Y-95868341D01*
X147421736Y-96017000D01*
X147421736Y-96617000D01*
X147451306Y-96765659D01*
X147484380Y-96815158D01*
X147486632Y-97085471D01*
X147451306Y-97138341D01*
X147421736Y-97287000D01*
X147421736Y-97887000D01*
X147451306Y-98035659D01*
X147495097Y-98101197D01*
X147496477Y-98266854D01*
X147448207Y-98315124D01*
X147383200Y-98472064D01*
X147383200Y-98623250D01*
X147489950Y-98730000D01*
X148458200Y-98730000D01*
X148458200Y-98710000D01*
X148712200Y-98710000D01*
X148712200Y-98730000D01*
X149680450Y-98730000D01*
X149787200Y-98623250D01*
X149787200Y-98472064D01*
X149722193Y-98315124D01*
X149658253Y-98251184D01*
X149658613Y-98208000D01*
X150024828Y-98208000D01*
X150037314Y-98226686D01*
X150163341Y-98310894D01*
X150312000Y-98340464D01*
X151212000Y-98340464D01*
X151360659Y-98310894D01*
X151461634Y-98243425D01*
X151677886Y-98333000D01*
X151928914Y-98333000D01*
X152160833Y-98236936D01*
X152338336Y-98059433D01*
X152434400Y-97827514D01*
X152434400Y-97681892D01*
X152843646Y-98091138D01*
X152799600Y-98197476D01*
X152799600Y-98627524D01*
X152964172Y-99024837D01*
X153268263Y-99328928D01*
X153665576Y-99493500D01*
X154095624Y-99493500D01*
X154492937Y-99328928D01*
X154797028Y-99024837D01*
X154880600Y-98823076D01*
X154964172Y-99024837D01*
X155268263Y-99328928D01*
X155665576Y-99493500D01*
X156095624Y-99493500D01*
X156492937Y-99328928D01*
X156797028Y-99024837D01*
X156848598Y-98900335D01*
X156882022Y-98981028D01*
X157059251Y-99054244D01*
X157700995Y-98412500D01*
X158060205Y-98412500D01*
X158701949Y-99054244D01*
X158792136Y-99016986D01*
X158792136Y-99112500D01*
X158821706Y-99261159D01*
X158905914Y-99387186D01*
X159031941Y-99471394D01*
X159180600Y-99500964D01*
X160580600Y-99500964D01*
X160729259Y-99471394D01*
X160855286Y-99387186D01*
X160939494Y-99261159D01*
X160969064Y-99112500D01*
X160969064Y-98269388D01*
X162836469Y-98269388D01*
X162868489Y-98716591D01*
X162978022Y-98981028D01*
X163155251Y-99054244D01*
X163796995Y-98412500D01*
X164156205Y-98412500D01*
X164797949Y-99054244D01*
X164888136Y-99016986D01*
X164888136Y-99112500D01*
X164917706Y-99261159D01*
X165001914Y-99387186D01*
X165127941Y-99471394D01*
X165276600Y-99500964D01*
X166676600Y-99500964D01*
X166825259Y-99471394D01*
X166951286Y-99387186D01*
X167035494Y-99261159D01*
X167065064Y-99112500D01*
X167065064Y-97712500D01*
X167035494Y-97563841D01*
X166951286Y-97437814D01*
X166825259Y-97353606D01*
X166676600Y-97324036D01*
X165276600Y-97324036D01*
X165127941Y-97353606D01*
X165001914Y-97437814D01*
X164917706Y-97563841D01*
X164888136Y-97712500D01*
X164888136Y-97808014D01*
X164797949Y-97770756D01*
X164156205Y-98412500D01*
X163796995Y-98412500D01*
X163155251Y-97770756D01*
X162978022Y-97843972D01*
X162836469Y-98269388D01*
X160969064Y-98269388D01*
X160969064Y-97712500D01*
X160944927Y-97591151D01*
X163334856Y-97591151D01*
X163976600Y-98232895D01*
X164618344Y-97591151D01*
X164545128Y-97413922D01*
X164119712Y-97272369D01*
X163672509Y-97304389D01*
X163408072Y-97413922D01*
X163334856Y-97591151D01*
X160944927Y-97591151D01*
X160939494Y-97563841D01*
X160855286Y-97437814D01*
X160729259Y-97353606D01*
X160580600Y-97324036D01*
X159180600Y-97324036D01*
X159031941Y-97353606D01*
X158905914Y-97437814D01*
X158821706Y-97563841D01*
X158792136Y-97712500D01*
X158792136Y-97808014D01*
X158701949Y-97770756D01*
X158060205Y-98412500D01*
X157700995Y-98412500D01*
X157059251Y-97770756D01*
X156882022Y-97843972D01*
X156852244Y-97933466D01*
X156797028Y-97800163D01*
X156588016Y-97591151D01*
X157238856Y-97591151D01*
X157880600Y-98232895D01*
X158522344Y-97591151D01*
X158449128Y-97413922D01*
X158023712Y-97272369D01*
X157576509Y-97304389D01*
X157312072Y-97413922D01*
X157238856Y-97591151D01*
X156588016Y-97591151D01*
X156492937Y-97496072D01*
X156095624Y-97331500D01*
X155665576Y-97331500D01*
X155268263Y-97496072D01*
X154964172Y-97800163D01*
X154880600Y-98001924D01*
X154797028Y-97800163D01*
X154492937Y-97496072D01*
X154095624Y-97331500D01*
X153665576Y-97331500D01*
X153559238Y-97375546D01*
X152063139Y-95879448D01*
X152034906Y-95837194D01*
X151867531Y-95725359D01*
X151719935Y-95696000D01*
X151719934Y-95696000D01*
X151670100Y-95686087D01*
X151620266Y-95696000D01*
X151499172Y-95696000D01*
X151486686Y-95677314D01*
X151360659Y-95593106D01*
X151212000Y-95563536D01*
X150312000Y-95563536D01*
X150163341Y-95593106D01*
X150037314Y-95677314D01*
X150024828Y-95696000D01*
X149679546Y-95696000D01*
X149680738Y-95553064D01*
X149719094Y-95495659D01*
X149748664Y-95347000D01*
X149748664Y-94747000D01*
X149719094Y-94598341D01*
X149634886Y-94472314D01*
X149508859Y-94388106D01*
X149360200Y-94358536D01*
X147810200Y-94358536D01*
X147661541Y-94388106D01*
X147535514Y-94472314D01*
X147509752Y-94510870D01*
X147280714Y-94416000D01*
X147029686Y-94416000D01*
X146797767Y-94512064D01*
X146620264Y-94689567D01*
X146524200Y-94921486D01*
X144348664Y-94921486D01*
X144348664Y-94747000D01*
X144319094Y-94598341D01*
X144234886Y-94472314D01*
X144108859Y-94388106D01*
X143960200Y-94358536D01*
X142701973Y-94358536D01*
X141737036Y-93393600D01*
X141743802Y-93393600D01*
X141743802Y-93351352D01*
X141786050Y-93393600D01*
X141826736Y-93393600D01*
X141943138Y-93345385D01*
X141991800Y-93355064D01*
X142241800Y-93355064D01*
X142390459Y-93325494D01*
X142516486Y-93241286D01*
X142600694Y-93115259D01*
X142630264Y-92966600D01*
X142630264Y-92293727D01*
X142814355Y-92109636D01*
X142856606Y-92081406D01*
X142939026Y-91958054D01*
X142995124Y-91901956D01*
X143098800Y-91651659D01*
X143098800Y-91380741D01*
X142995124Y-91130444D01*
X142803556Y-90938876D01*
X142553259Y-90835200D01*
X142282341Y-90835200D01*
X142032044Y-90938876D01*
X141840476Y-91130444D01*
X141736800Y-91380741D01*
X141736800Y-91588850D01*
X141679300Y-91646350D01*
X141679300Y-91748507D01*
X141632906Y-91817941D01*
X141616800Y-91898912D01*
X141600694Y-91817941D01*
X141554300Y-91748507D01*
X141554300Y-91646350D01*
X141447550Y-91539600D01*
X141406864Y-91539600D01*
X141290462Y-91587815D01*
X141241800Y-91578136D01*
X140991800Y-91578136D01*
X140866800Y-91603000D01*
X140741800Y-91578136D01*
X140491800Y-91578136D01*
X140366800Y-91603000D01*
X140241800Y-91578136D01*
X139991800Y-91578136D01*
X139866800Y-91603000D01*
X139741800Y-91578136D01*
X139491800Y-91578136D01*
X139366800Y-91603000D01*
X139241800Y-91578136D01*
X138991800Y-91578136D01*
X138866800Y-91603000D01*
X138741800Y-91578136D01*
X138491800Y-91578136D01*
X138366800Y-91603000D01*
X138241800Y-91578136D01*
X137991800Y-91578136D01*
X137866800Y-91603000D01*
X137741800Y-91578136D01*
X137491800Y-91578136D01*
X137366800Y-91603000D01*
X137241800Y-91578136D01*
X136991800Y-91578136D01*
X136866800Y-91603000D01*
X136741800Y-91578136D01*
X136491800Y-91578136D01*
X136368596Y-91602643D01*
X136368596Y-91390686D01*
X136272532Y-91158767D01*
X136095029Y-90981264D01*
X135863110Y-90885200D01*
X135612082Y-90885200D01*
X135380163Y-90981264D01*
X135202660Y-91158767D01*
X135106596Y-91390686D01*
X135106596Y-91539600D01*
X134989798Y-91539600D01*
X134989798Y-91581848D01*
X134947550Y-91539600D01*
X134906864Y-91539600D01*
X134790462Y-91587815D01*
X134741800Y-91578136D01*
X134491800Y-91578136D01*
X134343141Y-91607706D01*
X134217114Y-91691914D01*
X134132906Y-91817941D01*
X134103336Y-91966600D01*
X134103336Y-92966600D01*
X134110801Y-93004127D01*
X134110801Y-93038030D01*
X134085064Y-93063767D01*
X133989000Y-93295686D01*
X133989000Y-93546714D01*
X134085064Y-93778633D01*
X134262567Y-93956136D01*
X134494486Y-94052200D01*
X134745514Y-94052200D01*
X134977433Y-93956136D01*
X135154936Y-93778633D01*
X135251000Y-93546714D01*
X135251000Y-93358550D01*
X135286050Y-93393600D01*
X135326736Y-93393600D01*
X135443138Y-93345385D01*
X135491800Y-93355064D01*
X135741800Y-93355064D01*
X135866800Y-93330200D01*
X135991800Y-93355064D01*
X136241800Y-93355064D01*
X136366800Y-93330200D01*
X136491800Y-93355064D01*
X136741800Y-93355064D01*
X136866800Y-93330200D01*
X136991800Y-93355064D01*
X137241800Y-93355064D01*
X137366800Y-93330200D01*
X137491800Y-93355064D01*
X137741800Y-93355064D01*
X137866800Y-93330200D01*
X137991800Y-93355064D01*
X138241800Y-93355064D01*
X138366800Y-93330200D01*
X138491800Y-93355064D01*
X138741800Y-93355064D01*
X138866800Y-93330200D01*
X138991800Y-93355064D01*
X139241800Y-93355064D01*
X139366800Y-93330200D01*
X139491800Y-93355064D01*
X139635800Y-93355064D01*
X139635801Y-95441622D01*
X139626378Y-95488996D01*
X139663708Y-95676672D01*
X139678604Y-95698965D01*
X139678604Y-95807314D01*
X139774668Y-96039233D01*
X139952171Y-96216736D01*
X140184090Y-96312800D01*
X140435118Y-96312800D01*
X140667037Y-96216736D01*
X140815719Y-96068055D01*
X141212900Y-96465236D01*
X141212901Y-97793326D01*
X141203478Y-97840700D01*
X141240808Y-98028376D01*
X141320284Y-98147320D01*
X141320287Y-98147323D01*
X141347120Y-98187481D01*
X141387278Y-98214314D01*
X142021736Y-98848772D01*
X142021736Y-99157000D01*
X142051306Y-99305659D01*
X142135514Y-99431686D01*
X142261541Y-99515894D01*
X142402840Y-99544000D01*
X130877000Y-99544000D01*
X130877000Y-95750000D01*
X130867333Y-95701399D01*
X130839803Y-95660197D01*
X129339803Y-94160197D01*
X129298601Y-94132667D01*
X129250000Y-94123000D01*
X125456000Y-94123000D01*
X125456000Y-91339100D01*
X125510136Y-91339100D01*
X125510136Y-91989100D01*
X125539706Y-92137759D01*
X125623914Y-92263786D01*
X125749941Y-92347994D01*
X125898600Y-92377564D01*
X126948600Y-92377564D01*
X127097259Y-92347994D01*
X127223286Y-92263786D01*
X127307494Y-92137759D01*
X127337064Y-91989100D01*
X127337064Y-91339100D01*
X127307494Y-91190441D01*
X127223286Y-91064414D01*
X127097259Y-90980206D01*
X126948600Y-90950636D01*
X125898600Y-90950636D01*
X125749941Y-90980206D01*
X125623914Y-91064414D01*
X125539706Y-91190441D01*
X125510136Y-91339100D01*
X125456000Y-91339100D01*
X125456000Y-89747850D01*
X125471600Y-89747850D01*
X125471600Y-89924036D01*
X125536607Y-90080976D01*
X125656724Y-90201093D01*
X125813665Y-90266100D01*
X126189850Y-90266100D01*
X126296600Y-90159350D01*
X126296600Y-89641100D01*
X126550600Y-89641100D01*
X126550600Y-90159350D01*
X126657350Y-90266100D01*
X127033535Y-90266100D01*
X127190476Y-90201093D01*
X127310593Y-90080976D01*
X127375600Y-89924036D01*
X127375600Y-89747850D01*
X129621600Y-89747850D01*
X129621600Y-89924036D01*
X129686607Y-90080976D01*
X129806724Y-90201093D01*
X129963665Y-90266100D01*
X130339850Y-90266100D01*
X130446600Y-90159350D01*
X130446600Y-89641100D01*
X129728350Y-89641100D01*
X129621600Y-89747850D01*
X127375600Y-89747850D01*
X127268850Y-89641100D01*
X126550600Y-89641100D01*
X126296600Y-89641100D01*
X125578350Y-89641100D01*
X125471600Y-89747850D01*
X125456000Y-89747850D01*
X125456000Y-89104164D01*
X125471600Y-89104164D01*
X125471600Y-89280350D01*
X125578350Y-89387100D01*
X126296600Y-89387100D01*
X126296600Y-89367100D01*
X126550600Y-89367100D01*
X126550600Y-89387100D01*
X127268850Y-89387100D01*
X127375600Y-89280350D01*
X127375600Y-89104164D01*
X127310593Y-88947224D01*
X127190476Y-88827107D01*
X127121654Y-88798600D01*
X129875546Y-88798600D01*
X129806724Y-88827107D01*
X129686607Y-88947224D01*
X129621600Y-89104164D01*
X129621600Y-89280350D01*
X129728350Y-89387100D01*
X130446600Y-89387100D01*
X130446600Y-89367100D01*
X130700600Y-89367100D01*
X130700600Y-89387100D01*
X130720600Y-89387100D01*
X130720600Y-89641100D01*
X130700600Y-89641100D01*
X130700600Y-90159350D01*
X130786857Y-90245607D01*
X130266980Y-90765484D01*
X130226819Y-90792319D01*
X130199985Y-90832479D01*
X130199984Y-90832480D01*
X130180050Y-90862314D01*
X130121035Y-90950636D01*
X130048600Y-90950636D01*
X129899941Y-90980206D01*
X129819551Y-91033920D01*
X129767114Y-91012200D01*
X129516086Y-91012200D01*
X129284167Y-91108264D01*
X129106664Y-91285767D01*
X129010600Y-91517686D01*
X129010600Y-91768714D01*
X129106664Y-92000633D01*
X129284167Y-92178136D01*
X129516086Y-92274200D01*
X129767114Y-92274200D01*
X129780933Y-92268476D01*
X129899941Y-92347994D01*
X130048600Y-92377564D01*
X130101968Y-92377564D01*
X130120508Y-92470776D01*
X130199984Y-92589720D01*
X130199987Y-92589723D01*
X130226820Y-92629881D01*
X130266978Y-92656714D01*
X130817450Y-93207187D01*
X130656064Y-93368573D01*
X130560000Y-93600492D01*
X130560000Y-93851520D01*
X130656064Y-94083439D01*
X130833567Y-94260942D01*
X131065486Y-94357006D01*
X131141764Y-94357006D01*
X132796451Y-96011694D01*
X132745800Y-96133976D01*
X132745800Y-96564024D01*
X132910372Y-96961337D01*
X133214463Y-97265428D01*
X133416224Y-97349000D01*
X133214463Y-97432572D01*
X132910372Y-97736663D01*
X132745800Y-98133976D01*
X132745800Y-98564024D01*
X132910372Y-98961337D01*
X133214463Y-99265428D01*
X133611776Y-99430000D01*
X134041824Y-99430000D01*
X134439137Y-99265428D01*
X134743228Y-98961337D01*
X134826800Y-98759576D01*
X134910372Y-98961337D01*
X135214463Y-99265428D01*
X135611776Y-99430000D01*
X136041824Y-99430000D01*
X136439137Y-99265428D01*
X136699800Y-99004765D01*
X136699800Y-99133936D01*
X136764807Y-99290876D01*
X136884924Y-99410993D01*
X137041865Y-99476000D01*
X137593050Y-99476000D01*
X137699800Y-99369250D01*
X137699800Y-98476000D01*
X137953800Y-98476000D01*
X137953800Y-99369250D01*
X138060550Y-99476000D01*
X138611735Y-99476000D01*
X138768676Y-99410993D01*
X138888793Y-99290876D01*
X138953800Y-99133936D01*
X138953800Y-98582750D01*
X138847050Y-98476000D01*
X137953800Y-98476000D01*
X137699800Y-98476000D01*
X137679800Y-98476000D01*
X137679800Y-98222000D01*
X137699800Y-98222000D01*
X137699800Y-98202000D01*
X137953800Y-98202000D01*
X137953800Y-98222000D01*
X138847050Y-98222000D01*
X138953800Y-98115250D01*
X138953800Y-97564064D01*
X138888793Y-97407124D01*
X138768676Y-97287007D01*
X138611735Y-97222000D01*
X138482565Y-97222000D01*
X138743228Y-96961337D01*
X138907800Y-96564024D01*
X138907800Y-96133976D01*
X138743228Y-95736663D01*
X138439137Y-95432572D01*
X138041824Y-95268000D01*
X137611776Y-95268000D01*
X137480438Y-95322402D01*
X136720415Y-94562379D01*
X136693581Y-94522219D01*
X136534477Y-94415908D01*
X136394173Y-94388000D01*
X136394169Y-94388000D01*
X136346800Y-94378578D01*
X136299431Y-94388000D01*
X133358737Y-94388000D01*
X131290103Y-92319367D01*
X131373286Y-92263786D01*
X131457494Y-92137759D01*
X131487064Y-91989100D01*
X131487064Y-91527203D01*
X131573486Y-91563000D01*
X131824514Y-91563000D01*
X132056433Y-91466936D01*
X132233936Y-91289433D01*
X132330000Y-91057514D01*
X132330000Y-91030064D01*
X133166800Y-91030064D01*
X133315459Y-91000494D01*
X133441486Y-90916286D01*
X133525694Y-90790259D01*
X133555264Y-90641600D01*
X133555264Y-90391600D01*
X133530400Y-90266600D01*
X133555264Y-90141600D01*
X133555264Y-89891600D01*
X133534060Y-89785000D01*
X133729514Y-89785000D01*
X133961433Y-89688936D01*
X134138936Y-89511433D01*
X134235000Y-89279514D01*
X134235000Y-89028486D01*
X134138936Y-88796567D01*
X133961433Y-88619064D01*
X133729514Y-88523000D01*
X133578773Y-88523000D01*
X133516435Y-88510600D01*
X133516434Y-88510600D01*
X133466600Y-88500687D01*
X133416766Y-88510600D01*
X133264653Y-88510600D01*
X133315459Y-88500494D01*
X133384893Y-88454100D01*
X133487050Y-88454100D01*
X133593800Y-88347350D01*
X133593800Y-88306664D01*
X133545585Y-88190262D01*
X133555264Y-88141600D01*
X133555264Y-87891600D01*
X133530400Y-87766600D01*
X133555264Y-87641600D01*
X133555264Y-87391600D01*
X133530400Y-87266600D01*
X133555264Y-87141600D01*
X133555264Y-86891600D01*
X133530400Y-86766600D01*
X133555264Y-86641600D01*
X133555264Y-86391600D01*
X133530400Y-86266600D01*
X133555264Y-86141600D01*
X133555264Y-85891600D01*
X133530400Y-85766600D01*
X133555264Y-85641600D01*
X133555264Y-85391600D01*
X133530400Y-85266600D01*
X133555264Y-85141600D01*
X133555264Y-84891600D01*
X133530400Y-84766600D01*
X133555264Y-84641600D01*
X133555264Y-84391600D01*
X133530400Y-84266600D01*
X133555264Y-84141600D01*
X133555264Y-83891600D01*
X133530400Y-83766600D01*
X133555264Y-83641600D01*
X133555264Y-83638200D01*
X133729510Y-83638200D01*
X133961429Y-83542136D01*
X134138932Y-83364633D01*
X134234996Y-83132714D01*
X134234996Y-82881686D01*
X134138932Y-82649767D01*
X134069090Y-82579925D01*
X134230541Y-82646800D01*
X134501459Y-82646800D01*
X134751756Y-82543124D01*
X134943324Y-82351556D01*
X135047000Y-82101259D01*
X135047000Y-81981936D01*
X135084713Y-81925494D01*
X135093441Y-81912432D01*
X135132713Y-81715000D01*
X135122800Y-81665165D01*
X135122800Y-81664453D01*
X135132906Y-81715259D01*
X135179300Y-81784693D01*
X135179300Y-81886850D01*
X135286050Y-81993600D01*
X135326736Y-81993600D01*
X135443138Y-81945385D01*
X135491800Y-81955064D01*
X135741800Y-81955064D01*
X135866800Y-81930200D01*
X135991800Y-81955064D01*
X136241800Y-81955064D01*
X136290462Y-81945385D01*
X136406864Y-81993600D01*
X136447550Y-81993600D01*
X136554300Y-81886850D01*
X136554300Y-81784693D01*
X136600694Y-81715259D01*
X136616800Y-81634288D01*
X136632906Y-81715259D01*
X136679300Y-81784693D01*
X136679300Y-81886850D01*
X136786050Y-81993600D01*
X136826736Y-81993600D01*
X136943138Y-81945385D01*
X136991800Y-81955064D01*
X137241800Y-81955064D01*
X137366800Y-81930200D01*
X137491800Y-81955064D01*
X137741800Y-81955064D01*
X137866800Y-81930200D01*
X137991800Y-81955064D01*
X138241800Y-81955064D01*
X138366800Y-81930200D01*
X138491800Y-81955064D01*
X138741800Y-81955064D01*
X138866800Y-81930200D01*
X138991800Y-81955064D01*
X139241800Y-81955064D01*
X139366800Y-81930200D01*
X139491800Y-81955064D01*
X139741800Y-81955064D01*
X139866800Y-81930200D01*
X139983400Y-81953393D01*
X139983400Y-82142114D01*
X140079464Y-82374033D01*
X140256967Y-82551536D01*
X140488886Y-82647600D01*
X140739914Y-82647600D01*
X140971833Y-82551536D01*
X141149336Y-82374033D01*
X141245400Y-82142114D01*
X141245400Y-81954348D01*
X141366800Y-81930200D01*
X141491800Y-81955064D01*
X141741800Y-81955064D01*
X141866800Y-81930200D01*
X141991800Y-81955064D01*
X142241800Y-81955064D01*
X142390459Y-81925494D01*
X142516486Y-81841286D01*
X142600694Y-81715259D01*
X142630264Y-81566600D01*
X142630264Y-80858372D01*
X142768837Y-80719800D01*
X144047564Y-80719800D01*
X144794600Y-81466837D01*
X144794601Y-82585586D01*
X144715459Y-82532706D01*
X144566800Y-82503136D01*
X143566800Y-82503136D01*
X143529276Y-82510600D01*
X143448573Y-82510600D01*
X143410233Y-82472260D01*
X143178314Y-82376196D01*
X142927286Y-82376196D01*
X142695367Y-82472260D01*
X142517864Y-82649763D01*
X142421800Y-82881682D01*
X142421800Y-83132710D01*
X142517864Y-83364629D01*
X142695367Y-83542132D01*
X142927286Y-83638196D01*
X143139800Y-83638196D01*
X143139800Y-83643602D01*
X143182048Y-83643602D01*
X143139800Y-83685850D01*
X143139800Y-83726536D01*
X143188015Y-83842938D01*
X143178336Y-83891600D01*
X143178336Y-84141600D01*
X143203200Y-84266600D01*
X143178336Y-84391600D01*
X143178336Y-84641600D01*
X143203200Y-84766600D01*
X143178336Y-84891600D01*
X143178336Y-85141600D01*
X143203200Y-85266600D01*
X143178336Y-85391600D01*
X143178336Y-85641600D01*
X143203200Y-85766600D01*
X143178336Y-85891600D01*
X143178336Y-86141600D01*
X143203200Y-86266600D01*
X143178336Y-86391600D01*
X143178336Y-86641600D01*
X143203200Y-86766600D01*
X143178336Y-86891600D01*
X143178336Y-87141600D01*
X143203200Y-87266600D01*
X143178336Y-87391600D01*
X143178336Y-87641600D01*
X143203200Y-87766600D01*
X143178336Y-87891600D01*
X143178336Y-88141600D01*
X143203200Y-88266600D01*
X143178336Y-88391600D01*
X143178336Y-88641600D01*
X143203200Y-88766600D01*
X143178336Y-88891600D01*
X143178336Y-89141600D01*
X143203200Y-89266600D01*
X143178336Y-89391600D01*
X143178336Y-89641600D01*
X143203200Y-89766600D01*
X143178336Y-89891600D01*
X143178336Y-90141600D01*
X143203200Y-90266600D01*
X143178336Y-90391600D01*
X143178336Y-90641600D01*
X143207906Y-90790259D01*
X143292114Y-90916286D01*
X143418141Y-91000494D01*
X143566800Y-91030064D01*
X144566800Y-91030064D01*
X144665409Y-91010450D01*
X144644600Y-91060686D01*
X144644600Y-91311714D01*
X144740664Y-91543633D01*
X144794600Y-91597569D01*
X144794601Y-92173872D01*
X144742904Y-92225569D01*
X144646840Y-92457488D01*
X144646840Y-92708516D01*
X144742904Y-92940435D01*
X144920407Y-93117938D01*
X145152326Y-93214002D01*
X145403354Y-93214002D01*
X145632170Y-93119223D01*
X145860986Y-93214002D01*
X146112014Y-93214002D01*
X146343933Y-93117938D01*
X146471001Y-92990870D01*
X146471001Y-93031126D01*
X146461578Y-93078500D01*
X146498908Y-93266176D01*
X146578384Y-93385120D01*
X146578387Y-93385123D01*
X146605220Y-93425281D01*
X146645377Y-93452114D01*
X146895886Y-93702622D01*
X146922719Y-93742781D01*
X146962877Y-93769614D01*
X146962879Y-93769616D01*
X147077196Y-93846000D01*
X147081823Y-93849092D01*
X147088412Y-93850403D01*
X147117106Y-93994659D01*
X147201314Y-94120686D01*
X147327341Y-94204894D01*
X147476000Y-94234464D01*
X147976000Y-94234464D01*
X148124659Y-94204894D01*
X148250686Y-94120686D01*
X148334894Y-93994659D01*
X148364464Y-93846000D01*
X148364464Y-92946000D01*
X148334894Y-92797341D01*
X148283594Y-92720564D01*
X148415159Y-92694394D01*
X148541186Y-92610186D01*
X148625394Y-92484159D01*
X148654964Y-92335500D01*
X148654964Y-91535500D01*
X148625394Y-91386841D01*
X148541186Y-91260814D01*
X148415159Y-91176606D01*
X148283594Y-91150436D01*
X148334894Y-91073659D01*
X148364464Y-90925000D01*
X148364464Y-90025000D01*
X148587536Y-90025000D01*
X148587536Y-90925000D01*
X148617106Y-91073659D01*
X148701314Y-91199686D01*
X148792307Y-91260485D01*
X148791814Y-91260814D01*
X148707606Y-91386841D01*
X148678036Y-91535500D01*
X148678036Y-92335500D01*
X148707606Y-92484159D01*
X148791814Y-92610186D01*
X148792307Y-92610515D01*
X148701314Y-92671314D01*
X148617106Y-92797341D01*
X148587536Y-92946000D01*
X148587536Y-93846000D01*
X148617106Y-93994659D01*
X148701314Y-94120686D01*
X148827341Y-94204894D01*
X148976000Y-94234464D01*
X149476000Y-94234464D01*
X149624659Y-94204894D01*
X149750686Y-94120686D01*
X149789704Y-94062291D01*
X149795314Y-94070686D01*
X149921341Y-94154894D01*
X150070000Y-94184464D01*
X150870000Y-94184464D01*
X151018659Y-94154894D01*
X151144686Y-94070686D01*
X151228894Y-93944659D01*
X151243000Y-93873743D01*
X151243000Y-93880936D01*
X151308007Y-94037876D01*
X151428124Y-94157993D01*
X151585065Y-94223000D01*
X151836250Y-94223000D01*
X151943000Y-94116250D01*
X151943000Y-93523000D01*
X152197000Y-93523000D01*
X152197000Y-94116250D01*
X152303750Y-94223000D01*
X152554935Y-94223000D01*
X152711876Y-94157993D01*
X152831993Y-94037876D01*
X152897000Y-93880936D01*
X152897000Y-93629750D01*
X152790250Y-93523000D01*
X152197000Y-93523000D01*
X151943000Y-93523000D01*
X151923000Y-93523000D01*
X151923000Y-93269000D01*
X151943000Y-93269000D01*
X151943000Y-93249000D01*
X152197000Y-93249000D01*
X152197000Y-93269000D01*
X152790250Y-93269000D01*
X152897000Y-93162250D01*
X152897000Y-92978186D01*
X154042300Y-92978186D01*
X154042300Y-93229214D01*
X154138364Y-93461133D01*
X154315867Y-93638636D01*
X154547786Y-93734700D01*
X154644665Y-93734700D01*
X154701523Y-93772692D01*
X154841827Y-93800600D01*
X154841831Y-93800600D01*
X154889200Y-93810022D01*
X154936569Y-93800600D01*
X167998048Y-93800600D01*
X168011506Y-93868259D01*
X168095714Y-93994286D01*
X168221741Y-94078494D01*
X168370400Y-94108064D01*
X169170400Y-94108064D01*
X169319059Y-94078494D01*
X169445086Y-93994286D01*
X169529294Y-93868259D01*
X169558864Y-93719600D01*
X169558864Y-92919600D01*
X169581936Y-92919600D01*
X169581936Y-93719600D01*
X169611506Y-93868259D01*
X169695714Y-93994286D01*
X169821741Y-94078494D01*
X169970400Y-94108064D01*
X170770400Y-94108064D01*
X170919059Y-94078494D01*
X171045086Y-93994286D01*
X171129294Y-93868259D01*
X171142752Y-93800600D01*
X172266231Y-93800600D01*
X172313600Y-93810022D01*
X172360969Y-93800600D01*
X172360973Y-93800600D01*
X172501277Y-93772692D01*
X172653169Y-93671200D01*
X172743914Y-93671200D01*
X172975833Y-93575136D01*
X173153336Y-93397633D01*
X173249400Y-93165714D01*
X173249400Y-92914686D01*
X173153336Y-92682767D01*
X173034569Y-92564000D01*
X173799536Y-92564000D01*
X173956476Y-92498993D01*
X174076593Y-92378876D01*
X174141600Y-92221935D01*
X174141600Y-91870750D01*
X174034850Y-91764000D01*
X172441600Y-91764000D01*
X172441600Y-91784000D01*
X172187600Y-91784000D01*
X172187600Y-91764000D01*
X170594350Y-91764000D01*
X170487600Y-91870750D01*
X170487600Y-92221935D01*
X170552607Y-92378876D01*
X170672724Y-92498993D01*
X170750324Y-92531136D01*
X169970400Y-92531136D01*
X169821741Y-92560706D01*
X169695714Y-92644914D01*
X169611506Y-92770941D01*
X169581936Y-92919600D01*
X169558864Y-92919600D01*
X169529294Y-92770941D01*
X169445086Y-92644914D01*
X169319059Y-92560706D01*
X169170400Y-92531136D01*
X168370400Y-92531136D01*
X168221741Y-92560706D01*
X168095714Y-92644914D01*
X168011506Y-92770941D01*
X167998048Y-92838600D01*
X155246482Y-92838600D01*
X155208236Y-92746267D01*
X155030733Y-92568764D01*
X154798814Y-92472700D01*
X154547786Y-92472700D01*
X154315867Y-92568764D01*
X154138364Y-92746267D01*
X154042300Y-92978186D01*
X152897000Y-92978186D01*
X152897000Y-92911064D01*
X152831993Y-92754124D01*
X152763869Y-92686000D01*
X152822493Y-92627376D01*
X152887500Y-92470436D01*
X152887500Y-92169250D01*
X152780750Y-92062500D01*
X152335500Y-92062500D01*
X152335500Y-92082500D01*
X152085500Y-92082500D01*
X152085500Y-92062500D01*
X152069800Y-92062500D01*
X152069800Y-91870750D01*
X160937600Y-91870750D01*
X160937600Y-92221935D01*
X161002607Y-92378876D01*
X161122724Y-92498993D01*
X161279664Y-92564000D01*
X161730850Y-92564000D01*
X161837600Y-92457250D01*
X161837600Y-91764000D01*
X162091600Y-91764000D01*
X162091600Y-92457250D01*
X162198350Y-92564000D01*
X162649536Y-92564000D01*
X162806476Y-92498993D01*
X162926593Y-92378876D01*
X162991600Y-92221935D01*
X162991600Y-91870750D01*
X162884850Y-91764000D01*
X162091600Y-91764000D01*
X161837600Y-91764000D01*
X161044350Y-91764000D01*
X160937600Y-91870750D01*
X152069800Y-91870750D01*
X152069800Y-91808500D01*
X152085500Y-91808500D01*
X152085500Y-91788500D01*
X152335500Y-91788500D01*
X152335500Y-91808500D01*
X152780750Y-91808500D01*
X152887500Y-91701750D01*
X152887500Y-91400564D01*
X152822493Y-91243624D01*
X152763869Y-91185000D01*
X152831993Y-91116876D01*
X152897000Y-90959936D01*
X152897000Y-90708750D01*
X152790250Y-90602000D01*
X152197000Y-90602000D01*
X152197000Y-90622000D01*
X152069800Y-90622000D01*
X152069800Y-90328000D01*
X152197000Y-90328000D01*
X152197000Y-90348000D01*
X152790250Y-90348000D01*
X152897000Y-90241250D01*
X152897000Y-89990064D01*
X152831993Y-89833124D01*
X152763869Y-89765000D01*
X152822493Y-89706376D01*
X152887500Y-89549436D01*
X152887500Y-89248250D01*
X152780750Y-89141500D01*
X152335500Y-89141500D01*
X152335500Y-89161500D01*
X152085500Y-89161500D01*
X152085500Y-89141500D01*
X151640250Y-89141500D01*
X151627750Y-89154000D01*
X151348964Y-89154000D01*
X151348964Y-88564500D01*
X151332070Y-88479564D01*
X151533500Y-88479564D01*
X151533500Y-88780750D01*
X151640250Y-88887500D01*
X152085500Y-88887500D01*
X152085500Y-88244250D01*
X152335500Y-88244250D01*
X152335500Y-88887500D01*
X152780750Y-88887500D01*
X152887500Y-88780750D01*
X152887500Y-88479564D01*
X152822493Y-88322624D01*
X152702376Y-88202507D01*
X152545435Y-88137500D01*
X152442250Y-88137500D01*
X152335500Y-88244250D01*
X152085500Y-88244250D01*
X151978750Y-88137500D01*
X151875565Y-88137500D01*
X151718624Y-88202507D01*
X151598507Y-88322624D01*
X151533500Y-88479564D01*
X151332070Y-88479564D01*
X151319394Y-88415841D01*
X151235186Y-88289814D01*
X151109159Y-88205606D01*
X150960500Y-88176036D01*
X150460500Y-88176036D01*
X150311841Y-88205606D01*
X150185814Y-88289814D01*
X150146796Y-88348209D01*
X150141186Y-88339814D01*
X150015159Y-88255606D01*
X149866500Y-88226036D01*
X149066500Y-88226036D01*
X148917841Y-88255606D01*
X148791814Y-88339814D01*
X148707606Y-88465841D01*
X148678036Y-88614500D01*
X148678036Y-89414500D01*
X148707606Y-89563159D01*
X148791814Y-89689186D01*
X148792307Y-89689515D01*
X148701314Y-89750314D01*
X148617106Y-89876341D01*
X148587536Y-90025000D01*
X148364464Y-90025000D01*
X148334894Y-89876341D01*
X148283594Y-89799564D01*
X148415159Y-89773394D01*
X148541186Y-89689186D01*
X148625394Y-89563159D01*
X148654964Y-89414500D01*
X148654964Y-88614500D01*
X148625394Y-88465841D01*
X148541186Y-88339814D01*
X148415159Y-88255606D01*
X148307231Y-88234138D01*
X148312436Y-88228933D01*
X148408500Y-87997014D01*
X148408500Y-87745986D01*
X148312436Y-87514067D01*
X148295969Y-87497600D01*
X152222364Y-87497600D01*
X154871386Y-90146623D01*
X154898219Y-90186781D01*
X154938377Y-90213614D01*
X154938379Y-90213616D01*
X155048689Y-90287323D01*
X155057323Y-90293092D01*
X155197627Y-90321000D01*
X155197631Y-90321000D01*
X155245000Y-90330422D01*
X155292369Y-90321000D01*
X156679319Y-90321000D01*
X156676136Y-90337000D01*
X156676136Y-91037000D01*
X156705706Y-91185659D01*
X156789914Y-91311686D01*
X156915941Y-91395894D01*
X157064600Y-91425464D01*
X158264600Y-91425464D01*
X158413259Y-91395894D01*
X158539286Y-91311686D01*
X158623494Y-91185659D01*
X158650067Y-91052065D01*
X160937600Y-91052065D01*
X160937600Y-91403250D01*
X161044350Y-91510000D01*
X161837600Y-91510000D01*
X161837600Y-90816750D01*
X162091600Y-90816750D01*
X162091600Y-91510000D01*
X162884850Y-91510000D01*
X162991600Y-91403250D01*
X162991600Y-91137000D01*
X167376136Y-91137000D01*
X167376136Y-92137000D01*
X167405706Y-92285659D01*
X167489914Y-92411686D01*
X167615941Y-92495894D01*
X167764600Y-92525464D01*
X168564600Y-92525464D01*
X168713259Y-92495894D01*
X168839286Y-92411686D01*
X168923494Y-92285659D01*
X168953064Y-92137000D01*
X168953064Y-91137000D01*
X168936170Y-91052065D01*
X170487600Y-91052065D01*
X170487600Y-91403250D01*
X170594350Y-91510000D01*
X172187600Y-91510000D01*
X172187600Y-90816750D01*
X172441600Y-90816750D01*
X172441600Y-91510000D01*
X174034850Y-91510000D01*
X174141600Y-91403250D01*
X174141600Y-91052065D01*
X174076593Y-90895124D01*
X173956476Y-90775007D01*
X173799536Y-90710000D01*
X172548350Y-90710000D01*
X172441600Y-90816750D01*
X172187600Y-90816750D01*
X172080850Y-90710000D01*
X170829664Y-90710000D01*
X170672724Y-90775007D01*
X170552607Y-90895124D01*
X170487600Y-91052065D01*
X168936170Y-91052065D01*
X168923494Y-90988341D01*
X168839286Y-90862314D01*
X168713259Y-90778106D01*
X168564600Y-90748536D01*
X167764600Y-90748536D01*
X167615941Y-90778106D01*
X167489914Y-90862314D01*
X167405706Y-90988341D01*
X167376136Y-91137000D01*
X162991600Y-91137000D01*
X162991600Y-91052065D01*
X162926593Y-90895124D01*
X162806476Y-90775007D01*
X162649536Y-90710000D01*
X162198350Y-90710000D01*
X162091600Y-90816750D01*
X161837600Y-90816750D01*
X161730850Y-90710000D01*
X161279664Y-90710000D01*
X161122724Y-90775007D01*
X161002607Y-90895124D01*
X160937600Y-91052065D01*
X158650067Y-91052065D01*
X158653064Y-91037000D01*
X158653064Y-90673998D01*
X158850114Y-90673998D01*
X159082033Y-90577934D01*
X159259536Y-90400431D01*
X159355600Y-90168512D01*
X159355600Y-89917484D01*
X159259536Y-89685565D01*
X159082033Y-89508062D01*
X158850114Y-89411998D01*
X158653064Y-89411998D01*
X158653064Y-89387000D01*
X158631184Y-89277000D01*
X158850114Y-89277000D01*
X159082033Y-89180936D01*
X159259536Y-89003433D01*
X159355600Y-88771514D01*
X159355600Y-88520486D01*
X159259536Y-88288567D01*
X159082033Y-88111064D01*
X158850114Y-88015000D01*
X158673762Y-88015000D01*
X158691600Y-87971935D01*
X158691600Y-87770750D01*
X158584850Y-87664000D01*
X157791600Y-87664000D01*
X157791600Y-87684000D01*
X157537600Y-87684000D01*
X157537600Y-87664000D01*
X156744350Y-87664000D01*
X156637600Y-87770750D01*
X156637600Y-87971935D01*
X156702607Y-88128876D01*
X156708256Y-88134525D01*
X156705706Y-88138341D01*
X156676136Y-88287000D01*
X156676136Y-88987000D01*
X156705706Y-89135659D01*
X156740011Y-89187000D01*
X156705706Y-89238341D01*
X156681706Y-89359000D01*
X155444237Y-89359000D01*
X153893736Y-87808500D01*
X154275970Y-87808500D01*
X154691660Y-87636316D01*
X155009816Y-87318160D01*
X155182000Y-86902470D01*
X155182000Y-86452530D01*
X155009816Y-86036840D01*
X154691660Y-85718684D01*
X154275970Y-85546500D01*
X153826030Y-85546500D01*
X153410340Y-85718684D01*
X153092184Y-86036840D01*
X153064108Y-86104622D01*
X153002577Y-86063508D01*
X152862273Y-86035600D01*
X152862269Y-86035600D01*
X152814900Y-86026178D01*
X152767531Y-86035600D01*
X151956836Y-86035600D01*
X152976950Y-85015486D01*
X154893500Y-85015486D01*
X154893500Y-85266514D01*
X154989564Y-85498433D01*
X155167067Y-85675936D01*
X155398986Y-85772000D01*
X155475264Y-85772000D01*
X156446884Y-86743620D01*
X156473719Y-86783781D01*
X156632823Y-86890092D01*
X156699271Y-86903309D01*
X156705706Y-86935659D01*
X156708256Y-86939475D01*
X156702607Y-86945124D01*
X156637600Y-87102065D01*
X156637600Y-87303250D01*
X156744350Y-87410000D01*
X157537600Y-87410000D01*
X157537600Y-87390000D01*
X157791600Y-87390000D01*
X157791600Y-87410000D01*
X158584850Y-87410000D01*
X158691600Y-87303250D01*
X158691600Y-87102065D01*
X158626593Y-86945124D01*
X158620944Y-86939475D01*
X158623494Y-86935659D01*
X158653064Y-86787000D01*
X158653064Y-86087000D01*
X158629394Y-85968000D01*
X161314108Y-85968000D01*
X161421541Y-86012500D01*
X161692459Y-86012500D01*
X161942756Y-85908824D01*
X162134324Y-85717256D01*
X162238000Y-85466959D01*
X162238000Y-85196041D01*
X162134324Y-84945744D01*
X161942756Y-84754176D01*
X161692459Y-84650500D01*
X161421541Y-84650500D01*
X161287552Y-84706000D01*
X159420101Y-84706000D01*
X159482600Y-84555113D01*
X159482600Y-84304085D01*
X159386536Y-84072166D01*
X159209033Y-83894663D01*
X159101200Y-83849997D01*
X159101200Y-83628939D01*
X159207433Y-83584936D01*
X159384936Y-83407433D01*
X159481000Y-83175514D01*
X159481000Y-82924486D01*
X159384936Y-82692567D01*
X159207433Y-82515064D01*
X159029400Y-82441320D01*
X159029400Y-82270343D01*
X159209035Y-82195936D01*
X159386538Y-82018433D01*
X159482602Y-81786514D01*
X159482602Y-81535486D01*
X159386538Y-81303567D01*
X159209035Y-81126064D01*
X158977116Y-81030000D01*
X158726088Y-81030000D01*
X158691600Y-81044285D01*
X158691600Y-80720750D01*
X158584850Y-80614000D01*
X157791600Y-80614000D01*
X157791600Y-80634000D01*
X157537600Y-80634000D01*
X157537600Y-80614000D01*
X156744350Y-80614000D01*
X156637600Y-80720750D01*
X156637600Y-81071935D01*
X156702607Y-81228876D01*
X156822724Y-81348993D01*
X156860971Y-81364836D01*
X156789914Y-81412314D01*
X156705706Y-81538341D01*
X156676136Y-81687000D01*
X156676136Y-82387000D01*
X156705706Y-82535659D01*
X156740011Y-82587000D01*
X156705706Y-82638341D01*
X156676136Y-82787000D01*
X156676136Y-83487000D01*
X156705706Y-83635659D01*
X156740011Y-83687000D01*
X156705706Y-83738341D01*
X156676136Y-83887000D01*
X156676136Y-84587000D01*
X156705706Y-84735659D01*
X156740011Y-84787000D01*
X156705706Y-84838341D01*
X156676136Y-84987000D01*
X156676136Y-85612400D01*
X156155500Y-85091764D01*
X156155500Y-85015486D01*
X156059436Y-84783567D01*
X155881933Y-84606064D01*
X155650014Y-84510000D01*
X155398986Y-84510000D01*
X155167067Y-84606064D01*
X154989564Y-84783567D01*
X154893500Y-85015486D01*
X152976950Y-85015486D01*
X153722621Y-84269815D01*
X153762781Y-84242981D01*
X153869092Y-84083877D01*
X153897000Y-83943573D01*
X153897000Y-83943569D01*
X153906422Y-83896201D01*
X153897000Y-83848833D01*
X153897000Y-79902065D01*
X156637600Y-79902065D01*
X156637600Y-80253250D01*
X156744350Y-80360000D01*
X157537600Y-80360000D01*
X157537600Y-79666750D01*
X157791600Y-79666750D01*
X157791600Y-80360000D01*
X158584850Y-80360000D01*
X158691600Y-80253250D01*
X158691600Y-79902065D01*
X158626593Y-79745124D01*
X158506476Y-79625007D01*
X158349536Y-79560000D01*
X157898350Y-79560000D01*
X157791600Y-79666750D01*
X157537600Y-79666750D01*
X157430850Y-79560000D01*
X156979664Y-79560000D01*
X156822724Y-79625007D01*
X156702607Y-79745124D01*
X156637600Y-79902065D01*
X153897000Y-79902065D01*
X153897000Y-79701236D01*
X154123236Y-79475000D01*
X160607631Y-79475000D01*
X160655000Y-79484422D01*
X160702369Y-79475000D01*
X160702373Y-79475000D01*
X160842677Y-79447092D01*
X161001781Y-79340781D01*
X161028616Y-79300620D01*
X161958486Y-78370750D01*
X171387600Y-78370750D01*
X171387600Y-78871935D01*
X171452607Y-79028876D01*
X171572724Y-79148993D01*
X171729664Y-79214000D01*
X172530850Y-79214000D01*
X172637600Y-79107250D01*
X172637600Y-78264000D01*
X172891600Y-78264000D01*
X172891600Y-79107250D01*
X172998350Y-79214000D01*
X173799536Y-79214000D01*
X173956476Y-79148993D01*
X174076593Y-79028876D01*
X174141600Y-78871935D01*
X174141600Y-78370750D01*
X174034850Y-78264000D01*
X172891600Y-78264000D01*
X172637600Y-78264000D01*
X171494350Y-78264000D01*
X171387600Y-78370750D01*
X161958486Y-78370750D01*
X162927171Y-77402065D01*
X171387600Y-77402065D01*
X171387600Y-77903250D01*
X171494350Y-78010000D01*
X172637600Y-78010000D01*
X172637600Y-77166750D01*
X172891600Y-77166750D01*
X172891600Y-78010000D01*
X174034850Y-78010000D01*
X174141600Y-77903250D01*
X174141600Y-77402065D01*
X174076593Y-77245124D01*
X173956476Y-77125007D01*
X173799536Y-77060000D01*
X172998350Y-77060000D01*
X172891600Y-77166750D01*
X172637600Y-77166750D01*
X172530850Y-77060000D01*
X171729664Y-77060000D01*
X171572724Y-77125007D01*
X171452607Y-77245124D01*
X171387600Y-77402065D01*
X162927171Y-77402065D01*
X166244123Y-74085114D01*
X166284281Y-74058281D01*
X166311114Y-74018123D01*
X166311116Y-74018121D01*
X166390592Y-73899177D01*
X166404878Y-73827354D01*
X166418500Y-73758873D01*
X166418500Y-73758870D01*
X166427922Y-73711501D01*
X166418500Y-73664132D01*
X166418500Y-72586329D01*
X166549837Y-72531928D01*
X166853928Y-72227837D01*
X167018500Y-71830524D01*
X167018500Y-71400476D01*
X166853928Y-71003163D01*
X166549837Y-70699072D01*
X166152524Y-70534500D01*
X165722476Y-70534500D01*
X165325163Y-70699072D01*
X165021072Y-71003163D01*
X164937500Y-71204924D01*
X164853928Y-71003163D01*
X164549837Y-70699072D01*
X164152524Y-70534500D01*
X163722476Y-70534500D01*
X163325163Y-70699072D01*
X163021072Y-71003163D01*
X162937500Y-71204924D01*
X162853928Y-71003163D01*
X162549837Y-70699072D01*
X162152524Y-70534500D01*
X161722476Y-70534500D01*
X161325163Y-70699072D01*
X161021072Y-71003163D01*
X160969502Y-71127665D01*
X160936078Y-71046972D01*
X160758849Y-70973756D01*
X160117105Y-71615500D01*
X160758849Y-72257244D01*
X160936078Y-72184028D01*
X160965856Y-72094534D01*
X161021072Y-72227837D01*
X161325163Y-72531928D01*
X161456501Y-72586330D01*
X161456500Y-76369263D01*
X160201764Y-77624000D01*
X153717368Y-77624000D01*
X153669999Y-77614578D01*
X153622630Y-77624000D01*
X153622627Y-77624000D01*
X153482323Y-77651908D01*
X153363379Y-77731384D01*
X153363377Y-77731386D01*
X153323219Y-77758219D01*
X153296386Y-77798377D01*
X152220378Y-78874386D01*
X152180220Y-78901219D01*
X152153387Y-78941377D01*
X152153384Y-78941380D01*
X152073908Y-79060324D01*
X152036578Y-79248000D01*
X152046001Y-79295374D01*
X152046000Y-83430263D01*
X150740684Y-84735580D01*
X146526963Y-84735580D01*
X146617496Y-84517014D01*
X146617496Y-84265986D01*
X146521432Y-84034067D01*
X146343929Y-83856564D01*
X146112010Y-83760500D01*
X146035732Y-83760500D01*
X145985212Y-83709980D01*
X145958377Y-83669819D01*
X145799273Y-83563508D01*
X145664141Y-83536629D01*
X145810536Y-83390234D01*
X145906600Y-83158315D01*
X145906600Y-82907287D01*
X145810536Y-82675368D01*
X145756600Y-82621432D01*
X145756600Y-81314969D01*
X145766022Y-81267600D01*
X145756600Y-81220231D01*
X145756600Y-81220227D01*
X145728692Y-81079923D01*
X145695334Y-81030000D01*
X145649216Y-80960979D01*
X145649214Y-80960977D01*
X145622381Y-80920819D01*
X145582223Y-80893986D01*
X144620416Y-79932180D01*
X144593581Y-79892019D01*
X144434477Y-79785708D01*
X144294173Y-79757800D01*
X144294169Y-79757800D01*
X144246800Y-79748378D01*
X144199431Y-79757800D01*
X142976128Y-79757800D01*
X143052394Y-79643659D01*
X143075798Y-79526000D01*
X144974764Y-79526000D01*
X146407500Y-80958737D01*
X146407501Y-83214126D01*
X146398078Y-83261500D01*
X146435408Y-83449176D01*
X146514884Y-83568120D01*
X146514887Y-83568123D01*
X146541720Y-83608281D01*
X146581878Y-83635114D01*
X146892200Y-83945436D01*
X146892200Y-84021714D01*
X146988264Y-84253633D01*
X147165767Y-84431136D01*
X147397686Y-84527200D01*
X147648714Y-84527200D01*
X147880633Y-84431136D01*
X148058136Y-84253633D01*
X148154200Y-84021714D01*
X148154200Y-83770686D01*
X148058136Y-83538767D01*
X147880633Y-83361264D01*
X147648714Y-83265200D01*
X147572436Y-83265200D01*
X147369500Y-83062264D01*
X147369500Y-80806867D01*
X147378922Y-80759499D01*
X147369500Y-80712131D01*
X147369500Y-80712127D01*
X147341592Y-80571823D01*
X147281350Y-80481665D01*
X147262116Y-80452879D01*
X147262114Y-80452877D01*
X147235281Y-80412719D01*
X147195123Y-80385886D01*
X145547616Y-78738380D01*
X145520781Y-78698219D01*
X145361677Y-78591908D01*
X145221373Y-78564000D01*
X145221369Y-78564000D01*
X145174000Y-78554578D01*
X145126631Y-78564000D01*
X143075798Y-78564000D01*
X143052394Y-78446341D01*
X142968186Y-78320314D01*
X142842159Y-78236106D01*
X142693500Y-78206536D01*
X142193500Y-78206536D01*
X142044841Y-78236106D01*
X141918814Y-78320314D01*
X141834606Y-78446341D01*
X141805036Y-78595000D01*
X141805036Y-79495000D01*
X141834606Y-79643659D01*
X141918814Y-79769686D01*
X142044841Y-79853894D01*
X142063472Y-79857600D01*
X141886539Y-79857600D01*
X141822736Y-79703567D01*
X141645233Y-79526064D01*
X141581071Y-79499487D01*
X141581964Y-79495000D01*
X141581964Y-78595000D01*
X141552394Y-78446341D01*
X141468186Y-78320314D01*
X141342159Y-78236106D01*
X141193500Y-78206536D01*
X140693500Y-78206536D01*
X140544841Y-78236106D01*
X140418814Y-78320314D01*
X140334606Y-78446341D01*
X140305036Y-78595000D01*
X140305036Y-79169728D01*
X140097800Y-79376964D01*
X140097800Y-78578436D01*
X140572637Y-78103600D01*
X145584364Y-78103600D01*
X147804500Y-80323737D01*
X147804501Y-82172628D01*
X147795078Y-82220002D01*
X147832408Y-82407678D01*
X147911884Y-82526622D01*
X147911887Y-82526625D01*
X147938720Y-82566783D01*
X147978878Y-82593616D01*
X148099000Y-82713738D01*
X148099000Y-82790016D01*
X148195064Y-83021935D01*
X148372567Y-83199438D01*
X148604486Y-83295502D01*
X148855514Y-83295502D01*
X149087433Y-83199438D01*
X149264936Y-83021935D01*
X149361000Y-82790016D01*
X149361000Y-82538988D01*
X149264936Y-82307069D01*
X149087433Y-82129566D01*
X148855514Y-82033502D01*
X148779236Y-82033502D01*
X148766500Y-82020766D01*
X148766500Y-80171869D01*
X148775922Y-80124500D01*
X148766500Y-80077131D01*
X148766500Y-80077127D01*
X148738592Y-79936823D01*
X148704111Y-79885219D01*
X148659116Y-79817879D01*
X148659114Y-79817877D01*
X148632281Y-79777719D01*
X148592123Y-79750886D01*
X146411436Y-77570200D01*
X148123831Y-77570200D01*
X148171200Y-77579622D01*
X148218569Y-77570200D01*
X148218573Y-77570200D01*
X148358877Y-77542292D01*
X148517981Y-77435981D01*
X148544816Y-77395820D01*
X148779236Y-77161400D01*
X148855514Y-77161400D01*
X149087433Y-77065336D01*
X149264936Y-76887833D01*
X149361000Y-76655914D01*
X149361000Y-76404886D01*
X149264936Y-76172967D01*
X149087433Y-75995464D01*
X148855514Y-75899400D01*
X148604486Y-75899400D01*
X148372567Y-75995464D01*
X148195064Y-76172967D01*
X148099000Y-76404886D01*
X148099000Y-76481164D01*
X147971964Y-76608200D01*
X140279844Y-76608200D01*
X140271800Y-76606600D01*
X140234925Y-76606600D01*
X140195600Y-76598778D01*
X140156275Y-76606600D01*
X138597800Y-76606600D01*
X138597800Y-75760436D01*
X141716138Y-72642098D01*
X141847476Y-72696500D01*
X142277524Y-72696500D01*
X142674837Y-72531928D01*
X142978928Y-72227837D01*
X143143500Y-71830524D01*
X143143500Y-71400476D01*
X142978928Y-71003163D01*
X142674837Y-70699072D01*
X142277524Y-70534500D01*
X141847476Y-70534500D01*
X141450163Y-70699072D01*
X141146072Y-71003163D01*
X141062500Y-71204924D01*
X140978928Y-71003163D01*
X140674837Y-70699072D01*
X140277524Y-70534500D01*
X139847476Y-70534500D01*
X139450163Y-70699072D01*
X139146072Y-71003163D01*
X139062500Y-71204924D01*
X138978928Y-71003163D01*
X138674837Y-70699072D01*
X138277524Y-70534500D01*
X137847476Y-70534500D01*
X137450163Y-70699072D01*
X137146072Y-71003163D01*
X137094502Y-71127665D01*
X137061078Y-71046972D01*
X136883849Y-70973756D01*
X136242105Y-71615500D01*
X136883849Y-72257244D01*
X137061078Y-72184028D01*
X137090856Y-72094534D01*
X137146072Y-72227837D01*
X137450163Y-72531928D01*
X137581501Y-72586330D01*
X137581500Y-74159500D01*
X137364986Y-74159500D01*
X137133067Y-74255564D01*
X136955564Y-74433067D01*
X136859500Y-74664986D01*
X136859500Y-74741264D01*
X136810178Y-74790586D01*
X136770020Y-74817419D01*
X136743187Y-74857577D01*
X136743184Y-74857580D01*
X136663708Y-74976524D01*
X136626378Y-75164200D01*
X136635801Y-75211574D01*
X136635801Y-76411627D01*
X136625114Y-76407200D01*
X136374086Y-76407200D01*
X136142167Y-76503264D01*
X136105900Y-76539531D01*
X136069633Y-76503264D01*
X135837714Y-76407200D01*
X135586686Y-76407200D01*
X135354767Y-76503264D01*
X135177264Y-76680767D01*
X135081200Y-76912686D01*
X135081200Y-77163714D01*
X135135801Y-77295532D01*
X135135800Y-80413610D01*
X135132906Y-80417941D01*
X135116800Y-80498912D01*
X135100694Y-80417941D01*
X135054300Y-80348507D01*
X135054300Y-80246350D01*
X134947550Y-80139600D01*
X134906864Y-80139600D01*
X134790462Y-80187815D01*
X134741800Y-80178136D01*
X134491800Y-80178136D01*
X134343141Y-80207706D01*
X134217114Y-80291914D01*
X134132906Y-80417941D01*
X134103336Y-80566600D01*
X134103336Y-81337490D01*
X133980244Y-81388476D01*
X133788676Y-81580044D01*
X133685000Y-81830341D01*
X133685000Y-82101259D01*
X133788676Y-82351556D01*
X133872583Y-82435463D01*
X133729510Y-82376200D01*
X133478482Y-82376200D01*
X133246563Y-82472264D01*
X133208227Y-82510600D01*
X133204324Y-82510600D01*
X133166800Y-82503136D01*
X132166800Y-82503136D01*
X132018141Y-82532706D01*
X131892114Y-82616914D01*
X131807906Y-82742941D01*
X131778336Y-82891600D01*
X131778336Y-83141600D01*
X131803200Y-83266600D01*
X131778336Y-83391600D01*
X131778336Y-83510600D01*
X131501068Y-83510600D01*
X131508669Y-83343367D01*
X131508800Y-83337600D01*
X131508800Y-81051600D01*
X132270800Y-81051600D01*
X132319401Y-81041933D01*
X132360603Y-81014403D01*
X132388133Y-80973201D01*
X132397800Y-80924600D01*
X132397800Y-76479600D01*
X132388133Y-76430999D01*
X132360603Y-76389797D01*
X132319401Y-76362267D01*
X132270800Y-76352600D01*
X125920800Y-76352600D01*
X125872199Y-76362267D01*
X125830997Y-76389797D01*
X125803467Y-76430999D01*
X125793800Y-76479600D01*
X125793800Y-80797600D01*
X125803470Y-80846208D01*
X125831003Y-80887408D01*
X125872207Y-80914936D01*
X125920808Y-80924600D01*
X129016498Y-80924403D01*
X129723555Y-81432600D01*
X125920800Y-81432600D01*
X125872199Y-81442267D01*
X125830997Y-81469797D01*
X125803467Y-81510999D01*
X125793800Y-81559600D01*
X125793800Y-88671600D01*
X125803467Y-88720201D01*
X125830997Y-88761403D01*
X125832040Y-88762100D01*
X125813665Y-88762100D01*
X125656724Y-88827107D01*
X125536607Y-88947224D01*
X125471600Y-89104164D01*
X125456000Y-89104164D01*
X125456000Y-75877000D01*
X129250000Y-75877000D01*
X129298601Y-75867333D01*
X129339803Y-75839803D01*
X130839803Y-74339803D01*
X130867333Y-74298601D01*
X130877000Y-74250000D01*
X130877000Y-70915500D01*
X132974036Y-70915500D01*
X132974036Y-72315500D01*
X133003606Y-72464159D01*
X133087814Y-72590186D01*
X133213841Y-72674394D01*
X133362500Y-72703964D01*
X134762500Y-72703964D01*
X134911159Y-72674394D01*
X135037186Y-72590186D01*
X135121394Y-72464159D01*
X135126826Y-72436849D01*
X135420756Y-72436849D01*
X135493972Y-72614078D01*
X135919388Y-72755631D01*
X136366591Y-72723611D01*
X136631028Y-72614078D01*
X136704244Y-72436849D01*
X136062500Y-71795105D01*
X135420756Y-72436849D01*
X135126826Y-72436849D01*
X135150964Y-72315500D01*
X135150964Y-72219986D01*
X135241151Y-72257244D01*
X135882895Y-71615500D01*
X135241151Y-70973756D01*
X135150964Y-71011014D01*
X135150964Y-70915500D01*
X135126827Y-70794151D01*
X135420756Y-70794151D01*
X136062500Y-71435895D01*
X136704244Y-70794151D01*
X136631028Y-70616922D01*
X136205612Y-70475369D01*
X135758409Y-70507389D01*
X135493972Y-70616922D01*
X135420756Y-70794151D01*
X135126827Y-70794151D01*
X135121394Y-70766841D01*
X135037186Y-70640814D01*
X134911159Y-70556606D01*
X134762500Y-70527036D01*
X133362500Y-70527036D01*
X133213841Y-70556606D01*
X133087814Y-70640814D01*
X133003606Y-70766841D01*
X132974036Y-70915500D01*
X130877000Y-70915500D01*
X130877000Y-70456000D01*
X144475500Y-70456000D01*
X144475500Y-75108000D01*
X144475500Y-75108000D01*
G37*
X144475500Y-75108000D02*
X144485167Y-75156601D01*
X144512697Y-75197803D01*
X145147697Y-75832803D01*
X145188899Y-75860333D01*
X145237500Y-75870000D01*
X154762500Y-75870000D01*
X154811101Y-75860333D01*
X154852303Y-75832803D01*
X155487303Y-75197803D01*
X155514833Y-75156601D01*
X155524500Y-75108000D01*
X155524500Y-70915500D01*
X156849036Y-70915500D01*
X156849036Y-72315500D01*
X156878606Y-72464159D01*
X156962814Y-72590186D01*
X157088841Y-72674394D01*
X157237500Y-72703964D01*
X158637500Y-72703964D01*
X158786159Y-72674394D01*
X158912186Y-72590186D01*
X158996394Y-72464159D01*
X159001826Y-72436849D01*
X159295756Y-72436849D01*
X159368972Y-72614078D01*
X159794388Y-72755631D01*
X160241591Y-72723611D01*
X160506028Y-72614078D01*
X160579244Y-72436849D01*
X159937500Y-71795105D01*
X159295756Y-72436849D01*
X159001826Y-72436849D01*
X159025964Y-72315500D01*
X159025964Y-72219986D01*
X159116151Y-72257244D01*
X159757895Y-71615500D01*
X159116151Y-70973756D01*
X159025964Y-71011014D01*
X159025964Y-70915500D01*
X159001827Y-70794151D01*
X159295756Y-70794151D01*
X159937500Y-71435895D01*
X160579244Y-70794151D01*
X160506028Y-70616922D01*
X160080612Y-70475369D01*
X159633409Y-70507389D01*
X159368972Y-70616922D01*
X159295756Y-70794151D01*
X159001827Y-70794151D01*
X158996394Y-70766841D01*
X158912186Y-70640814D01*
X158786159Y-70556606D01*
X158637500Y-70527036D01*
X157237500Y-70527036D01*
X157088841Y-70556606D01*
X156962814Y-70640814D01*
X156878606Y-70766841D01*
X156849036Y-70915500D01*
X155524500Y-70915500D01*
X155524500Y-70456000D01*
X169123000Y-70456000D01*
X169123000Y-74250000D01*
X169132667Y-74298601D01*
X169160197Y-74339803D01*
X170660197Y-75839803D01*
X170701399Y-75867333D01*
X170750000Y-75877000D01*
X174544000Y-75877000D01*
X174544001Y-82455084D01*
X174532398Y-82513418D01*
X174524796Y-82524796D01*
X174513418Y-82532398D01*
X174411039Y-82552762D01*
X174411038Y-82552762D01*
X174219697Y-82590822D01*
X174219695Y-82590822D01*
X174055316Y-82658911D01*
X173893105Y-82767298D01*
X173830024Y-82830380D01*
X173767298Y-82893105D01*
X173658911Y-83055316D01*
X173658911Y-83055317D01*
X173658910Y-83055318D01*
X173652639Y-83070458D01*
X173590822Y-83219695D01*
X173590822Y-83219697D01*
X173552762Y-83411039D01*
X173552762Y-83411043D01*
X173544000Y-83455092D01*
X173544001Y-87044909D01*
X173552762Y-87088953D01*
X173552762Y-87088961D01*
X173590822Y-87280303D01*
X173590822Y-87280305D01*
X173658911Y-87444684D01*
X173767298Y-87606895D01*
X173798984Y-87638580D01*
X173893105Y-87732702D01*
X174055316Y-87841089D01*
X174219695Y-87909178D01*
X174219697Y-87909178D01*
X174411038Y-87947238D01*
X174411039Y-87947238D01*
X174513418Y-87967602D01*
X174524796Y-87975204D01*
X174532398Y-87986582D01*
X174544000Y-88044911D01*
X174544001Y-94123000D01*
X170750000Y-94123000D01*
X170701399Y-94132667D01*
X170660197Y-94160197D01*
X169160197Y-95660197D01*
X169132667Y-95701399D01*
X169123000Y-95750000D01*
X169123000Y-99544000D01*
X163954032Y-99544000D01*
X164280691Y-99520611D01*
X164545128Y-99411078D01*
X164618344Y-99233849D01*
X163976600Y-98592105D01*
X163334856Y-99233849D01*
X163408072Y-99411078D01*
X163807549Y-99544000D01*
X157858032Y-99544000D01*
X158184691Y-99520611D01*
X158449128Y-99411078D01*
X158522344Y-99233849D01*
X157880600Y-98592105D01*
X157238856Y-99233849D01*
X157312072Y-99411078D01*
X157711549Y-99544000D01*
X149541704Y-99544000D01*
X149602076Y-99518993D01*
X149722193Y-99398876D01*
X149787200Y-99241936D01*
X149787200Y-99090750D01*
X149680450Y-98984000D01*
X148712200Y-98984000D01*
X148712200Y-99004000D01*
X148458200Y-99004000D01*
X148458200Y-98984000D01*
X147489950Y-98984000D01*
X147383200Y-99090750D01*
X147383200Y-99241936D01*
X147448207Y-99398876D01*
X147568324Y-99518993D01*
X147628696Y-99544000D01*
X143967560Y-99544000D01*
X144108859Y-99515894D01*
X144234886Y-99431686D01*
X144319094Y-99305659D01*
X144348664Y-99157000D01*
X144348664Y-98557000D01*
X144319094Y-98408341D01*
X144297400Y-98375873D01*
X144297400Y-98068127D01*
X144319094Y-98035659D01*
X144348664Y-97887000D01*
X144348664Y-97287000D01*
X144319094Y-97138341D01*
X144297400Y-97105873D01*
X144297400Y-96889395D01*
X144438886Y-96948000D01*
X144689914Y-96948000D01*
X144921833Y-96851936D01*
X145099336Y-96674433D01*
X145195400Y-96442514D01*
X145195400Y-96191486D01*
X145099336Y-95959567D01*
X144921833Y-95782064D01*
X144689914Y-95686000D01*
X144438886Y-95686000D01*
X144297400Y-95744605D01*
X144297400Y-95528127D01*
X144319094Y-95495659D01*
X144348664Y-95347000D01*
X144348664Y-94921486D01*
X146524200Y-94921486D01*
X146524200Y-95172514D01*
X146620264Y-95404433D01*
X146797767Y-95581936D01*
X147029686Y-95678000D01*
X147280714Y-95678000D01*
X147474236Y-95597841D01*
X147476179Y-95831115D01*
X147451306Y-95868341D01*
X147421736Y-96017000D01*
X147421736Y-96617000D01*
X147451306Y-96765659D01*
X147484380Y-96815158D01*
X147486632Y-97085471D01*
X147451306Y-97138341D01*
X147421736Y-97287000D01*
X147421736Y-97887000D01*
X147451306Y-98035659D01*
X147495097Y-98101197D01*
X147496477Y-98266854D01*
X147448207Y-98315124D01*
X147383200Y-98472064D01*
X147383200Y-98623250D01*
X147489950Y-98730000D01*
X148458200Y-98730000D01*
X148458200Y-98710000D01*
X148712200Y-98710000D01*
X148712200Y-98730000D01*
X149680450Y-98730000D01*
X149787200Y-98623250D01*
X149787200Y-98472064D01*
X149722193Y-98315124D01*
X149658253Y-98251184D01*
X149658613Y-98208000D01*
X150024828Y-98208000D01*
X150037314Y-98226686D01*
X150163341Y-98310894D01*
X150312000Y-98340464D01*
X151212000Y-98340464D01*
X151360659Y-98310894D01*
X151461634Y-98243425D01*
X151677886Y-98333000D01*
X151928914Y-98333000D01*
X152160833Y-98236936D01*
X152338336Y-98059433D01*
X152434400Y-97827514D01*
X152434400Y-97681892D01*
X152843646Y-98091138D01*
X152799600Y-98197476D01*
X152799600Y-98627524D01*
X152964172Y-99024837D01*
X153268263Y-99328928D01*
X153665576Y-99493500D01*
X154095624Y-99493500D01*
X154492937Y-99328928D01*
X154797028Y-99024837D01*
X154880600Y-98823076D01*
X154964172Y-99024837D01*
X155268263Y-99328928D01*
X155665576Y-99493500D01*
X156095624Y-99493500D01*
X156492937Y-99328928D01*
X156797028Y-99024837D01*
X156848598Y-98900335D01*
X156882022Y-98981028D01*
X157059251Y-99054244D01*
X157700995Y-98412500D01*
X158060205Y-98412500D01*
X158701949Y-99054244D01*
X158792136Y-99016986D01*
X158792136Y-99112500D01*
X158821706Y-99261159D01*
X158905914Y-99387186D01*
X159031941Y-99471394D01*
X159180600Y-99500964D01*
X160580600Y-99500964D01*
X160729259Y-99471394D01*
X160855286Y-99387186D01*
X160939494Y-99261159D01*
X160969064Y-99112500D01*
X160969064Y-98269388D01*
X162836469Y-98269388D01*
X162868489Y-98716591D01*
X162978022Y-98981028D01*
X163155251Y-99054244D01*
X163796995Y-98412500D01*
X164156205Y-98412500D01*
X164797949Y-99054244D01*
X164888136Y-99016986D01*
X164888136Y-99112500D01*
X164917706Y-99261159D01*
X165001914Y-99387186D01*
X165127941Y-99471394D01*
X165276600Y-99500964D01*
X166676600Y-99500964D01*
X166825259Y-99471394D01*
X166951286Y-99387186D01*
X167035494Y-99261159D01*
X167065064Y-99112500D01*
X167065064Y-97712500D01*
X167035494Y-97563841D01*
X166951286Y-97437814D01*
X166825259Y-97353606D01*
X166676600Y-97324036D01*
X165276600Y-97324036D01*
X165127941Y-97353606D01*
X165001914Y-97437814D01*
X164917706Y-97563841D01*
X164888136Y-97712500D01*
X164888136Y-97808014D01*
X164797949Y-97770756D01*
X164156205Y-98412500D01*
X163796995Y-98412500D01*
X163155251Y-97770756D01*
X162978022Y-97843972D01*
X162836469Y-98269388D01*
X160969064Y-98269388D01*
X160969064Y-97712500D01*
X160944927Y-97591151D01*
X163334856Y-97591151D01*
X163976600Y-98232895D01*
X164618344Y-97591151D01*
X164545128Y-97413922D01*
X164119712Y-97272369D01*
X163672509Y-97304389D01*
X163408072Y-97413922D01*
X163334856Y-97591151D01*
X160944927Y-97591151D01*
X160939494Y-97563841D01*
X160855286Y-97437814D01*
X160729259Y-97353606D01*
X160580600Y-97324036D01*
X159180600Y-97324036D01*
X159031941Y-97353606D01*
X158905914Y-97437814D01*
X158821706Y-97563841D01*
X158792136Y-97712500D01*
X158792136Y-97808014D01*
X158701949Y-97770756D01*
X158060205Y-98412500D01*
X157700995Y-98412500D01*
X157059251Y-97770756D01*
X156882022Y-97843972D01*
X156852244Y-97933466D01*
X156797028Y-97800163D01*
X156588016Y-97591151D01*
X157238856Y-97591151D01*
X157880600Y-98232895D01*
X158522344Y-97591151D01*
X158449128Y-97413922D01*
X158023712Y-97272369D01*
X157576509Y-97304389D01*
X157312072Y-97413922D01*
X157238856Y-97591151D01*
X156588016Y-97591151D01*
X156492937Y-97496072D01*
X156095624Y-97331500D01*
X155665576Y-97331500D01*
X155268263Y-97496072D01*
X154964172Y-97800163D01*
X154880600Y-98001924D01*
X154797028Y-97800163D01*
X154492937Y-97496072D01*
X154095624Y-97331500D01*
X153665576Y-97331500D01*
X153559238Y-97375546D01*
X152063139Y-95879448D01*
X152034906Y-95837194D01*
X151867531Y-95725359D01*
X151719935Y-95696000D01*
X151719934Y-95696000D01*
X151670100Y-95686087D01*
X151620266Y-95696000D01*
X151499172Y-95696000D01*
X151486686Y-95677314D01*
X151360659Y-95593106D01*
X151212000Y-95563536D01*
X150312000Y-95563536D01*
X150163341Y-95593106D01*
X150037314Y-95677314D01*
X150024828Y-95696000D01*
X149679546Y-95696000D01*
X149680738Y-95553064D01*
X149719094Y-95495659D01*
X149748664Y-95347000D01*
X149748664Y-94747000D01*
X149719094Y-94598341D01*
X149634886Y-94472314D01*
X149508859Y-94388106D01*
X149360200Y-94358536D01*
X147810200Y-94358536D01*
X147661541Y-94388106D01*
X147535514Y-94472314D01*
X147509752Y-94510870D01*
X147280714Y-94416000D01*
X147029686Y-94416000D01*
X146797767Y-94512064D01*
X146620264Y-94689567D01*
X146524200Y-94921486D01*
X144348664Y-94921486D01*
X144348664Y-94747000D01*
X144319094Y-94598341D01*
X144234886Y-94472314D01*
X144108859Y-94388106D01*
X143960200Y-94358536D01*
X142701973Y-94358536D01*
X141737036Y-93393600D01*
X141743802Y-93393600D01*
X141743802Y-93351352D01*
X141786050Y-93393600D01*
X141826736Y-93393600D01*
X141943138Y-93345385D01*
X141991800Y-93355064D01*
X142241800Y-93355064D01*
X142390459Y-93325494D01*
X142516486Y-93241286D01*
X142600694Y-93115259D01*
X142630264Y-92966600D01*
X142630264Y-92293727D01*
X142814355Y-92109636D01*
X142856606Y-92081406D01*
X142939026Y-91958054D01*
X142995124Y-91901956D01*
X143098800Y-91651659D01*
X143098800Y-91380741D01*
X142995124Y-91130444D01*
X142803556Y-90938876D01*
X142553259Y-90835200D01*
X142282341Y-90835200D01*
X142032044Y-90938876D01*
X141840476Y-91130444D01*
X141736800Y-91380741D01*
X141736800Y-91588850D01*
X141679300Y-91646350D01*
X141679300Y-91748507D01*
X141632906Y-91817941D01*
X141616800Y-91898912D01*
X141600694Y-91817941D01*
X141554300Y-91748507D01*
X141554300Y-91646350D01*
X141447550Y-91539600D01*
X141406864Y-91539600D01*
X141290462Y-91587815D01*
X141241800Y-91578136D01*
X140991800Y-91578136D01*
X140866800Y-91603000D01*
X140741800Y-91578136D01*
X140491800Y-91578136D01*
X140366800Y-91603000D01*
X140241800Y-91578136D01*
X139991800Y-91578136D01*
X139866800Y-91603000D01*
X139741800Y-91578136D01*
X139491800Y-91578136D01*
X139366800Y-91603000D01*
X139241800Y-91578136D01*
X138991800Y-91578136D01*
X138866800Y-91603000D01*
X138741800Y-91578136D01*
X138491800Y-91578136D01*
X138366800Y-91603000D01*
X138241800Y-91578136D01*
X137991800Y-91578136D01*
X137866800Y-91603000D01*
X137741800Y-91578136D01*
X137491800Y-91578136D01*
X137366800Y-91603000D01*
X137241800Y-91578136D01*
X136991800Y-91578136D01*
X136866800Y-91603000D01*
X136741800Y-91578136D01*
X136491800Y-91578136D01*
X136368596Y-91602643D01*
X136368596Y-91390686D01*
X136272532Y-91158767D01*
X136095029Y-90981264D01*
X135863110Y-90885200D01*
X135612082Y-90885200D01*
X135380163Y-90981264D01*
X135202660Y-91158767D01*
X135106596Y-91390686D01*
X135106596Y-91539600D01*
X134989798Y-91539600D01*
X134989798Y-91581848D01*
X134947550Y-91539600D01*
X134906864Y-91539600D01*
X134790462Y-91587815D01*
X134741800Y-91578136D01*
X134491800Y-91578136D01*
X134343141Y-91607706D01*
X134217114Y-91691914D01*
X134132906Y-91817941D01*
X134103336Y-91966600D01*
X134103336Y-92966600D01*
X134110801Y-93004127D01*
X134110801Y-93038030D01*
X134085064Y-93063767D01*
X133989000Y-93295686D01*
X133989000Y-93546714D01*
X134085064Y-93778633D01*
X134262567Y-93956136D01*
X134494486Y-94052200D01*
X134745514Y-94052200D01*
X134977433Y-93956136D01*
X135154936Y-93778633D01*
X135251000Y-93546714D01*
X135251000Y-93358550D01*
X135286050Y-93393600D01*
X135326736Y-93393600D01*
X135443138Y-93345385D01*
X135491800Y-93355064D01*
X135741800Y-93355064D01*
X135866800Y-93330200D01*
X135991800Y-93355064D01*
X136241800Y-93355064D01*
X136366800Y-93330200D01*
X136491800Y-93355064D01*
X136741800Y-93355064D01*
X136866800Y-93330200D01*
X136991800Y-93355064D01*
X137241800Y-93355064D01*
X137366800Y-93330200D01*
X137491800Y-93355064D01*
X137741800Y-93355064D01*
X137866800Y-93330200D01*
X137991800Y-93355064D01*
X138241800Y-93355064D01*
X138366800Y-93330200D01*
X138491800Y-93355064D01*
X138741800Y-93355064D01*
X138866800Y-93330200D01*
X138991800Y-93355064D01*
X139241800Y-93355064D01*
X139366800Y-93330200D01*
X139491800Y-93355064D01*
X139635800Y-93355064D01*
X139635801Y-95441622D01*
X139626378Y-95488996D01*
X139663708Y-95676672D01*
X139678604Y-95698965D01*
X139678604Y-95807314D01*
X139774668Y-96039233D01*
X139952171Y-96216736D01*
X140184090Y-96312800D01*
X140435118Y-96312800D01*
X140667037Y-96216736D01*
X140815719Y-96068055D01*
X141212900Y-96465236D01*
X141212901Y-97793326D01*
X141203478Y-97840700D01*
X141240808Y-98028376D01*
X141320284Y-98147320D01*
X141320287Y-98147323D01*
X141347120Y-98187481D01*
X141387278Y-98214314D01*
X142021736Y-98848772D01*
X142021736Y-99157000D01*
X142051306Y-99305659D01*
X142135514Y-99431686D01*
X142261541Y-99515894D01*
X142402840Y-99544000D01*
X130877000Y-99544000D01*
X130877000Y-95750000D01*
X130867333Y-95701399D01*
X130839803Y-95660197D01*
X129339803Y-94160197D01*
X129298601Y-94132667D01*
X129250000Y-94123000D01*
X125456000Y-94123000D01*
X125456000Y-91339100D01*
X125510136Y-91339100D01*
X125510136Y-91989100D01*
X125539706Y-92137759D01*
X125623914Y-92263786D01*
X125749941Y-92347994D01*
X125898600Y-92377564D01*
X126948600Y-92377564D01*
X127097259Y-92347994D01*
X127223286Y-92263786D01*
X127307494Y-92137759D01*
X127337064Y-91989100D01*
X127337064Y-91339100D01*
X127307494Y-91190441D01*
X127223286Y-91064414D01*
X127097259Y-90980206D01*
X126948600Y-90950636D01*
X125898600Y-90950636D01*
X125749941Y-90980206D01*
X125623914Y-91064414D01*
X125539706Y-91190441D01*
X125510136Y-91339100D01*
X125456000Y-91339100D01*
X125456000Y-89747850D01*
X125471600Y-89747850D01*
X125471600Y-89924036D01*
X125536607Y-90080976D01*
X125656724Y-90201093D01*
X125813665Y-90266100D01*
X126189850Y-90266100D01*
X126296600Y-90159350D01*
X126296600Y-89641100D01*
X126550600Y-89641100D01*
X126550600Y-90159350D01*
X126657350Y-90266100D01*
X127033535Y-90266100D01*
X127190476Y-90201093D01*
X127310593Y-90080976D01*
X127375600Y-89924036D01*
X127375600Y-89747850D01*
X129621600Y-89747850D01*
X129621600Y-89924036D01*
X129686607Y-90080976D01*
X129806724Y-90201093D01*
X129963665Y-90266100D01*
X130339850Y-90266100D01*
X130446600Y-90159350D01*
X130446600Y-89641100D01*
X129728350Y-89641100D01*
X129621600Y-89747850D01*
X127375600Y-89747850D01*
X127268850Y-89641100D01*
X126550600Y-89641100D01*
X126296600Y-89641100D01*
X125578350Y-89641100D01*
X125471600Y-89747850D01*
X125456000Y-89747850D01*
X125456000Y-89104164D01*
X125471600Y-89104164D01*
X125471600Y-89280350D01*
X125578350Y-89387100D01*
X126296600Y-89387100D01*
X126296600Y-89367100D01*
X126550600Y-89367100D01*
X126550600Y-89387100D01*
X127268850Y-89387100D01*
X127375600Y-89280350D01*
X127375600Y-89104164D01*
X127310593Y-88947224D01*
X127190476Y-88827107D01*
X127121654Y-88798600D01*
X129875546Y-88798600D01*
X129806724Y-88827107D01*
X129686607Y-88947224D01*
X129621600Y-89104164D01*
X129621600Y-89280350D01*
X129728350Y-89387100D01*
X130446600Y-89387100D01*
X130446600Y-89367100D01*
X130700600Y-89367100D01*
X130700600Y-89387100D01*
X130720600Y-89387100D01*
X130720600Y-89641100D01*
X130700600Y-89641100D01*
X130700600Y-90159350D01*
X130786857Y-90245607D01*
X130266980Y-90765484D01*
X130226819Y-90792319D01*
X130199985Y-90832479D01*
X130199984Y-90832480D01*
X130180050Y-90862314D01*
X130121035Y-90950636D01*
X130048600Y-90950636D01*
X129899941Y-90980206D01*
X129819551Y-91033920D01*
X129767114Y-91012200D01*
X129516086Y-91012200D01*
X129284167Y-91108264D01*
X129106664Y-91285767D01*
X129010600Y-91517686D01*
X129010600Y-91768714D01*
X129106664Y-92000633D01*
X129284167Y-92178136D01*
X129516086Y-92274200D01*
X129767114Y-92274200D01*
X129780933Y-92268476D01*
X129899941Y-92347994D01*
X130048600Y-92377564D01*
X130101968Y-92377564D01*
X130120508Y-92470776D01*
X130199984Y-92589720D01*
X130199987Y-92589723D01*
X130226820Y-92629881D01*
X130266978Y-92656714D01*
X130817450Y-93207187D01*
X130656064Y-93368573D01*
X130560000Y-93600492D01*
X130560000Y-93851520D01*
X130656064Y-94083439D01*
X130833567Y-94260942D01*
X131065486Y-94357006D01*
X131141764Y-94357006D01*
X132796451Y-96011694D01*
X132745800Y-96133976D01*
X132745800Y-96564024D01*
X132910372Y-96961337D01*
X133214463Y-97265428D01*
X133416224Y-97349000D01*
X133214463Y-97432572D01*
X132910372Y-97736663D01*
X132745800Y-98133976D01*
X132745800Y-98564024D01*
X132910372Y-98961337D01*
X133214463Y-99265428D01*
X133611776Y-99430000D01*
X134041824Y-99430000D01*
X134439137Y-99265428D01*
X134743228Y-98961337D01*
X134826800Y-98759576D01*
X134910372Y-98961337D01*
X135214463Y-99265428D01*
X135611776Y-99430000D01*
X136041824Y-99430000D01*
X136439137Y-99265428D01*
X136699800Y-99004765D01*
X136699800Y-99133936D01*
X136764807Y-99290876D01*
X136884924Y-99410993D01*
X137041865Y-99476000D01*
X137593050Y-99476000D01*
X137699800Y-99369250D01*
X137699800Y-98476000D01*
X137953800Y-98476000D01*
X137953800Y-99369250D01*
X138060550Y-99476000D01*
X138611735Y-99476000D01*
X138768676Y-99410993D01*
X138888793Y-99290876D01*
X138953800Y-99133936D01*
X138953800Y-98582750D01*
X138847050Y-98476000D01*
X137953800Y-98476000D01*
X137699800Y-98476000D01*
X137679800Y-98476000D01*
X137679800Y-98222000D01*
X137699800Y-98222000D01*
X137699800Y-98202000D01*
X137953800Y-98202000D01*
X137953800Y-98222000D01*
X138847050Y-98222000D01*
X138953800Y-98115250D01*
X138953800Y-97564064D01*
X138888793Y-97407124D01*
X138768676Y-97287007D01*
X138611735Y-97222000D01*
X138482565Y-97222000D01*
X138743228Y-96961337D01*
X138907800Y-96564024D01*
X138907800Y-96133976D01*
X138743228Y-95736663D01*
X138439137Y-95432572D01*
X138041824Y-95268000D01*
X137611776Y-95268000D01*
X137480438Y-95322402D01*
X136720415Y-94562379D01*
X136693581Y-94522219D01*
X136534477Y-94415908D01*
X136394173Y-94388000D01*
X136394169Y-94388000D01*
X136346800Y-94378578D01*
X136299431Y-94388000D01*
X133358737Y-94388000D01*
X131290103Y-92319367D01*
X131373286Y-92263786D01*
X131457494Y-92137759D01*
X131487064Y-91989100D01*
X131487064Y-91527203D01*
X131573486Y-91563000D01*
X131824514Y-91563000D01*
X132056433Y-91466936D01*
X132233936Y-91289433D01*
X132330000Y-91057514D01*
X132330000Y-91030064D01*
X133166800Y-91030064D01*
X133315459Y-91000494D01*
X133441486Y-90916286D01*
X133525694Y-90790259D01*
X133555264Y-90641600D01*
X133555264Y-90391600D01*
X133530400Y-90266600D01*
X133555264Y-90141600D01*
X133555264Y-89891600D01*
X133534060Y-89785000D01*
X133729514Y-89785000D01*
X133961433Y-89688936D01*
X134138936Y-89511433D01*
X134235000Y-89279514D01*
X134235000Y-89028486D01*
X134138936Y-88796567D01*
X133961433Y-88619064D01*
X133729514Y-88523000D01*
X133578773Y-88523000D01*
X133516435Y-88510600D01*
X133516434Y-88510600D01*
X133466600Y-88500687D01*
X133416766Y-88510600D01*
X133264653Y-88510600D01*
X133315459Y-88500494D01*
X133384893Y-88454100D01*
X133487050Y-88454100D01*
X133593800Y-88347350D01*
X133593800Y-88306664D01*
X133545585Y-88190262D01*
X133555264Y-88141600D01*
X133555264Y-87891600D01*
X133530400Y-87766600D01*
X133555264Y-87641600D01*
X133555264Y-87391600D01*
X133530400Y-87266600D01*
X133555264Y-87141600D01*
X133555264Y-86891600D01*
X133530400Y-86766600D01*
X133555264Y-86641600D01*
X133555264Y-86391600D01*
X133530400Y-86266600D01*
X133555264Y-86141600D01*
X133555264Y-85891600D01*
X133530400Y-85766600D01*
X133555264Y-85641600D01*
X133555264Y-85391600D01*
X133530400Y-85266600D01*
X133555264Y-85141600D01*
X133555264Y-84891600D01*
X133530400Y-84766600D01*
X133555264Y-84641600D01*
X133555264Y-84391600D01*
X133530400Y-84266600D01*
X133555264Y-84141600D01*
X133555264Y-83891600D01*
X133530400Y-83766600D01*
X133555264Y-83641600D01*
X133555264Y-83638200D01*
X133729510Y-83638200D01*
X133961429Y-83542136D01*
X134138932Y-83364633D01*
X134234996Y-83132714D01*
X134234996Y-82881686D01*
X134138932Y-82649767D01*
X134069090Y-82579925D01*
X134230541Y-82646800D01*
X134501459Y-82646800D01*
X134751756Y-82543124D01*
X134943324Y-82351556D01*
X135047000Y-82101259D01*
X135047000Y-81981936D01*
X135084713Y-81925494D01*
X135093441Y-81912432D01*
X135132713Y-81715000D01*
X135122800Y-81665165D01*
X135122800Y-81664453D01*
X135132906Y-81715259D01*
X135179300Y-81784693D01*
X135179300Y-81886850D01*
X135286050Y-81993600D01*
X135326736Y-81993600D01*
X135443138Y-81945385D01*
X135491800Y-81955064D01*
X135741800Y-81955064D01*
X135866800Y-81930200D01*
X135991800Y-81955064D01*
X136241800Y-81955064D01*
X136290462Y-81945385D01*
X136406864Y-81993600D01*
X136447550Y-81993600D01*
X136554300Y-81886850D01*
X136554300Y-81784693D01*
X136600694Y-81715259D01*
X136616800Y-81634288D01*
X136632906Y-81715259D01*
X136679300Y-81784693D01*
X136679300Y-81886850D01*
X136786050Y-81993600D01*
X136826736Y-81993600D01*
X136943138Y-81945385D01*
X136991800Y-81955064D01*
X137241800Y-81955064D01*
X137366800Y-81930200D01*
X137491800Y-81955064D01*
X137741800Y-81955064D01*
X137866800Y-81930200D01*
X137991800Y-81955064D01*
X138241800Y-81955064D01*
X138366800Y-81930200D01*
X138491800Y-81955064D01*
X138741800Y-81955064D01*
X138866800Y-81930200D01*
X138991800Y-81955064D01*
X139241800Y-81955064D01*
X139366800Y-81930200D01*
X139491800Y-81955064D01*
X139741800Y-81955064D01*
X139866800Y-81930200D01*
X139983400Y-81953393D01*
X139983400Y-82142114D01*
X140079464Y-82374033D01*
X140256967Y-82551536D01*
X140488886Y-82647600D01*
X140739914Y-82647600D01*
X140971833Y-82551536D01*
X141149336Y-82374033D01*
X141245400Y-82142114D01*
X141245400Y-81954348D01*
X141366800Y-81930200D01*
X141491800Y-81955064D01*
X141741800Y-81955064D01*
X141866800Y-81930200D01*
X141991800Y-81955064D01*
X142241800Y-81955064D01*
X142390459Y-81925494D01*
X142516486Y-81841286D01*
X142600694Y-81715259D01*
X142630264Y-81566600D01*
X142630264Y-80858372D01*
X142768837Y-80719800D01*
X144047564Y-80719800D01*
X144794600Y-81466837D01*
X144794601Y-82585586D01*
X144715459Y-82532706D01*
X144566800Y-82503136D01*
X143566800Y-82503136D01*
X143529276Y-82510600D01*
X143448573Y-82510600D01*
X143410233Y-82472260D01*
X143178314Y-82376196D01*
X142927286Y-82376196D01*
X142695367Y-82472260D01*
X142517864Y-82649763D01*
X142421800Y-82881682D01*
X142421800Y-83132710D01*
X142517864Y-83364629D01*
X142695367Y-83542132D01*
X142927286Y-83638196D01*
X143139800Y-83638196D01*
X143139800Y-83643602D01*
X143182048Y-83643602D01*
X143139800Y-83685850D01*
X143139800Y-83726536D01*
X143188015Y-83842938D01*
X143178336Y-83891600D01*
X143178336Y-84141600D01*
X143203200Y-84266600D01*
X143178336Y-84391600D01*
X143178336Y-84641600D01*
X143203200Y-84766600D01*
X143178336Y-84891600D01*
X143178336Y-85141600D01*
X143203200Y-85266600D01*
X143178336Y-85391600D01*
X143178336Y-85641600D01*
X143203200Y-85766600D01*
X143178336Y-85891600D01*
X143178336Y-86141600D01*
X143203200Y-86266600D01*
X143178336Y-86391600D01*
X143178336Y-86641600D01*
X143203200Y-86766600D01*
X143178336Y-86891600D01*
X143178336Y-87141600D01*
X143203200Y-87266600D01*
X143178336Y-87391600D01*
X143178336Y-87641600D01*
X143203200Y-87766600D01*
X143178336Y-87891600D01*
X143178336Y-88141600D01*
X143203200Y-88266600D01*
X143178336Y-88391600D01*
X143178336Y-88641600D01*
X143203200Y-88766600D01*
X143178336Y-88891600D01*
X143178336Y-89141600D01*
X143203200Y-89266600D01*
X143178336Y-89391600D01*
X143178336Y-89641600D01*
X143203200Y-89766600D01*
X143178336Y-89891600D01*
X143178336Y-90141600D01*
X143203200Y-90266600D01*
X143178336Y-90391600D01*
X143178336Y-90641600D01*
X143207906Y-90790259D01*
X143292114Y-90916286D01*
X143418141Y-91000494D01*
X143566800Y-91030064D01*
X144566800Y-91030064D01*
X144665409Y-91010450D01*
X144644600Y-91060686D01*
X144644600Y-91311714D01*
X144740664Y-91543633D01*
X144794600Y-91597569D01*
X144794601Y-92173872D01*
X144742904Y-92225569D01*
X144646840Y-92457488D01*
X144646840Y-92708516D01*
X144742904Y-92940435D01*
X144920407Y-93117938D01*
X145152326Y-93214002D01*
X145403354Y-93214002D01*
X145632170Y-93119223D01*
X145860986Y-93214002D01*
X146112014Y-93214002D01*
X146343933Y-93117938D01*
X146471001Y-92990870D01*
X146471001Y-93031126D01*
X146461578Y-93078500D01*
X146498908Y-93266176D01*
X146578384Y-93385120D01*
X146578387Y-93385123D01*
X146605220Y-93425281D01*
X146645377Y-93452114D01*
X146895886Y-93702622D01*
X146922719Y-93742781D01*
X146962877Y-93769614D01*
X146962879Y-93769616D01*
X147077196Y-93846000D01*
X147081823Y-93849092D01*
X147088412Y-93850403D01*
X147117106Y-93994659D01*
X147201314Y-94120686D01*
X147327341Y-94204894D01*
X147476000Y-94234464D01*
X147976000Y-94234464D01*
X148124659Y-94204894D01*
X148250686Y-94120686D01*
X148334894Y-93994659D01*
X148364464Y-93846000D01*
X148364464Y-92946000D01*
X148334894Y-92797341D01*
X148283594Y-92720564D01*
X148415159Y-92694394D01*
X148541186Y-92610186D01*
X148625394Y-92484159D01*
X148654964Y-92335500D01*
X148654964Y-91535500D01*
X148625394Y-91386841D01*
X148541186Y-91260814D01*
X148415159Y-91176606D01*
X148283594Y-91150436D01*
X148334894Y-91073659D01*
X148364464Y-90925000D01*
X148364464Y-90025000D01*
X148587536Y-90025000D01*
X148587536Y-90925000D01*
X148617106Y-91073659D01*
X148701314Y-91199686D01*
X148792307Y-91260485D01*
X148791814Y-91260814D01*
X148707606Y-91386841D01*
X148678036Y-91535500D01*
X148678036Y-92335500D01*
X148707606Y-92484159D01*
X148791814Y-92610186D01*
X148792307Y-92610515D01*
X148701314Y-92671314D01*
X148617106Y-92797341D01*
X148587536Y-92946000D01*
X148587536Y-93846000D01*
X148617106Y-93994659D01*
X148701314Y-94120686D01*
X148827341Y-94204894D01*
X148976000Y-94234464D01*
X149476000Y-94234464D01*
X149624659Y-94204894D01*
X149750686Y-94120686D01*
X149789704Y-94062291D01*
X149795314Y-94070686D01*
X149921341Y-94154894D01*
X150070000Y-94184464D01*
X150870000Y-94184464D01*
X151018659Y-94154894D01*
X151144686Y-94070686D01*
X151228894Y-93944659D01*
X151243000Y-93873743D01*
X151243000Y-93880936D01*
X151308007Y-94037876D01*
X151428124Y-94157993D01*
X151585065Y-94223000D01*
X151836250Y-94223000D01*
X151943000Y-94116250D01*
X151943000Y-93523000D01*
X152197000Y-93523000D01*
X152197000Y-94116250D01*
X152303750Y-94223000D01*
X152554935Y-94223000D01*
X152711876Y-94157993D01*
X152831993Y-94037876D01*
X152897000Y-93880936D01*
X152897000Y-93629750D01*
X152790250Y-93523000D01*
X152197000Y-93523000D01*
X151943000Y-93523000D01*
X151923000Y-93523000D01*
X151923000Y-93269000D01*
X151943000Y-93269000D01*
X151943000Y-93249000D01*
X152197000Y-93249000D01*
X152197000Y-93269000D01*
X152790250Y-93269000D01*
X152897000Y-93162250D01*
X152897000Y-92978186D01*
X154042300Y-92978186D01*
X154042300Y-93229214D01*
X154138364Y-93461133D01*
X154315867Y-93638636D01*
X154547786Y-93734700D01*
X154644665Y-93734700D01*
X154701523Y-93772692D01*
X154841827Y-93800600D01*
X154841831Y-93800600D01*
X154889200Y-93810022D01*
X154936569Y-93800600D01*
X167998048Y-93800600D01*
X168011506Y-93868259D01*
X168095714Y-93994286D01*
X168221741Y-94078494D01*
X168370400Y-94108064D01*
X169170400Y-94108064D01*
X169319059Y-94078494D01*
X169445086Y-93994286D01*
X169529294Y-93868259D01*
X169558864Y-93719600D01*
X169558864Y-92919600D01*
X169581936Y-92919600D01*
X169581936Y-93719600D01*
X169611506Y-93868259D01*
X169695714Y-93994286D01*
X169821741Y-94078494D01*
X169970400Y-94108064D01*
X170770400Y-94108064D01*
X170919059Y-94078494D01*
X171045086Y-93994286D01*
X171129294Y-93868259D01*
X171142752Y-93800600D01*
X172266231Y-93800600D01*
X172313600Y-93810022D01*
X172360969Y-93800600D01*
X172360973Y-93800600D01*
X172501277Y-93772692D01*
X172653169Y-93671200D01*
X172743914Y-93671200D01*
X172975833Y-93575136D01*
X173153336Y-93397633D01*
X173249400Y-93165714D01*
X173249400Y-92914686D01*
X173153336Y-92682767D01*
X173034569Y-92564000D01*
X173799536Y-92564000D01*
X173956476Y-92498993D01*
X174076593Y-92378876D01*
X174141600Y-92221935D01*
X174141600Y-91870750D01*
X174034850Y-91764000D01*
X172441600Y-91764000D01*
X172441600Y-91784000D01*
X172187600Y-91784000D01*
X172187600Y-91764000D01*
X170594350Y-91764000D01*
X170487600Y-91870750D01*
X170487600Y-92221935D01*
X170552607Y-92378876D01*
X170672724Y-92498993D01*
X170750324Y-92531136D01*
X169970400Y-92531136D01*
X169821741Y-92560706D01*
X169695714Y-92644914D01*
X169611506Y-92770941D01*
X169581936Y-92919600D01*
X169558864Y-92919600D01*
X169529294Y-92770941D01*
X169445086Y-92644914D01*
X169319059Y-92560706D01*
X169170400Y-92531136D01*
X168370400Y-92531136D01*
X168221741Y-92560706D01*
X168095714Y-92644914D01*
X168011506Y-92770941D01*
X167998048Y-92838600D01*
X155246482Y-92838600D01*
X155208236Y-92746267D01*
X155030733Y-92568764D01*
X154798814Y-92472700D01*
X154547786Y-92472700D01*
X154315867Y-92568764D01*
X154138364Y-92746267D01*
X154042300Y-92978186D01*
X152897000Y-92978186D01*
X152897000Y-92911064D01*
X152831993Y-92754124D01*
X152763869Y-92686000D01*
X152822493Y-92627376D01*
X152887500Y-92470436D01*
X152887500Y-92169250D01*
X152780750Y-92062500D01*
X152335500Y-92062500D01*
X152335500Y-92082500D01*
X152085500Y-92082500D01*
X152085500Y-92062500D01*
X152069800Y-92062500D01*
X152069800Y-91870750D01*
X160937600Y-91870750D01*
X160937600Y-92221935D01*
X161002607Y-92378876D01*
X161122724Y-92498993D01*
X161279664Y-92564000D01*
X161730850Y-92564000D01*
X161837600Y-92457250D01*
X161837600Y-91764000D01*
X162091600Y-91764000D01*
X162091600Y-92457250D01*
X162198350Y-92564000D01*
X162649536Y-92564000D01*
X162806476Y-92498993D01*
X162926593Y-92378876D01*
X162991600Y-92221935D01*
X162991600Y-91870750D01*
X162884850Y-91764000D01*
X162091600Y-91764000D01*
X161837600Y-91764000D01*
X161044350Y-91764000D01*
X160937600Y-91870750D01*
X152069800Y-91870750D01*
X152069800Y-91808500D01*
X152085500Y-91808500D01*
X152085500Y-91788500D01*
X152335500Y-91788500D01*
X152335500Y-91808500D01*
X152780750Y-91808500D01*
X152887500Y-91701750D01*
X152887500Y-91400564D01*
X152822493Y-91243624D01*
X152763869Y-91185000D01*
X152831993Y-91116876D01*
X152897000Y-90959936D01*
X152897000Y-90708750D01*
X152790250Y-90602000D01*
X152197000Y-90602000D01*
X152197000Y-90622000D01*
X152069800Y-90622000D01*
X152069800Y-90328000D01*
X152197000Y-90328000D01*
X152197000Y-90348000D01*
X152790250Y-90348000D01*
X152897000Y-90241250D01*
X152897000Y-89990064D01*
X152831993Y-89833124D01*
X152763869Y-89765000D01*
X152822493Y-89706376D01*
X152887500Y-89549436D01*
X152887500Y-89248250D01*
X152780750Y-89141500D01*
X152335500Y-89141500D01*
X152335500Y-89161500D01*
X152085500Y-89161500D01*
X152085500Y-89141500D01*
X151640250Y-89141500D01*
X151627750Y-89154000D01*
X151348964Y-89154000D01*
X151348964Y-88564500D01*
X151332070Y-88479564D01*
X151533500Y-88479564D01*
X151533500Y-88780750D01*
X151640250Y-88887500D01*
X152085500Y-88887500D01*
X152085500Y-88244250D01*
X152335500Y-88244250D01*
X152335500Y-88887500D01*
X152780750Y-88887500D01*
X152887500Y-88780750D01*
X152887500Y-88479564D01*
X152822493Y-88322624D01*
X152702376Y-88202507D01*
X152545435Y-88137500D01*
X152442250Y-88137500D01*
X152335500Y-88244250D01*
X152085500Y-88244250D01*
X151978750Y-88137500D01*
X151875565Y-88137500D01*
X151718624Y-88202507D01*
X151598507Y-88322624D01*
X151533500Y-88479564D01*
X151332070Y-88479564D01*
X151319394Y-88415841D01*
X151235186Y-88289814D01*
X151109159Y-88205606D01*
X150960500Y-88176036D01*
X150460500Y-88176036D01*
X150311841Y-88205606D01*
X150185814Y-88289814D01*
X150146796Y-88348209D01*
X150141186Y-88339814D01*
X150015159Y-88255606D01*
X149866500Y-88226036D01*
X149066500Y-88226036D01*
X148917841Y-88255606D01*
X148791814Y-88339814D01*
X148707606Y-88465841D01*
X148678036Y-88614500D01*
X148678036Y-89414500D01*
X148707606Y-89563159D01*
X148791814Y-89689186D01*
X148792307Y-89689515D01*
X148701314Y-89750314D01*
X148617106Y-89876341D01*
X148587536Y-90025000D01*
X148364464Y-90025000D01*
X148334894Y-89876341D01*
X148283594Y-89799564D01*
X148415159Y-89773394D01*
X148541186Y-89689186D01*
X148625394Y-89563159D01*
X148654964Y-89414500D01*
X148654964Y-88614500D01*
X148625394Y-88465841D01*
X148541186Y-88339814D01*
X148415159Y-88255606D01*
X148307231Y-88234138D01*
X148312436Y-88228933D01*
X148408500Y-87997014D01*
X148408500Y-87745986D01*
X148312436Y-87514067D01*
X148295969Y-87497600D01*
X152222364Y-87497600D01*
X154871386Y-90146623D01*
X154898219Y-90186781D01*
X154938377Y-90213614D01*
X154938379Y-90213616D01*
X155048689Y-90287323D01*
X155057323Y-90293092D01*
X155197627Y-90321000D01*
X155197631Y-90321000D01*
X155245000Y-90330422D01*
X155292369Y-90321000D01*
X156679319Y-90321000D01*
X156676136Y-90337000D01*
X156676136Y-91037000D01*
X156705706Y-91185659D01*
X156789914Y-91311686D01*
X156915941Y-91395894D01*
X157064600Y-91425464D01*
X158264600Y-91425464D01*
X158413259Y-91395894D01*
X158539286Y-91311686D01*
X158623494Y-91185659D01*
X158650067Y-91052065D01*
X160937600Y-91052065D01*
X160937600Y-91403250D01*
X161044350Y-91510000D01*
X161837600Y-91510000D01*
X161837600Y-90816750D01*
X162091600Y-90816750D01*
X162091600Y-91510000D01*
X162884850Y-91510000D01*
X162991600Y-91403250D01*
X162991600Y-91137000D01*
X167376136Y-91137000D01*
X167376136Y-92137000D01*
X167405706Y-92285659D01*
X167489914Y-92411686D01*
X167615941Y-92495894D01*
X167764600Y-92525464D01*
X168564600Y-92525464D01*
X168713259Y-92495894D01*
X168839286Y-92411686D01*
X168923494Y-92285659D01*
X168953064Y-92137000D01*
X168953064Y-91137000D01*
X168936170Y-91052065D01*
X170487600Y-91052065D01*
X170487600Y-91403250D01*
X170594350Y-91510000D01*
X172187600Y-91510000D01*
X172187600Y-90816750D01*
X172441600Y-90816750D01*
X172441600Y-91510000D01*
X174034850Y-91510000D01*
X174141600Y-91403250D01*
X174141600Y-91052065D01*
X174076593Y-90895124D01*
X173956476Y-90775007D01*
X173799536Y-90710000D01*
X172548350Y-90710000D01*
X172441600Y-90816750D01*
X172187600Y-90816750D01*
X172080850Y-90710000D01*
X170829664Y-90710000D01*
X170672724Y-90775007D01*
X170552607Y-90895124D01*
X170487600Y-91052065D01*
X168936170Y-91052065D01*
X168923494Y-90988341D01*
X168839286Y-90862314D01*
X168713259Y-90778106D01*
X168564600Y-90748536D01*
X167764600Y-90748536D01*
X167615941Y-90778106D01*
X167489914Y-90862314D01*
X167405706Y-90988341D01*
X167376136Y-91137000D01*
X162991600Y-91137000D01*
X162991600Y-91052065D01*
X162926593Y-90895124D01*
X162806476Y-90775007D01*
X162649536Y-90710000D01*
X162198350Y-90710000D01*
X162091600Y-90816750D01*
X161837600Y-90816750D01*
X161730850Y-90710000D01*
X161279664Y-90710000D01*
X161122724Y-90775007D01*
X161002607Y-90895124D01*
X160937600Y-91052065D01*
X158650067Y-91052065D01*
X158653064Y-91037000D01*
X158653064Y-90673998D01*
X158850114Y-90673998D01*
X159082033Y-90577934D01*
X159259536Y-90400431D01*
X159355600Y-90168512D01*
X159355600Y-89917484D01*
X159259536Y-89685565D01*
X159082033Y-89508062D01*
X158850114Y-89411998D01*
X158653064Y-89411998D01*
X158653064Y-89387000D01*
X158631184Y-89277000D01*
X158850114Y-89277000D01*
X159082033Y-89180936D01*
X159259536Y-89003433D01*
X159355600Y-88771514D01*
X159355600Y-88520486D01*
X159259536Y-88288567D01*
X159082033Y-88111064D01*
X158850114Y-88015000D01*
X158673762Y-88015000D01*
X158691600Y-87971935D01*
X158691600Y-87770750D01*
X158584850Y-87664000D01*
X157791600Y-87664000D01*
X157791600Y-87684000D01*
X157537600Y-87684000D01*
X157537600Y-87664000D01*
X156744350Y-87664000D01*
X156637600Y-87770750D01*
X156637600Y-87971935D01*
X156702607Y-88128876D01*
X156708256Y-88134525D01*
X156705706Y-88138341D01*
X156676136Y-88287000D01*
X156676136Y-88987000D01*
X156705706Y-89135659D01*
X156740011Y-89187000D01*
X156705706Y-89238341D01*
X156681706Y-89359000D01*
X155444237Y-89359000D01*
X153893736Y-87808500D01*
X154275970Y-87808500D01*
X154691660Y-87636316D01*
X155009816Y-87318160D01*
X155182000Y-86902470D01*
X155182000Y-86452530D01*
X155009816Y-86036840D01*
X154691660Y-85718684D01*
X154275970Y-85546500D01*
X153826030Y-85546500D01*
X153410340Y-85718684D01*
X153092184Y-86036840D01*
X153064108Y-86104622D01*
X153002577Y-86063508D01*
X152862273Y-86035600D01*
X152862269Y-86035600D01*
X152814900Y-86026178D01*
X152767531Y-86035600D01*
X151956836Y-86035600D01*
X152976950Y-85015486D01*
X154893500Y-85015486D01*
X154893500Y-85266514D01*
X154989564Y-85498433D01*
X155167067Y-85675936D01*
X155398986Y-85772000D01*
X155475264Y-85772000D01*
X156446884Y-86743620D01*
X156473719Y-86783781D01*
X156632823Y-86890092D01*
X156699271Y-86903309D01*
X156705706Y-86935659D01*
X156708256Y-86939475D01*
X156702607Y-86945124D01*
X156637600Y-87102065D01*
X156637600Y-87303250D01*
X156744350Y-87410000D01*
X157537600Y-87410000D01*
X157537600Y-87390000D01*
X157791600Y-87390000D01*
X157791600Y-87410000D01*
X158584850Y-87410000D01*
X158691600Y-87303250D01*
X158691600Y-87102065D01*
X158626593Y-86945124D01*
X158620944Y-86939475D01*
X158623494Y-86935659D01*
X158653064Y-86787000D01*
X158653064Y-86087000D01*
X158629394Y-85968000D01*
X161314108Y-85968000D01*
X161421541Y-86012500D01*
X161692459Y-86012500D01*
X161942756Y-85908824D01*
X162134324Y-85717256D01*
X162238000Y-85466959D01*
X162238000Y-85196041D01*
X162134324Y-84945744D01*
X161942756Y-84754176D01*
X161692459Y-84650500D01*
X161421541Y-84650500D01*
X161287552Y-84706000D01*
X159420101Y-84706000D01*
X159482600Y-84555113D01*
X159482600Y-84304085D01*
X159386536Y-84072166D01*
X159209033Y-83894663D01*
X159101200Y-83849997D01*
X159101200Y-83628939D01*
X159207433Y-83584936D01*
X159384936Y-83407433D01*
X159481000Y-83175514D01*
X159481000Y-82924486D01*
X159384936Y-82692567D01*
X159207433Y-82515064D01*
X159029400Y-82441320D01*
X159029400Y-82270343D01*
X159209035Y-82195936D01*
X159386538Y-82018433D01*
X159482602Y-81786514D01*
X159482602Y-81535486D01*
X159386538Y-81303567D01*
X159209035Y-81126064D01*
X158977116Y-81030000D01*
X158726088Y-81030000D01*
X158691600Y-81044285D01*
X158691600Y-80720750D01*
X158584850Y-80614000D01*
X157791600Y-80614000D01*
X157791600Y-80634000D01*
X157537600Y-80634000D01*
X157537600Y-80614000D01*
X156744350Y-80614000D01*
X156637600Y-80720750D01*
X156637600Y-81071935D01*
X156702607Y-81228876D01*
X156822724Y-81348993D01*
X156860971Y-81364836D01*
X156789914Y-81412314D01*
X156705706Y-81538341D01*
X156676136Y-81687000D01*
X156676136Y-82387000D01*
X156705706Y-82535659D01*
X156740011Y-82587000D01*
X156705706Y-82638341D01*
X156676136Y-82787000D01*
X156676136Y-83487000D01*
X156705706Y-83635659D01*
X156740011Y-83687000D01*
X156705706Y-83738341D01*
X156676136Y-83887000D01*
X156676136Y-84587000D01*
X156705706Y-84735659D01*
X156740011Y-84787000D01*
X156705706Y-84838341D01*
X156676136Y-84987000D01*
X156676136Y-85612400D01*
X156155500Y-85091764D01*
X156155500Y-85015486D01*
X156059436Y-84783567D01*
X155881933Y-84606064D01*
X155650014Y-84510000D01*
X155398986Y-84510000D01*
X155167067Y-84606064D01*
X154989564Y-84783567D01*
X154893500Y-85015486D01*
X152976950Y-85015486D01*
X153722621Y-84269815D01*
X153762781Y-84242981D01*
X153869092Y-84083877D01*
X153897000Y-83943573D01*
X153897000Y-83943569D01*
X153906422Y-83896201D01*
X153897000Y-83848833D01*
X153897000Y-79902065D01*
X156637600Y-79902065D01*
X156637600Y-80253250D01*
X156744350Y-80360000D01*
X157537600Y-80360000D01*
X157537600Y-79666750D01*
X157791600Y-79666750D01*
X157791600Y-80360000D01*
X158584850Y-80360000D01*
X158691600Y-80253250D01*
X158691600Y-79902065D01*
X158626593Y-79745124D01*
X158506476Y-79625007D01*
X158349536Y-79560000D01*
X157898350Y-79560000D01*
X157791600Y-79666750D01*
X157537600Y-79666750D01*
X157430850Y-79560000D01*
X156979664Y-79560000D01*
X156822724Y-79625007D01*
X156702607Y-79745124D01*
X156637600Y-79902065D01*
X153897000Y-79902065D01*
X153897000Y-79701236D01*
X154123236Y-79475000D01*
X160607631Y-79475000D01*
X160655000Y-79484422D01*
X160702369Y-79475000D01*
X160702373Y-79475000D01*
X160842677Y-79447092D01*
X161001781Y-79340781D01*
X161028616Y-79300620D01*
X161958486Y-78370750D01*
X171387600Y-78370750D01*
X171387600Y-78871935D01*
X171452607Y-79028876D01*
X171572724Y-79148993D01*
X171729664Y-79214000D01*
X172530850Y-79214000D01*
X172637600Y-79107250D01*
X172637600Y-78264000D01*
X172891600Y-78264000D01*
X172891600Y-79107250D01*
X172998350Y-79214000D01*
X173799536Y-79214000D01*
X173956476Y-79148993D01*
X174076593Y-79028876D01*
X174141600Y-78871935D01*
X174141600Y-78370750D01*
X174034850Y-78264000D01*
X172891600Y-78264000D01*
X172637600Y-78264000D01*
X171494350Y-78264000D01*
X171387600Y-78370750D01*
X161958486Y-78370750D01*
X162927171Y-77402065D01*
X171387600Y-77402065D01*
X171387600Y-77903250D01*
X171494350Y-78010000D01*
X172637600Y-78010000D01*
X172637600Y-77166750D01*
X172891600Y-77166750D01*
X172891600Y-78010000D01*
X174034850Y-78010000D01*
X174141600Y-77903250D01*
X174141600Y-77402065D01*
X174076593Y-77245124D01*
X173956476Y-77125007D01*
X173799536Y-77060000D01*
X172998350Y-77060000D01*
X172891600Y-77166750D01*
X172637600Y-77166750D01*
X172530850Y-77060000D01*
X171729664Y-77060000D01*
X171572724Y-77125007D01*
X171452607Y-77245124D01*
X171387600Y-77402065D01*
X162927171Y-77402065D01*
X166244123Y-74085114D01*
X166284281Y-74058281D01*
X166311114Y-74018123D01*
X166311116Y-74018121D01*
X166390592Y-73899177D01*
X166404878Y-73827354D01*
X166418500Y-73758873D01*
X166418500Y-73758870D01*
X166427922Y-73711501D01*
X166418500Y-73664132D01*
X166418500Y-72586329D01*
X166549837Y-72531928D01*
X166853928Y-72227837D01*
X167018500Y-71830524D01*
X167018500Y-71400476D01*
X166853928Y-71003163D01*
X166549837Y-70699072D01*
X166152524Y-70534500D01*
X165722476Y-70534500D01*
X165325163Y-70699072D01*
X165021072Y-71003163D01*
X164937500Y-71204924D01*
X164853928Y-71003163D01*
X164549837Y-70699072D01*
X164152524Y-70534500D01*
X163722476Y-70534500D01*
X163325163Y-70699072D01*
X163021072Y-71003163D01*
X162937500Y-71204924D01*
X162853928Y-71003163D01*
X162549837Y-70699072D01*
X162152524Y-70534500D01*
X161722476Y-70534500D01*
X161325163Y-70699072D01*
X161021072Y-71003163D01*
X160969502Y-71127665D01*
X160936078Y-71046972D01*
X160758849Y-70973756D01*
X160117105Y-71615500D01*
X160758849Y-72257244D01*
X160936078Y-72184028D01*
X160965856Y-72094534D01*
X161021072Y-72227837D01*
X161325163Y-72531928D01*
X161456501Y-72586330D01*
X161456500Y-76369263D01*
X160201764Y-77624000D01*
X153717368Y-77624000D01*
X153669999Y-77614578D01*
X153622630Y-77624000D01*
X153622627Y-77624000D01*
X153482323Y-77651908D01*
X153363379Y-77731384D01*
X153363377Y-77731386D01*
X153323219Y-77758219D01*
X153296386Y-77798377D01*
X152220378Y-78874386D01*
X152180220Y-78901219D01*
X152153387Y-78941377D01*
X152153384Y-78941380D01*
X152073908Y-79060324D01*
X152036578Y-79248000D01*
X152046001Y-79295374D01*
X152046000Y-83430263D01*
X150740684Y-84735580D01*
X146526963Y-84735580D01*
X146617496Y-84517014D01*
X146617496Y-84265986D01*
X146521432Y-84034067D01*
X146343929Y-83856564D01*
X146112010Y-83760500D01*
X146035732Y-83760500D01*
X145985212Y-83709980D01*
X145958377Y-83669819D01*
X145799273Y-83563508D01*
X145664141Y-83536629D01*
X145810536Y-83390234D01*
X145906600Y-83158315D01*
X145906600Y-82907287D01*
X145810536Y-82675368D01*
X145756600Y-82621432D01*
X145756600Y-81314969D01*
X145766022Y-81267600D01*
X145756600Y-81220231D01*
X145756600Y-81220227D01*
X145728692Y-81079923D01*
X145695334Y-81030000D01*
X145649216Y-80960979D01*
X145649214Y-80960977D01*
X145622381Y-80920819D01*
X145582223Y-80893986D01*
X144620416Y-79932180D01*
X144593581Y-79892019D01*
X144434477Y-79785708D01*
X144294173Y-79757800D01*
X144294169Y-79757800D01*
X144246800Y-79748378D01*
X144199431Y-79757800D01*
X142976128Y-79757800D01*
X143052394Y-79643659D01*
X143075798Y-79526000D01*
X144974764Y-79526000D01*
X146407500Y-80958737D01*
X146407501Y-83214126D01*
X146398078Y-83261500D01*
X146435408Y-83449176D01*
X146514884Y-83568120D01*
X146514887Y-83568123D01*
X146541720Y-83608281D01*
X146581878Y-83635114D01*
X146892200Y-83945436D01*
X146892200Y-84021714D01*
X146988264Y-84253633D01*
X147165767Y-84431136D01*
X147397686Y-84527200D01*
X147648714Y-84527200D01*
X147880633Y-84431136D01*
X148058136Y-84253633D01*
X148154200Y-84021714D01*
X148154200Y-83770686D01*
X148058136Y-83538767D01*
X147880633Y-83361264D01*
X147648714Y-83265200D01*
X147572436Y-83265200D01*
X147369500Y-83062264D01*
X147369500Y-80806867D01*
X147378922Y-80759499D01*
X147369500Y-80712131D01*
X147369500Y-80712127D01*
X147341592Y-80571823D01*
X147281350Y-80481665D01*
X147262116Y-80452879D01*
X147262114Y-80452877D01*
X147235281Y-80412719D01*
X147195123Y-80385886D01*
X145547616Y-78738380D01*
X145520781Y-78698219D01*
X145361677Y-78591908D01*
X145221373Y-78564000D01*
X145221369Y-78564000D01*
X145174000Y-78554578D01*
X145126631Y-78564000D01*
X143075798Y-78564000D01*
X143052394Y-78446341D01*
X142968186Y-78320314D01*
X142842159Y-78236106D01*
X142693500Y-78206536D01*
X142193500Y-78206536D01*
X142044841Y-78236106D01*
X141918814Y-78320314D01*
X141834606Y-78446341D01*
X141805036Y-78595000D01*
X141805036Y-79495000D01*
X141834606Y-79643659D01*
X141918814Y-79769686D01*
X142044841Y-79853894D01*
X142063472Y-79857600D01*
X141886539Y-79857600D01*
X141822736Y-79703567D01*
X141645233Y-79526064D01*
X141581071Y-79499487D01*
X141581964Y-79495000D01*
X141581964Y-78595000D01*
X141552394Y-78446341D01*
X141468186Y-78320314D01*
X141342159Y-78236106D01*
X141193500Y-78206536D01*
X140693500Y-78206536D01*
X140544841Y-78236106D01*
X140418814Y-78320314D01*
X140334606Y-78446341D01*
X140305036Y-78595000D01*
X140305036Y-79169728D01*
X140097800Y-79376964D01*
X140097800Y-78578436D01*
X140572637Y-78103600D01*
X145584364Y-78103600D01*
X147804500Y-80323737D01*
X147804501Y-82172628D01*
X147795078Y-82220002D01*
X147832408Y-82407678D01*
X147911884Y-82526622D01*
X147911887Y-82526625D01*
X147938720Y-82566783D01*
X147978878Y-82593616D01*
X148099000Y-82713738D01*
X148099000Y-82790016D01*
X148195064Y-83021935D01*
X148372567Y-83199438D01*
X148604486Y-83295502D01*
X148855514Y-83295502D01*
X149087433Y-83199438D01*
X149264936Y-83021935D01*
X149361000Y-82790016D01*
X149361000Y-82538988D01*
X149264936Y-82307069D01*
X149087433Y-82129566D01*
X148855514Y-82033502D01*
X148779236Y-82033502D01*
X148766500Y-82020766D01*
X148766500Y-80171869D01*
X148775922Y-80124500D01*
X148766500Y-80077131D01*
X148766500Y-80077127D01*
X148738592Y-79936823D01*
X148704111Y-79885219D01*
X148659116Y-79817879D01*
X148659114Y-79817877D01*
X148632281Y-79777719D01*
X148592123Y-79750886D01*
X146411436Y-77570200D01*
X148123831Y-77570200D01*
X148171200Y-77579622D01*
X148218569Y-77570200D01*
X148218573Y-77570200D01*
X148358877Y-77542292D01*
X148517981Y-77435981D01*
X148544816Y-77395820D01*
X148779236Y-77161400D01*
X148855514Y-77161400D01*
X149087433Y-77065336D01*
X149264936Y-76887833D01*
X149361000Y-76655914D01*
X149361000Y-76404886D01*
X149264936Y-76172967D01*
X149087433Y-75995464D01*
X148855514Y-75899400D01*
X148604486Y-75899400D01*
X148372567Y-75995464D01*
X148195064Y-76172967D01*
X148099000Y-76404886D01*
X148099000Y-76481164D01*
X147971964Y-76608200D01*
X140279844Y-76608200D01*
X140271800Y-76606600D01*
X140234925Y-76606600D01*
X140195600Y-76598778D01*
X140156275Y-76606600D01*
X138597800Y-76606600D01*
X138597800Y-75760436D01*
X141716138Y-72642098D01*
X141847476Y-72696500D01*
X142277524Y-72696500D01*
X142674837Y-72531928D01*
X142978928Y-72227837D01*
X143143500Y-71830524D01*
X143143500Y-71400476D01*
X142978928Y-71003163D01*
X142674837Y-70699072D01*
X142277524Y-70534500D01*
X141847476Y-70534500D01*
X141450163Y-70699072D01*
X141146072Y-71003163D01*
X141062500Y-71204924D01*
X140978928Y-71003163D01*
X140674837Y-70699072D01*
X140277524Y-70534500D01*
X139847476Y-70534500D01*
X139450163Y-70699072D01*
X139146072Y-71003163D01*
X139062500Y-71204924D01*
X138978928Y-71003163D01*
X138674837Y-70699072D01*
X138277524Y-70534500D01*
X137847476Y-70534500D01*
X137450163Y-70699072D01*
X137146072Y-71003163D01*
X137094502Y-71127665D01*
X137061078Y-71046972D01*
X136883849Y-70973756D01*
X136242105Y-71615500D01*
X136883849Y-72257244D01*
X137061078Y-72184028D01*
X137090856Y-72094534D01*
X137146072Y-72227837D01*
X137450163Y-72531928D01*
X137581501Y-72586330D01*
X137581500Y-74159500D01*
X137364986Y-74159500D01*
X137133067Y-74255564D01*
X136955564Y-74433067D01*
X136859500Y-74664986D01*
X136859500Y-74741264D01*
X136810178Y-74790586D01*
X136770020Y-74817419D01*
X136743187Y-74857577D01*
X136743184Y-74857580D01*
X136663708Y-74976524D01*
X136626378Y-75164200D01*
X136635801Y-75211574D01*
X136635801Y-76411627D01*
X136625114Y-76407200D01*
X136374086Y-76407200D01*
X136142167Y-76503264D01*
X136105900Y-76539531D01*
X136069633Y-76503264D01*
X135837714Y-76407200D01*
X135586686Y-76407200D01*
X135354767Y-76503264D01*
X135177264Y-76680767D01*
X135081200Y-76912686D01*
X135081200Y-77163714D01*
X135135801Y-77295532D01*
X135135800Y-80413610D01*
X135132906Y-80417941D01*
X135116800Y-80498912D01*
X135100694Y-80417941D01*
X135054300Y-80348507D01*
X135054300Y-80246350D01*
X134947550Y-80139600D01*
X134906864Y-80139600D01*
X134790462Y-80187815D01*
X134741800Y-80178136D01*
X134491800Y-80178136D01*
X134343141Y-80207706D01*
X134217114Y-80291914D01*
X134132906Y-80417941D01*
X134103336Y-80566600D01*
X134103336Y-81337490D01*
X133980244Y-81388476D01*
X133788676Y-81580044D01*
X133685000Y-81830341D01*
X133685000Y-82101259D01*
X133788676Y-82351556D01*
X133872583Y-82435463D01*
X133729510Y-82376200D01*
X133478482Y-82376200D01*
X133246563Y-82472264D01*
X133208227Y-82510600D01*
X133204324Y-82510600D01*
X133166800Y-82503136D01*
X132166800Y-82503136D01*
X132018141Y-82532706D01*
X131892114Y-82616914D01*
X131807906Y-82742941D01*
X131778336Y-82891600D01*
X131778336Y-83141600D01*
X131803200Y-83266600D01*
X131778336Y-83391600D01*
X131778336Y-83510600D01*
X131501068Y-83510600D01*
X131508669Y-83343367D01*
X131508800Y-83337600D01*
X131508800Y-81051600D01*
X132270800Y-81051600D01*
X132319401Y-81041933D01*
X132360603Y-81014403D01*
X132388133Y-80973201D01*
X132397800Y-80924600D01*
X132397800Y-76479600D01*
X132388133Y-76430999D01*
X132360603Y-76389797D01*
X132319401Y-76362267D01*
X132270800Y-76352600D01*
X125920800Y-76352600D01*
X125872199Y-76362267D01*
X125830997Y-76389797D01*
X125803467Y-76430999D01*
X125793800Y-76479600D01*
X125793800Y-80797600D01*
X125803470Y-80846208D01*
X125831003Y-80887408D01*
X125872207Y-80914936D01*
X125920808Y-80924600D01*
X129016498Y-80924403D01*
X129723555Y-81432600D01*
X125920800Y-81432600D01*
X125872199Y-81442267D01*
X125830997Y-81469797D01*
X125803467Y-81510999D01*
X125793800Y-81559600D01*
X125793800Y-88671600D01*
X125803467Y-88720201D01*
X125830997Y-88761403D01*
X125832040Y-88762100D01*
X125813665Y-88762100D01*
X125656724Y-88827107D01*
X125536607Y-88947224D01*
X125471600Y-89104164D01*
X125456000Y-89104164D01*
X125456000Y-75877000D01*
X129250000Y-75877000D01*
X129298601Y-75867333D01*
X129339803Y-75839803D01*
X130839803Y-74339803D01*
X130867333Y-74298601D01*
X130877000Y-74250000D01*
X130877000Y-70915500D01*
X132974036Y-70915500D01*
X132974036Y-72315500D01*
X133003606Y-72464159D01*
X133087814Y-72590186D01*
X133213841Y-72674394D01*
X133362500Y-72703964D01*
X134762500Y-72703964D01*
X134911159Y-72674394D01*
X135037186Y-72590186D01*
X135121394Y-72464159D01*
X135126826Y-72436849D01*
X135420756Y-72436849D01*
X135493972Y-72614078D01*
X135919388Y-72755631D01*
X136366591Y-72723611D01*
X136631028Y-72614078D01*
X136704244Y-72436849D01*
X136062500Y-71795105D01*
X135420756Y-72436849D01*
X135126826Y-72436849D01*
X135150964Y-72315500D01*
X135150964Y-72219986D01*
X135241151Y-72257244D01*
X135882895Y-71615500D01*
X135241151Y-70973756D01*
X135150964Y-71011014D01*
X135150964Y-70915500D01*
X135126827Y-70794151D01*
X135420756Y-70794151D01*
X136062500Y-71435895D01*
X136704244Y-70794151D01*
X136631028Y-70616922D01*
X136205612Y-70475369D01*
X135758409Y-70507389D01*
X135493972Y-70616922D01*
X135420756Y-70794151D01*
X135126827Y-70794151D01*
X135121394Y-70766841D01*
X135037186Y-70640814D01*
X134911159Y-70556606D01*
X134762500Y-70527036D01*
X133362500Y-70527036D01*
X133213841Y-70556606D01*
X133087814Y-70640814D01*
X133003606Y-70766841D01*
X132974036Y-70915500D01*
X130877000Y-70915500D01*
X130877000Y-70456000D01*
X144475500Y-70456000D01*
X144475500Y-75108000D01*
G36*
X131285403Y-88804295D02*
X131266186Y-88796335D01*
X131285403Y-88792513D01*
X131285403Y-88804295D01*
X131285403Y-88804295D01*
G37*
X131285403Y-88804295D02*
X131266186Y-88796335D01*
X131285403Y-88792513D01*
X131285403Y-88804295D01*
G04 #@! TD*
M02*
