G04 #@! TF.GenerationSoftware,KiCad,Pcbnew,(5.0.0)*
G04 #@! TF.CreationDate,2018-08-10T16:39:42+09:00*
G04 #@! TF.ProjectId,Altimeter,416C74696D657465722E6B696361645F,rev?*
G04 #@! TF.SameCoordinates,Original*
G04 #@! TF.FileFunction,Legend,Bot*
G04 #@! TF.FilePolarity,Positive*
%FSLAX46Y46*%
G04 Gerber Fmt 4.6, Leading zero omitted, Abs format (unit mm)*
G04 Created by KiCad (PCBNEW (5.0.0)) date 08/10/18 16:39:42*
%MOMM*%
%LPD*%
G01*
G04 APERTURE LIST*
%ADD10C,0.150000*%
%ADD11C,0.120000*%
%ADD12C,0.010000*%
G04 APERTURE END LIST*
D10*
X167938671Y-76704028D02*
X167986290Y-76846885D01*
X168033909Y-76894504D01*
X168129147Y-76942123D01*
X168272004Y-76942123D01*
X168367242Y-76894504D01*
X168414861Y-76846885D01*
X168462480Y-76751647D01*
X168462480Y-76370695D01*
X167462480Y-76370695D01*
X167462480Y-76704028D01*
X167510100Y-76799266D01*
X167557719Y-76846885D01*
X167652957Y-76894504D01*
X167748195Y-76894504D01*
X167843433Y-76846885D01*
X167891052Y-76799266D01*
X167938671Y-76704028D01*
X167938671Y-76370695D01*
X168462480Y-77799266D02*
X167938671Y-77799266D01*
X167843433Y-77751647D01*
X167795814Y-77656409D01*
X167795814Y-77465933D01*
X167843433Y-77370695D01*
X168414861Y-77799266D02*
X168462480Y-77704028D01*
X168462480Y-77465933D01*
X168414861Y-77370695D01*
X168319623Y-77323076D01*
X168224385Y-77323076D01*
X168129147Y-77370695D01*
X168081528Y-77465933D01*
X168081528Y-77704028D01*
X168033909Y-77799266D01*
X168462480Y-78275457D02*
X167795814Y-78275457D01*
X167986290Y-78275457D02*
X167891052Y-78323076D01*
X167843433Y-78370695D01*
X167795814Y-78465933D01*
X167795814Y-78561171D01*
X168462480Y-79037361D02*
X168414861Y-78942123D01*
X168367242Y-78894504D01*
X168272004Y-78846885D01*
X167986290Y-78846885D01*
X167891052Y-78894504D01*
X167843433Y-78942123D01*
X167795814Y-79037361D01*
X167795814Y-79180219D01*
X167843433Y-79275457D01*
X167891052Y-79323076D01*
X167986290Y-79370695D01*
X168272004Y-79370695D01*
X168367242Y-79323076D01*
X168414861Y-79275457D01*
X168462480Y-79180219D01*
X168462480Y-79037361D01*
X167414861Y-80513552D02*
X168700576Y-79656409D01*
X167510100Y-81370695D02*
X167462480Y-81275457D01*
X167462480Y-81132600D01*
X167510100Y-80989742D01*
X167605338Y-80894504D01*
X167700576Y-80846885D01*
X167891052Y-80799266D01*
X168033909Y-80799266D01*
X168224385Y-80846885D01*
X168319623Y-80894504D01*
X168414861Y-80989742D01*
X168462480Y-81132600D01*
X168462480Y-81227838D01*
X168414861Y-81370695D01*
X168367242Y-81418314D01*
X168033909Y-81418314D01*
X168033909Y-81227838D01*
X168462480Y-81846885D02*
X167462480Y-81846885D01*
X168462480Y-82418314D01*
X167462480Y-82418314D01*
X168414861Y-82846885D02*
X168462480Y-82989742D01*
X168462480Y-83227838D01*
X168414861Y-83323076D01*
X168367242Y-83370695D01*
X168272004Y-83418314D01*
X168176766Y-83418314D01*
X168081528Y-83370695D01*
X168033909Y-83323076D01*
X167986290Y-83227838D01*
X167938671Y-83037361D01*
X167891052Y-82942123D01*
X167843433Y-82894504D01*
X167748195Y-82846885D01*
X167652957Y-82846885D01*
X167557719Y-82894504D01*
X167510100Y-82942123D01*
X167462480Y-83037361D01*
X167462480Y-83275457D01*
X167510100Y-83418314D01*
X168414861Y-83799266D02*
X168462480Y-83942123D01*
X168462480Y-84180219D01*
X168414861Y-84275457D01*
X168367242Y-84323076D01*
X168272004Y-84370695D01*
X168176766Y-84370695D01*
X168081528Y-84323076D01*
X168033909Y-84275457D01*
X167986290Y-84180219D01*
X167938671Y-83989742D01*
X167891052Y-83894504D01*
X167843433Y-83846885D01*
X167748195Y-83799266D01*
X167652957Y-83799266D01*
X167557719Y-83846885D01*
X167510100Y-83894504D01*
X167462480Y-83989742D01*
X167462480Y-84227838D01*
X167510100Y-84370695D01*
X169826766Y-76323076D02*
X169826766Y-76799266D01*
X170112480Y-76227838D02*
X169112480Y-76561171D01*
X170112480Y-76894504D01*
X170112480Y-77370695D02*
X170064861Y-77275457D01*
X169969623Y-77227838D01*
X169112480Y-77227838D01*
X169445814Y-77608790D02*
X169445814Y-77989742D01*
X169112480Y-77751647D02*
X169969623Y-77751647D01*
X170064861Y-77799266D01*
X170112480Y-77894504D01*
X170112480Y-77989742D01*
X170112480Y-78323076D02*
X169445814Y-78323076D01*
X169112480Y-78323076D02*
X169160100Y-78275457D01*
X169207719Y-78323076D01*
X169160100Y-78370695D01*
X169112480Y-78323076D01*
X169207719Y-78323076D01*
X170112480Y-78799266D02*
X169445814Y-78799266D01*
X169541052Y-78799266D02*
X169493433Y-78846885D01*
X169445814Y-78942123D01*
X169445814Y-79084980D01*
X169493433Y-79180219D01*
X169588671Y-79227838D01*
X170112480Y-79227838D01*
X169588671Y-79227838D02*
X169493433Y-79275457D01*
X169445814Y-79370695D01*
X169445814Y-79513552D01*
X169493433Y-79608790D01*
X169588671Y-79656409D01*
X170112480Y-79656409D01*
X170064861Y-80513552D02*
X170112480Y-80418314D01*
X170112480Y-80227838D01*
X170064861Y-80132600D01*
X169969623Y-80084980D01*
X169588671Y-80084980D01*
X169493433Y-80132600D01*
X169445814Y-80227838D01*
X169445814Y-80418314D01*
X169493433Y-80513552D01*
X169588671Y-80561171D01*
X169683909Y-80561171D01*
X169779147Y-80084980D01*
X169445814Y-80846885D02*
X169445814Y-81227838D01*
X169112480Y-80989742D02*
X169969623Y-80989742D01*
X170064861Y-81037361D01*
X170112480Y-81132600D01*
X170112480Y-81227838D01*
X170064861Y-81942123D02*
X170112480Y-81846885D01*
X170112480Y-81656409D01*
X170064861Y-81561171D01*
X169969623Y-81513552D01*
X169588671Y-81513552D01*
X169493433Y-81561171D01*
X169445814Y-81656409D01*
X169445814Y-81846885D01*
X169493433Y-81942123D01*
X169588671Y-81989742D01*
X169683909Y-81989742D01*
X169779147Y-81513552D01*
X170112480Y-82418314D02*
X169445814Y-82418314D01*
X169636290Y-82418314D02*
X169541052Y-82465933D01*
X169493433Y-82513552D01*
X169445814Y-82608790D01*
X169445814Y-82704028D01*
X169112480Y-83656409D02*
X170112480Y-83989742D01*
X169112480Y-84323076D01*
X170112480Y-85180219D02*
X170112480Y-84608790D01*
X170112480Y-84894504D02*
X169112480Y-84894504D01*
X169255338Y-84799266D01*
X169350576Y-84704028D01*
X169398195Y-84608790D01*
X171286290Y-76989742D02*
X171238671Y-76942123D01*
X171191052Y-76846885D01*
X171191052Y-76751647D01*
X171238671Y-76656409D01*
X171286290Y-76608790D01*
X171381528Y-76561171D01*
X171476766Y-76561171D01*
X171572004Y-76608790D01*
X171619623Y-76656409D01*
X171667242Y-76751647D01*
X171667242Y-76846885D01*
X171619623Y-76942123D01*
X171572004Y-76989742D01*
X171191052Y-76989742D02*
X171572004Y-76989742D01*
X171619623Y-77037361D01*
X171619623Y-77084980D01*
X171572004Y-77180219D01*
X171476766Y-77227838D01*
X171238671Y-77227838D01*
X171095814Y-77132600D01*
X171000576Y-76989742D01*
X170952957Y-76799266D01*
X171000576Y-76608790D01*
X171095814Y-76465933D01*
X171238671Y-76370695D01*
X171429147Y-76323076D01*
X171619623Y-76370695D01*
X171762480Y-76465933D01*
X171857719Y-76608790D01*
X171905338Y-76799266D01*
X171857719Y-76989742D01*
X171762480Y-77132600D01*
X171714861Y-78084980D02*
X171762480Y-77989742D01*
X171762480Y-77799266D01*
X171714861Y-77704028D01*
X171667242Y-77656409D01*
X171572004Y-77608790D01*
X171286290Y-77608790D01*
X171191052Y-77656409D01*
X171143433Y-77704028D01*
X171095814Y-77799266D01*
X171095814Y-77989742D01*
X171143433Y-78084980D01*
X171762480Y-78513552D02*
X170762480Y-78513552D01*
X171762480Y-78942123D02*
X171238671Y-78942123D01*
X171143433Y-78894504D01*
X171095814Y-78799266D01*
X171095814Y-78656409D01*
X171143433Y-78561171D01*
X171191052Y-78513552D01*
X171762480Y-79418314D02*
X171095814Y-79418314D01*
X171286290Y-79418314D02*
X171191052Y-79465933D01*
X171143433Y-79513552D01*
X171095814Y-79608790D01*
X171095814Y-79704028D01*
X171762480Y-80180219D02*
X171714861Y-80084980D01*
X171667242Y-80037361D01*
X171572004Y-79989742D01*
X171286290Y-79989742D01*
X171191052Y-80037361D01*
X171143433Y-80084980D01*
X171095814Y-80180219D01*
X171095814Y-80323076D01*
X171143433Y-80418314D01*
X171191052Y-80465933D01*
X171286290Y-80513552D01*
X171572004Y-80513552D01*
X171667242Y-80465933D01*
X171714861Y-80418314D01*
X171762480Y-80323076D01*
X171762480Y-80180219D01*
X171762480Y-80942123D02*
X171095814Y-80942123D01*
X171191052Y-80942123D02*
X171143433Y-80989742D01*
X171095814Y-81084980D01*
X171095814Y-81227838D01*
X171143433Y-81323076D01*
X171238671Y-81370695D01*
X171762480Y-81370695D01*
X171238671Y-81370695D02*
X171143433Y-81418314D01*
X171095814Y-81513552D01*
X171095814Y-81656409D01*
X171143433Y-81751647D01*
X171238671Y-81799266D01*
X171762480Y-81799266D01*
X171762480Y-82275457D02*
X171095814Y-82275457D01*
X170762480Y-82275457D02*
X170810100Y-82227838D01*
X170857719Y-82275457D01*
X170810100Y-82323076D01*
X170762480Y-82275457D01*
X170857719Y-82275457D01*
X171095814Y-83180219D02*
X171762480Y-83180219D01*
X171095814Y-82751647D02*
X171619623Y-82751647D01*
X171714861Y-82799266D01*
X171762480Y-82894504D01*
X171762480Y-83037361D01*
X171714861Y-83132600D01*
X171667242Y-83180219D01*
X171762480Y-83656409D02*
X171095814Y-83656409D01*
X171191052Y-83656409D02*
X171143433Y-83704028D01*
X171095814Y-83799266D01*
X171095814Y-83942123D01*
X171143433Y-84037361D01*
X171238671Y-84084980D01*
X171762480Y-84084980D01*
X171238671Y-84084980D02*
X171143433Y-84132600D01*
X171095814Y-84227838D01*
X171095814Y-84370695D01*
X171143433Y-84465933D01*
X171238671Y-84513552D01*
X171762480Y-84513552D01*
X171857719Y-84751647D02*
X171857719Y-85513552D01*
X171762480Y-85751647D02*
X170762480Y-85751647D01*
X171381528Y-85846885D02*
X171762480Y-86132600D01*
X171095814Y-86132600D02*
X171476766Y-85751647D01*
X172507719Y-76323076D02*
X172460100Y-76370695D01*
X172412480Y-76465933D01*
X172412480Y-76704028D01*
X172460100Y-76799266D01*
X172507719Y-76846885D01*
X172602957Y-76894504D01*
X172698195Y-76894504D01*
X172841052Y-76846885D01*
X173412480Y-76275457D01*
X173412480Y-76894504D01*
X172412480Y-77513552D02*
X172412480Y-77608790D01*
X172460100Y-77704028D01*
X172507719Y-77751647D01*
X172602957Y-77799266D01*
X172793433Y-77846885D01*
X173031528Y-77846885D01*
X173222004Y-77799266D01*
X173317242Y-77751647D01*
X173364861Y-77704028D01*
X173412480Y-77608790D01*
X173412480Y-77513552D01*
X173364861Y-77418314D01*
X173317242Y-77370695D01*
X173222004Y-77323076D01*
X173031528Y-77275457D01*
X172793433Y-77275457D01*
X172602957Y-77323076D01*
X172507719Y-77370695D01*
X172460100Y-77418314D01*
X172412480Y-77513552D01*
X173412480Y-78799266D02*
X173412480Y-78227838D01*
X173412480Y-78513552D02*
X172412480Y-78513552D01*
X172555338Y-78418314D01*
X172650576Y-78323076D01*
X172698195Y-78227838D01*
X172841052Y-79370695D02*
X172793433Y-79275457D01*
X172745814Y-79227838D01*
X172650576Y-79180219D01*
X172602957Y-79180219D01*
X172507719Y-79227838D01*
X172460100Y-79275457D01*
X172412480Y-79370695D01*
X172412480Y-79561171D01*
X172460100Y-79656409D01*
X172507719Y-79704028D01*
X172602957Y-79751647D01*
X172650576Y-79751647D01*
X172745814Y-79704028D01*
X172793433Y-79656409D01*
X172841052Y-79561171D01*
X172841052Y-79370695D01*
X172888671Y-79275457D01*
X172936290Y-79227838D01*
X173031528Y-79180219D01*
X173222004Y-79180219D01*
X173317242Y-79227838D01*
X173364861Y-79275457D01*
X173412480Y-79370695D01*
X173412480Y-79561171D01*
X173364861Y-79656409D01*
X173317242Y-79704028D01*
X173222004Y-79751647D01*
X173031528Y-79751647D01*
X172936290Y-79704028D01*
X172888671Y-79656409D01*
X172841052Y-79561171D01*
X173317242Y-80180219D02*
X173364861Y-80227838D01*
X173412480Y-80180219D01*
X173364861Y-80132600D01*
X173317242Y-80180219D01*
X173412480Y-80180219D01*
X172412480Y-80846885D02*
X172412480Y-80942123D01*
X172460100Y-81037361D01*
X172507719Y-81084980D01*
X172602957Y-81132600D01*
X172793433Y-81180219D01*
X173031528Y-81180219D01*
X173222004Y-81132600D01*
X173317242Y-81084980D01*
X173364861Y-81037361D01*
X173412480Y-80942123D01*
X173412480Y-80846885D01*
X173364861Y-80751647D01*
X173317242Y-80704028D01*
X173222004Y-80656409D01*
X173031528Y-80608790D01*
X172793433Y-80608790D01*
X172602957Y-80656409D01*
X172507719Y-80704028D01*
X172460100Y-80751647D01*
X172412480Y-80846885D01*
X172841052Y-81751647D02*
X172793433Y-81656409D01*
X172745814Y-81608790D01*
X172650576Y-81561171D01*
X172602957Y-81561171D01*
X172507719Y-81608790D01*
X172460100Y-81656409D01*
X172412480Y-81751647D01*
X172412480Y-81942123D01*
X172460100Y-82037361D01*
X172507719Y-82084980D01*
X172602957Y-82132600D01*
X172650576Y-82132600D01*
X172745814Y-82084980D01*
X172793433Y-82037361D01*
X172841052Y-81942123D01*
X172841052Y-81751647D01*
X172888671Y-81656409D01*
X172936290Y-81608790D01*
X173031528Y-81561171D01*
X173222004Y-81561171D01*
X173317242Y-81608790D01*
X173364861Y-81656409D01*
X173412480Y-81751647D01*
X173412480Y-81942123D01*
X173364861Y-82037361D01*
X173317242Y-82084980D01*
X173222004Y-82132600D01*
X173031528Y-82132600D01*
X172936290Y-82084980D01*
X172888671Y-82037361D01*
X172841052Y-81942123D01*
X173317242Y-82561171D02*
X173364861Y-82608790D01*
X173412480Y-82561171D01*
X173364861Y-82513552D01*
X173317242Y-82561171D01*
X173412480Y-82561171D01*
X173412480Y-83561171D02*
X173412480Y-82989742D01*
X173412480Y-83275457D02*
X172412480Y-83275457D01*
X172555338Y-83180219D01*
X172650576Y-83084980D01*
X172698195Y-82989742D01*
X172412480Y-84180219D02*
X172412480Y-84275457D01*
X172460100Y-84370695D01*
X172507719Y-84418314D01*
X172602957Y-84465933D01*
X172793433Y-84513552D01*
X173031528Y-84513552D01*
X173222004Y-84465933D01*
X173317242Y-84418314D01*
X173364861Y-84370695D01*
X173412480Y-84275457D01*
X173412480Y-84180219D01*
X173364861Y-84084980D01*
X173317242Y-84037361D01*
X173222004Y-83989742D01*
X173031528Y-83942123D01*
X172793433Y-83942123D01*
X172602957Y-83989742D01*
X172507719Y-84037361D01*
X172460100Y-84084980D01*
X172412480Y-84180219D01*
X166700200Y-93713300D02*
X166700200Y-94157800D01*
X157175500Y-93713500D02*
X166700500Y-93713500D01*
X157175500Y-94158000D02*
X157175500Y-93713500D01*
X166706261Y-93186404D02*
X166706261Y-92386404D01*
X166325309Y-92653071D02*
X166325309Y-93186404D01*
X166325309Y-92729261D02*
X166287214Y-92691166D01*
X166211023Y-92653071D01*
X166096738Y-92653071D01*
X166020547Y-92691166D01*
X165982452Y-92767357D01*
X165982452Y-93186404D01*
X165601500Y-92653071D02*
X165601500Y-93453071D01*
X165601500Y-92691166D02*
X165525309Y-92653071D01*
X165372928Y-92653071D01*
X165296738Y-92691166D01*
X165258642Y-92729261D01*
X165220547Y-92805452D01*
X165220547Y-93034023D01*
X165258642Y-93110214D01*
X165296738Y-93148309D01*
X165372928Y-93186404D01*
X165525309Y-93186404D01*
X165601500Y-93148309D01*
X164534833Y-92653071D02*
X164534833Y-93186404D01*
X164877690Y-92653071D02*
X164877690Y-93072119D01*
X164839595Y-93148309D01*
X164763404Y-93186404D01*
X164649119Y-93186404D01*
X164572928Y-93148309D01*
X164534833Y-93110214D01*
X164268166Y-92653071D02*
X163963404Y-92653071D01*
X164153880Y-92386404D02*
X164153880Y-93072119D01*
X164115785Y-93148309D01*
X164039595Y-93186404D01*
X163963404Y-93186404D01*
X163125309Y-92462595D02*
X163087214Y-92424500D01*
X163011023Y-92386404D01*
X162820547Y-92386404D01*
X162744357Y-92424500D01*
X162706261Y-92462595D01*
X162668166Y-92538785D01*
X162668166Y-92614976D01*
X162706261Y-92729261D01*
X163163404Y-93186404D01*
X162668166Y-93186404D01*
X162325309Y-93110214D02*
X162287214Y-93148309D01*
X162325309Y-93186404D01*
X162363404Y-93148309D01*
X162325309Y-93110214D01*
X162325309Y-93186404D01*
X162020547Y-92386404D02*
X161487214Y-92386404D01*
X161830071Y-93186404D01*
X161296738Y-92386404D02*
X161030071Y-93186404D01*
X160763404Y-92386404D01*
X160496738Y-92881642D02*
X159887214Y-92881642D01*
X159163404Y-92386404D02*
X159315785Y-92386404D01*
X159391976Y-92424500D01*
X159430071Y-92462595D01*
X159506261Y-92576880D01*
X159544357Y-92729261D01*
X159544357Y-93034023D01*
X159506261Y-93110214D01*
X159468166Y-93148309D01*
X159391976Y-93186404D01*
X159239595Y-93186404D01*
X159163404Y-93148309D01*
X159125309Y-93110214D01*
X159087214Y-93034023D01*
X159087214Y-92843547D01*
X159125309Y-92767357D01*
X159163404Y-92729261D01*
X159239595Y-92691166D01*
X159391976Y-92691166D01*
X159468166Y-92729261D01*
X159506261Y-92767357D01*
X159544357Y-92843547D01*
X158744357Y-93110214D02*
X158706261Y-93148309D01*
X158744357Y-93186404D01*
X158782452Y-93148309D01*
X158744357Y-93110214D01*
X158744357Y-93186404D01*
X157982452Y-92386404D02*
X158363404Y-92386404D01*
X158401500Y-92767357D01*
X158363404Y-92729261D01*
X158287214Y-92691166D01*
X158096738Y-92691166D01*
X158020547Y-92729261D01*
X157982452Y-92767357D01*
X157944357Y-92843547D01*
X157944357Y-93034023D01*
X157982452Y-93110214D01*
X158020547Y-93148309D01*
X158096738Y-93186404D01*
X158287214Y-93186404D01*
X158363404Y-93148309D01*
X158401500Y-93110214D01*
X157715785Y-92386404D02*
X157449119Y-93186404D01*
X157182452Y-92386404D01*
X159952028Y-94425976D02*
X159952028Y-95187880D01*
X160332980Y-94806928D02*
X159571076Y-94806928D01*
X159332980Y-96092642D02*
X159332980Y-95902166D01*
X159380600Y-95806928D01*
X159428219Y-95759309D01*
X159571076Y-95664071D01*
X159761552Y-95616452D01*
X160142504Y-95616452D01*
X160237742Y-95664071D01*
X160285361Y-95711690D01*
X160332980Y-95806928D01*
X160332980Y-95997404D01*
X160285361Y-96092642D01*
X160237742Y-96140261D01*
X160142504Y-96187880D01*
X159904409Y-96187880D01*
X159809171Y-96140261D01*
X159761552Y-96092642D01*
X159713933Y-95997404D01*
X159713933Y-95806928D01*
X159761552Y-95711690D01*
X159809171Y-95664071D01*
X159904409Y-95616452D01*
X159332980Y-96473595D02*
X160332980Y-96806928D01*
X159332980Y-97140261D01*
X166124228Y-94425976D02*
X166124228Y-95187880D01*
X166505180Y-94806928D02*
X165743276Y-94806928D01*
X165505180Y-96092642D02*
X165505180Y-95902166D01*
X165552800Y-95806928D01*
X165600419Y-95759309D01*
X165743276Y-95664071D01*
X165933752Y-95616452D01*
X166314704Y-95616452D01*
X166409942Y-95664071D01*
X166457561Y-95711690D01*
X166505180Y-95806928D01*
X166505180Y-95997404D01*
X166457561Y-96092642D01*
X166409942Y-96140261D01*
X166314704Y-96187880D01*
X166076609Y-96187880D01*
X165981371Y-96140261D01*
X165933752Y-96092642D01*
X165886133Y-95997404D01*
X165886133Y-95806928D01*
X165933752Y-95711690D01*
X165981371Y-95664071D01*
X166076609Y-95616452D01*
X165505180Y-96473595D02*
X166505180Y-96806928D01*
X165505180Y-97140261D01*
X163495400Y-95013285D02*
X163447780Y-94918047D01*
X163447780Y-94775190D01*
X163495400Y-94632333D01*
X163590638Y-94537095D01*
X163685876Y-94489476D01*
X163876352Y-94441857D01*
X164019209Y-94441857D01*
X164209685Y-94489476D01*
X164304923Y-94537095D01*
X164400161Y-94632333D01*
X164447780Y-94775190D01*
X164447780Y-94870428D01*
X164400161Y-95013285D01*
X164352542Y-95060904D01*
X164019209Y-95060904D01*
X164019209Y-94870428D01*
X164447780Y-95489476D02*
X163447780Y-95489476D01*
X164447780Y-96060904D01*
X163447780Y-96060904D01*
X164447780Y-96537095D02*
X163447780Y-96537095D01*
X163447780Y-96775190D01*
X163495400Y-96918047D01*
X163590638Y-97013285D01*
X163685876Y-97060904D01*
X163876352Y-97108523D01*
X164019209Y-97108523D01*
X164209685Y-97060904D01*
X164304923Y-97013285D01*
X164400161Y-96918047D01*
X164447780Y-96775190D01*
X164447780Y-96537095D01*
X157399400Y-95013285D02*
X157351780Y-94918047D01*
X157351780Y-94775190D01*
X157399400Y-94632333D01*
X157494638Y-94537095D01*
X157589876Y-94489476D01*
X157780352Y-94441857D01*
X157923209Y-94441857D01*
X158113685Y-94489476D01*
X158208923Y-94537095D01*
X158304161Y-94632333D01*
X158351780Y-94775190D01*
X158351780Y-94870428D01*
X158304161Y-95013285D01*
X158256542Y-95060904D01*
X157923209Y-95060904D01*
X157923209Y-94870428D01*
X158351780Y-95489476D02*
X157351780Y-95489476D01*
X158351780Y-96060904D01*
X157351780Y-96060904D01*
X158351780Y-96537095D02*
X157351780Y-96537095D01*
X157351780Y-96775190D01*
X157399400Y-96918047D01*
X157494638Y-97013285D01*
X157589876Y-97060904D01*
X157780352Y-97108523D01*
X157923209Y-97108523D01*
X158113685Y-97060904D01*
X158208923Y-97013285D01*
X158304161Y-96918047D01*
X158351780Y-96775190D01*
X158351780Y-96537095D01*
X153814771Y-96845628D02*
X153862390Y-96988485D01*
X153910009Y-97036104D01*
X154005247Y-97083723D01*
X154148104Y-97083723D01*
X154243342Y-97036104D01*
X154290961Y-96988485D01*
X154338580Y-96893247D01*
X154338580Y-96512295D01*
X153338580Y-96512295D01*
X153338580Y-96845628D01*
X153386200Y-96940866D01*
X153433819Y-96988485D01*
X153529057Y-97036104D01*
X153624295Y-97036104D01*
X153719533Y-96988485D01*
X153767152Y-96940866D01*
X153814771Y-96845628D01*
X153814771Y-96512295D01*
X156059466Y-96536104D02*
X156059466Y-97012295D01*
X156345180Y-96440866D02*
X155345180Y-96774200D01*
X156345180Y-97107533D01*
X138285780Y-91853104D02*
X137809590Y-91519771D01*
X138285780Y-91281676D02*
X137285780Y-91281676D01*
X137285780Y-91662628D01*
X137333400Y-91757866D01*
X137381019Y-91805485D01*
X137476257Y-91853104D01*
X137619114Y-91853104D01*
X137714352Y-91805485D01*
X137761971Y-91757866D01*
X137809590Y-91662628D01*
X137809590Y-91281676D01*
X138238161Y-92662628D02*
X138285780Y-92567390D01*
X138285780Y-92376914D01*
X138238161Y-92281676D01*
X138142923Y-92234057D01*
X137761971Y-92234057D01*
X137666733Y-92281676D01*
X137619114Y-92376914D01*
X137619114Y-92567390D01*
X137666733Y-92662628D01*
X137761971Y-92710247D01*
X137857209Y-92710247D01*
X137952447Y-92234057D01*
X138238161Y-93091200D02*
X138285780Y-93186438D01*
X138285780Y-93376914D01*
X138238161Y-93472152D01*
X138142923Y-93519771D01*
X138095304Y-93519771D01*
X138000066Y-93472152D01*
X137952447Y-93376914D01*
X137952447Y-93234057D01*
X137904828Y-93138819D01*
X137809590Y-93091200D01*
X137761971Y-93091200D01*
X137666733Y-93138819D01*
X137619114Y-93234057D01*
X137619114Y-93376914D01*
X137666733Y-93472152D01*
X138238161Y-94329295D02*
X138285780Y-94234057D01*
X138285780Y-94043580D01*
X138238161Y-93948342D01*
X138142923Y-93900723D01*
X137761971Y-93900723D01*
X137666733Y-93948342D01*
X137619114Y-94043580D01*
X137619114Y-94234057D01*
X137666733Y-94329295D01*
X137761971Y-94376914D01*
X137857209Y-94376914D01*
X137952447Y-93900723D01*
X137619114Y-94662628D02*
X137619114Y-95043580D01*
X137285780Y-94805485D02*
X138142923Y-94805485D01*
X138238161Y-94853104D01*
X138285780Y-94948342D01*
X138285780Y-95043580D01*
X138824000Y-97333000D02*
X138824000Y-95351800D01*
X136817400Y-97333000D02*
X138824000Y-97333000D01*
X134836200Y-95351800D02*
X134836200Y-99339600D01*
X136817400Y-95351800D02*
X136817400Y-99339600D01*
X132829600Y-95351800D02*
X138824000Y-95351800D01*
X132829600Y-99339600D02*
X132829600Y-95351800D01*
X136792000Y-99339600D02*
X132829600Y-99339600D01*
X136231561Y-92369057D02*
X136279180Y-92511914D01*
X136279180Y-92750009D01*
X136231561Y-92845247D01*
X136183942Y-92892866D01*
X136088704Y-92940485D01*
X135993466Y-92940485D01*
X135898228Y-92892866D01*
X135850609Y-92845247D01*
X135802990Y-92750009D01*
X135755371Y-92559533D01*
X135707752Y-92464295D01*
X135660133Y-92416676D01*
X135564895Y-92369057D01*
X135469657Y-92369057D01*
X135374419Y-92416676D01*
X135326800Y-92464295D01*
X135279180Y-92559533D01*
X135279180Y-92797628D01*
X135326800Y-92940485D01*
X135279180Y-93273819D02*
X136279180Y-93511914D01*
X135564895Y-93702390D01*
X136279180Y-93892866D01*
X135279180Y-94130961D01*
X136279180Y-94511914D02*
X135279180Y-94511914D01*
X135279180Y-94750009D01*
X135326800Y-94892866D01*
X135422038Y-94988104D01*
X135517276Y-95035723D01*
X135707752Y-95083342D01*
X135850609Y-95083342D01*
X136041085Y-95035723D01*
X136136323Y-94988104D01*
X136231561Y-94892866D01*
X136279180Y-94750009D01*
X136279180Y-94511914D01*
X133272580Y-91749961D02*
X134082104Y-91749961D01*
X134177342Y-91797580D01*
X134224961Y-91845200D01*
X134272580Y-91940438D01*
X134272580Y-92130914D01*
X134224961Y-92226152D01*
X134177342Y-92273771D01*
X134082104Y-92321390D01*
X133272580Y-92321390D01*
X133986866Y-92749961D02*
X133986866Y-93226152D01*
X134272580Y-92654723D02*
X133272580Y-92988057D01*
X134272580Y-93321390D01*
X134272580Y-94226152D02*
X133796390Y-93892819D01*
X134272580Y-93654723D02*
X133272580Y-93654723D01*
X133272580Y-94035676D01*
X133320200Y-94130914D01*
X133367819Y-94178533D01*
X133463057Y-94226152D01*
X133605914Y-94226152D01*
X133701152Y-94178533D01*
X133748771Y-94130914D01*
X133796390Y-94035676D01*
X133796390Y-93654723D01*
X133272580Y-94511866D02*
X133272580Y-95083295D01*
X134272580Y-94797580D02*
X133272580Y-94797580D01*
X158008928Y-72840095D02*
X158008928Y-73602000D01*
X158389880Y-73221047D02*
X157627976Y-73221047D01*
X157389880Y-73982952D02*
X157389880Y-74602000D01*
X157770833Y-74268666D01*
X157770833Y-74411523D01*
X157818452Y-74506761D01*
X157866071Y-74554380D01*
X157961309Y-74602000D01*
X158199404Y-74602000D01*
X158294642Y-74554380D01*
X158342261Y-74506761D01*
X158389880Y-74411523D01*
X158389880Y-74125809D01*
X158342261Y-74030571D01*
X158294642Y-73982952D01*
X158294642Y-75030571D02*
X158342261Y-75078190D01*
X158389880Y-75030571D01*
X158342261Y-74982952D01*
X158294642Y-75030571D01*
X158389880Y-75030571D01*
X157389880Y-75411523D02*
X157389880Y-76030571D01*
X157770833Y-75697238D01*
X157770833Y-75840095D01*
X157818452Y-75935333D01*
X157866071Y-75982952D01*
X157961309Y-76030571D01*
X158199404Y-76030571D01*
X158294642Y-75982952D01*
X158342261Y-75935333D01*
X158389880Y-75840095D01*
X158389880Y-75554380D01*
X158342261Y-75459142D01*
X158294642Y-75411523D01*
X157389880Y-76316285D02*
X158389880Y-76649619D01*
X157389880Y-76982952D01*
X157389880Y-78268666D02*
X157389880Y-78459142D01*
X157437500Y-78554380D01*
X157532738Y-78649619D01*
X157723214Y-78697238D01*
X158056547Y-78697238D01*
X158247023Y-78649619D01*
X158342261Y-78554380D01*
X158389880Y-78459142D01*
X158389880Y-78268666D01*
X158342261Y-78173428D01*
X158247023Y-78078190D01*
X158056547Y-78030571D01*
X157723214Y-78030571D01*
X157532738Y-78078190D01*
X157437500Y-78173428D01*
X157389880Y-78268666D01*
X157723214Y-79554380D02*
X158389880Y-79554380D01*
X157723214Y-79125809D02*
X158247023Y-79125809D01*
X158342261Y-79173428D01*
X158389880Y-79268666D01*
X158389880Y-79411523D01*
X158342261Y-79506761D01*
X158294642Y-79554380D01*
X157723214Y-79887714D02*
X157723214Y-80268666D01*
X157389880Y-80030571D02*
X158247023Y-80030571D01*
X158342261Y-80078190D01*
X158389880Y-80173428D01*
X158389880Y-80268666D01*
X134120228Y-72840095D02*
X134120228Y-73602000D01*
X134501180Y-73221047D02*
X133739276Y-73221047D01*
X133501180Y-73982952D02*
X133501180Y-74602000D01*
X133882133Y-74268666D01*
X133882133Y-74411523D01*
X133929752Y-74506761D01*
X133977371Y-74554380D01*
X134072609Y-74602000D01*
X134310704Y-74602000D01*
X134405942Y-74554380D01*
X134453561Y-74506761D01*
X134501180Y-74411523D01*
X134501180Y-74125809D01*
X134453561Y-74030571D01*
X134405942Y-73982952D01*
X134405942Y-75030571D02*
X134453561Y-75078190D01*
X134501180Y-75030571D01*
X134453561Y-74982952D01*
X134405942Y-75030571D01*
X134501180Y-75030571D01*
X133501180Y-75411523D02*
X133501180Y-76030571D01*
X133882133Y-75697238D01*
X133882133Y-75840095D01*
X133929752Y-75935333D01*
X133977371Y-75982952D01*
X134072609Y-76030571D01*
X134310704Y-76030571D01*
X134405942Y-75982952D01*
X134453561Y-75935333D01*
X134501180Y-75840095D01*
X134501180Y-75554380D01*
X134453561Y-75459142D01*
X134405942Y-75411523D01*
X133501180Y-76316285D02*
X134501180Y-76649619D01*
X133501180Y-76982952D01*
X133501180Y-78268666D02*
X133501180Y-78459142D01*
X133548800Y-78554380D01*
X133644038Y-78649619D01*
X133834514Y-78697238D01*
X134167847Y-78697238D01*
X134358323Y-78649619D01*
X134453561Y-78554380D01*
X134501180Y-78459142D01*
X134501180Y-78268666D01*
X134453561Y-78173428D01*
X134358323Y-78078190D01*
X134167847Y-78030571D01*
X133834514Y-78030571D01*
X133644038Y-78078190D01*
X133548800Y-78173428D01*
X133501180Y-78268666D01*
X133834514Y-79554380D02*
X134501180Y-79554380D01*
X133834514Y-79125809D02*
X134358323Y-79125809D01*
X134453561Y-79173428D01*
X134501180Y-79268666D01*
X134501180Y-79411523D01*
X134453561Y-79506761D01*
X134405942Y-79554380D01*
X133834514Y-79887714D02*
X133834514Y-80268666D01*
X133501180Y-80030571D02*
X134358323Y-80030571D01*
X134453561Y-80078190D01*
X134501180Y-80173428D01*
X134501180Y-80268666D01*
X135555400Y-73427404D02*
X135507780Y-73332166D01*
X135507780Y-73189309D01*
X135555400Y-73046452D01*
X135650638Y-72951214D01*
X135745876Y-72903595D01*
X135936352Y-72855976D01*
X136079209Y-72855976D01*
X136269685Y-72903595D01*
X136364923Y-72951214D01*
X136460161Y-73046452D01*
X136507780Y-73189309D01*
X136507780Y-73284547D01*
X136460161Y-73427404D01*
X136412542Y-73475023D01*
X136079209Y-73475023D01*
X136079209Y-73284547D01*
X136507780Y-73903595D02*
X135507780Y-73903595D01*
X136507780Y-74475023D01*
X135507780Y-74475023D01*
X136507780Y-74951214D02*
X135507780Y-74951214D01*
X135507780Y-75189309D01*
X135555400Y-75332166D01*
X135650638Y-75427404D01*
X135745876Y-75475023D01*
X135936352Y-75522642D01*
X136079209Y-75522642D01*
X136269685Y-75475023D01*
X136364923Y-75427404D01*
X136460161Y-75332166D01*
X136507780Y-75189309D01*
X136507780Y-74951214D01*
X142514880Y-73427404D02*
X142514880Y-72855976D01*
X142514880Y-73141690D02*
X141514880Y-73141690D01*
X141657738Y-73046452D01*
X141752976Y-72951214D01*
X141800595Y-72855976D01*
X142514880Y-73855976D02*
X141514880Y-73855976D01*
X141514880Y-74236928D01*
X141562500Y-74332166D01*
X141610119Y-74379785D01*
X141705357Y-74427404D01*
X141848214Y-74427404D01*
X141943452Y-74379785D01*
X141991071Y-74332166D01*
X142038690Y-74236928D01*
X142038690Y-73855976D01*
X142514880Y-74855976D02*
X141514880Y-74855976D01*
X141514880Y-75236928D01*
X141562500Y-75332166D01*
X141610119Y-75379785D01*
X141705357Y-75427404D01*
X141848214Y-75427404D01*
X141943452Y-75379785D01*
X141991071Y-75332166D01*
X142038690Y-75236928D01*
X142038690Y-74855976D01*
X142467261Y-75808357D02*
X142514880Y-75951214D01*
X142514880Y-76189309D01*
X142467261Y-76284547D01*
X142419642Y-76332166D01*
X142324404Y-76379785D01*
X142229166Y-76379785D01*
X142133928Y-76332166D01*
X142086309Y-76284547D01*
X142038690Y-76189309D01*
X141991071Y-75998833D01*
X141943452Y-75903595D01*
X141895833Y-75855976D01*
X141800595Y-75808357D01*
X141705357Y-75808357D01*
X141610119Y-75855976D01*
X141562500Y-75903595D01*
X141514880Y-75998833D01*
X141514880Y-76236928D01*
X141562500Y-76379785D01*
X139520980Y-72824238D02*
X139520980Y-73395666D01*
X140520980Y-73109952D02*
X139520980Y-73109952D01*
X139520980Y-73633761D02*
X140520980Y-74300428D01*
X139520980Y-74300428D02*
X140520980Y-73633761D01*
X138514380Y-73411523D02*
X138038190Y-73078190D01*
X138514380Y-72840095D02*
X137514380Y-72840095D01*
X137514380Y-73221047D01*
X137562000Y-73316285D01*
X137609619Y-73363904D01*
X137704857Y-73411523D01*
X137847714Y-73411523D01*
X137942952Y-73363904D01*
X137990571Y-73316285D01*
X138038190Y-73221047D01*
X138038190Y-72840095D01*
X137514380Y-73744857D02*
X138514380Y-74411523D01*
X137514380Y-74411523D02*
X138514380Y-73744857D01*
X159431400Y-73427404D02*
X159383780Y-73332166D01*
X159383780Y-73189309D01*
X159431400Y-73046452D01*
X159526638Y-72951214D01*
X159621876Y-72903595D01*
X159812352Y-72855976D01*
X159955209Y-72855976D01*
X160145685Y-72903595D01*
X160240923Y-72951214D01*
X160336161Y-73046452D01*
X160383780Y-73189309D01*
X160383780Y-73284547D01*
X160336161Y-73427404D01*
X160288542Y-73475023D01*
X159955209Y-73475023D01*
X159955209Y-73284547D01*
X160383780Y-73903595D02*
X159383780Y-73903595D01*
X160383780Y-74475023D01*
X159383780Y-74475023D01*
X160383780Y-74951214D02*
X159383780Y-74951214D01*
X159383780Y-75189309D01*
X159431400Y-75332166D01*
X159526638Y-75427404D01*
X159621876Y-75475023D01*
X159812352Y-75522642D01*
X159955209Y-75522642D01*
X160145685Y-75475023D01*
X160240923Y-75427404D01*
X160336161Y-75332166D01*
X160383780Y-75189309D01*
X160383780Y-74951214D01*
X165854371Y-73173428D02*
X165854371Y-72840095D01*
X166378180Y-72840095D02*
X165378180Y-72840095D01*
X165378180Y-73316285D01*
X166378180Y-73697238D02*
X165378180Y-73697238D01*
X165378180Y-74078190D01*
X165425800Y-74173428D01*
X165473419Y-74221047D01*
X165568657Y-74268666D01*
X165711514Y-74268666D01*
X165806752Y-74221047D01*
X165854371Y-74173428D01*
X165901990Y-74078190D01*
X165901990Y-73697238D01*
X166378180Y-74697238D02*
X165711514Y-74697238D01*
X165378180Y-74697238D02*
X165425800Y-74649619D01*
X165473419Y-74697238D01*
X165425800Y-74744857D01*
X165378180Y-74697238D01*
X165473419Y-74697238D01*
X165711514Y-75173428D02*
X166378180Y-75173428D01*
X165806752Y-75173428D02*
X165759133Y-75221047D01*
X165711514Y-75316285D01*
X165711514Y-75459142D01*
X165759133Y-75554380D01*
X165854371Y-75602000D01*
X166378180Y-75602000D01*
X163873171Y-73173428D02*
X163920790Y-73316285D01*
X163968409Y-73363904D01*
X164063647Y-73411523D01*
X164206504Y-73411523D01*
X164301742Y-73363904D01*
X164349361Y-73316285D01*
X164396980Y-73221047D01*
X164396980Y-72840095D01*
X163396980Y-72840095D01*
X163396980Y-73173428D01*
X163444600Y-73268666D01*
X163492219Y-73316285D01*
X163587457Y-73363904D01*
X163682695Y-73363904D01*
X163777933Y-73316285D01*
X163825552Y-73268666D01*
X163873171Y-73173428D01*
X163873171Y-72840095D01*
X163730314Y-74268666D02*
X164396980Y-74268666D01*
X163730314Y-73840095D02*
X164254123Y-73840095D01*
X164349361Y-73887714D01*
X164396980Y-73982952D01*
X164396980Y-74125809D01*
X164349361Y-74221047D01*
X164301742Y-74268666D01*
X163730314Y-74649619D02*
X163730314Y-75173428D01*
X164396980Y-74649619D01*
X164396980Y-75173428D01*
X163730314Y-75459142D02*
X163730314Y-75982952D01*
X164396980Y-75459142D01*
X164396980Y-75982952D01*
X161390380Y-72824238D02*
X161390380Y-73395666D01*
X162390380Y-73109952D02*
X161390380Y-73109952D01*
X162390380Y-73729000D02*
X161723714Y-73729000D01*
X161914190Y-73729000D02*
X161818952Y-73776619D01*
X161771333Y-73824238D01*
X161723714Y-73919476D01*
X161723714Y-74014714D01*
X162390380Y-74348047D02*
X161723714Y-74348047D01*
X161390380Y-74348047D02*
X161438000Y-74300428D01*
X161485619Y-74348047D01*
X161438000Y-74395666D01*
X161390380Y-74348047D01*
X161485619Y-74348047D01*
X161723714Y-75252809D02*
X162533238Y-75252809D01*
X162628476Y-75205190D01*
X162676095Y-75157571D01*
X162723714Y-75062333D01*
X162723714Y-74919476D01*
X162676095Y-74824238D01*
X162342761Y-75252809D02*
X162390380Y-75157571D01*
X162390380Y-74967095D01*
X162342761Y-74871857D01*
X162295142Y-74824238D01*
X162199904Y-74776619D01*
X161914190Y-74776619D01*
X161818952Y-74824238D01*
X161771333Y-74871857D01*
X161723714Y-74967095D01*
X161723714Y-75157571D01*
X161771333Y-75252809D01*
X149909009Y-97332400D02*
X148861390Y-97332400D01*
X149670914Y-98699780D02*
X149670914Y-97699780D01*
X149670914Y-98175971D02*
X149099485Y-98175971D01*
X149099485Y-98699780D02*
X149099485Y-97699780D01*
X148861390Y-97332400D02*
X147956628Y-97332400D01*
X148194723Y-98699780D02*
X148194723Y-98175971D01*
X148242342Y-98080733D01*
X148337580Y-98033114D01*
X148528057Y-98033114D01*
X148623295Y-98080733D01*
X148194723Y-98652161D02*
X148289961Y-98699780D01*
X148528057Y-98699780D01*
X148623295Y-98652161D01*
X148670914Y-98556923D01*
X148670914Y-98461685D01*
X148623295Y-98366447D01*
X148528057Y-98318828D01*
X148289961Y-98318828D01*
X148194723Y-98271209D01*
X147956628Y-97332400D02*
X147432819Y-97332400D01*
X147575676Y-98699780D02*
X147670914Y-98652161D01*
X147718533Y-98556923D01*
X147718533Y-97699780D01*
X147432819Y-97332400D02*
X146861390Y-97332400D01*
X147337580Y-98033114D02*
X146956628Y-98033114D01*
X147194723Y-98699780D02*
X147194723Y-97842638D01*
X147147104Y-97747400D01*
X147051866Y-97699780D01*
X146956628Y-97699780D01*
X146861390Y-97332400D02*
X145861390Y-97332400D01*
X146623295Y-98699780D02*
X146623295Y-97699780D01*
X146385200Y-97699780D01*
X146242342Y-97747400D01*
X146147104Y-97842638D01*
X146099485Y-97937876D01*
X146051866Y-98128352D01*
X146051866Y-98271209D01*
X146099485Y-98461685D01*
X146147104Y-98556923D01*
X146242342Y-98652161D01*
X146385200Y-98699780D01*
X146623295Y-98699780D01*
X145861390Y-97332400D02*
X144956628Y-97332400D01*
X145194723Y-98033114D02*
X145194723Y-98699780D01*
X145623295Y-98033114D02*
X145623295Y-98556923D01*
X145575676Y-98652161D01*
X145480438Y-98699780D01*
X145337580Y-98699780D01*
X145242342Y-98652161D01*
X145194723Y-98604542D01*
X144956628Y-97332400D02*
X144051866Y-97332400D01*
X144718533Y-98033114D02*
X144718533Y-99033114D01*
X144718533Y-98080733D02*
X144623295Y-98033114D01*
X144432819Y-98033114D01*
X144337580Y-98080733D01*
X144289961Y-98128352D01*
X144242342Y-98223590D01*
X144242342Y-98509304D01*
X144289961Y-98604542D01*
X144337580Y-98652161D01*
X144432819Y-98699780D01*
X144623295Y-98699780D01*
X144718533Y-98652161D01*
X144051866Y-97332400D02*
X143528057Y-97332400D01*
X143670914Y-98699780D02*
X143766152Y-98652161D01*
X143813771Y-98556923D01*
X143813771Y-97699780D01*
X143528057Y-97332400D02*
X142670914Y-97332400D01*
X142909009Y-98652161D02*
X143004247Y-98699780D01*
X143194723Y-98699780D01*
X143289961Y-98652161D01*
X143337580Y-98556923D01*
X143337580Y-98175971D01*
X143289961Y-98080733D01*
X143194723Y-98033114D01*
X143004247Y-98033114D01*
X142909009Y-98080733D01*
X142861390Y-98175971D01*
X142861390Y-98271209D01*
X143337580Y-98366447D01*
X142670914Y-97332400D02*
X141861390Y-97332400D01*
X142528057Y-98699780D02*
X142004247Y-98033114D01*
X142528057Y-98033114D02*
X142004247Y-98699780D01*
D11*
G04 #@! TO.C,C1*
X154822600Y-94315800D02*
X154822600Y-95015800D01*
X156022600Y-95015800D02*
X156022600Y-94315800D01*
G04 #@! TO.C,VR1*
X154543400Y-93410200D02*
X154543400Y-95860200D01*
X151323400Y-95210200D02*
X151323400Y-93410200D01*
G04 #@! TO.C,C2*
X154363800Y-90640800D02*
X155363800Y-90640800D01*
X155363800Y-92340800D02*
X154363800Y-92340800D01*
G04 #@! TO.C,C3*
X128279600Y-90226400D02*
X128279600Y-90926400D01*
X129479600Y-90926400D02*
X129479600Y-90226400D01*
G04 #@! TO.C,C4*
X141168800Y-91758600D02*
X142168800Y-91758600D01*
X142168800Y-93458600D02*
X141168800Y-93458600D01*
G04 #@! TO.C,C5*
X134752600Y-91303400D02*
X135452600Y-91303400D01*
X135452600Y-90103400D02*
X134752600Y-90103400D01*
G04 #@! TO.C,C6*
X142031200Y-90103400D02*
X141331200Y-90103400D01*
X141331200Y-91303400D02*
X142031200Y-91303400D01*
G04 #@! TO.C,C7*
X135478000Y-82229400D02*
X134778000Y-82229400D01*
X134778000Y-83429400D02*
X135478000Y-83429400D01*
G04 #@! TO.C,C8*
X141576500Y-83660500D02*
X141576500Y-84360500D01*
X142776500Y-84360500D02*
X142776500Y-83660500D01*
G04 #@! TO.C,C9*
X136867000Y-87688800D02*
X136867000Y-88688800D01*
X135167000Y-88688800D02*
X135167000Y-87688800D01*
G04 #@! TO.C,C10*
X134991400Y-88894400D02*
X134991400Y-88194400D01*
X133791400Y-88194400D02*
X133791400Y-88894400D01*
G04 #@! TO.C,C15*
X161256600Y-87845000D02*
X160256600Y-87845000D01*
X160256600Y-86145000D02*
X161256600Y-86145000D01*
G04 #@! TO.C,JP1*
X146787900Y-94412000D02*
X145007900Y-94412000D01*
X145007900Y-96952000D02*
X146787900Y-96952000D01*
X145007900Y-96952000D02*
X145007900Y-94412000D01*
X146787900Y-94412000D02*
X146787900Y-96952000D01*
G04 #@! TO.C,R1*
X173298400Y-91736800D02*
X173298400Y-90736800D01*
X171938400Y-90736800D02*
X171938400Y-91736800D01*
G04 #@! TO.C,R7*
X160295000Y-82011000D02*
X161295000Y-82011000D01*
X161295000Y-80651000D02*
X160295000Y-80651000D01*
G04 #@! TO.C,R8*
X160295000Y-83471500D02*
X161295000Y-83471500D01*
X161295000Y-82111500D02*
X160295000Y-82111500D01*
G04 #@! TO.C,R9*
X161295000Y-83572000D02*
X160295000Y-83572000D01*
X160295000Y-84932000D02*
X161295000Y-84932000D01*
G04 #@! TO.C,R10*
X160295000Y-89377000D02*
X161295000Y-89377000D01*
X161295000Y-88017000D02*
X160295000Y-88017000D01*
G04 #@! TO.C,R11*
X161295000Y-89477500D02*
X160295000Y-89477500D01*
X160295000Y-90837500D02*
X161295000Y-90837500D01*
G04 #@! TO.C,R14*
X148140000Y-77513000D02*
X148140000Y-76513000D01*
X146780000Y-76513000D02*
X146780000Y-77513000D01*
G04 #@! TO.C,R15*
X149320000Y-76513000D02*
X149320000Y-77513000D01*
X150680000Y-77513000D02*
X150680000Y-76513000D01*
G04 #@! TO.C,D6*
X168630800Y-98425200D02*
X168630800Y-95375200D01*
X168630800Y-95375200D02*
X167030800Y-95375200D01*
X167030800Y-95375200D02*
X167030800Y-98425200D01*
G04 #@! TO.C,D7*
X160934800Y-95375200D02*
X160934800Y-98425200D01*
X162534800Y-95375200D02*
X160934800Y-95375200D01*
X162534800Y-98425200D02*
X162534800Y-95375200D01*
G04 #@! TO.C,R16*
X161258000Y-76970200D02*
X161258000Y-77970200D01*
X162618000Y-77970200D02*
X162618000Y-76970200D01*
G04 #@! TO.C,R17*
X164624600Y-77970200D02*
X164624600Y-76970200D01*
X163264600Y-76970200D02*
X163264600Y-77970200D01*
G04 #@! TO.C,R18*
X165271200Y-76970200D02*
X165271200Y-77970200D01*
X166631200Y-77970200D02*
X166631200Y-76970200D01*
G04 #@! TO.C,C16*
X168430500Y-90583500D02*
X168430500Y-89883500D01*
X167230500Y-89883500D02*
X167230500Y-90583500D01*
G04 #@! TO.C,C17*
X166797100Y-86157700D02*
X167797100Y-86157700D01*
X167797100Y-87857700D02*
X166797100Y-87857700D01*
G04 #@! TO.C,VR2*
X166964000Y-88965200D02*
X166964000Y-91415200D01*
X163744000Y-90765200D02*
X163744000Y-88965200D01*
D12*
G04 #@! TO.C,G\002A\002A\002A*
G36*
X146283961Y-81690799D02*
X146299123Y-81735283D01*
X146323515Y-81797199D01*
X146357987Y-81878979D01*
X146367057Y-81899993D01*
X146417402Y-82012755D01*
X146461977Y-82103642D01*
X146502806Y-82174956D01*
X146541913Y-82228996D01*
X146581322Y-82268064D01*
X146623056Y-82294459D01*
X146669139Y-82310484D01*
X146721596Y-82318437D01*
X146736040Y-82319439D01*
X146814573Y-82316607D01*
X146883800Y-82296742D01*
X146950361Y-82257265D01*
X146997430Y-82217956D01*
X147059708Y-82147340D01*
X147098522Y-82069801D01*
X147115643Y-81981323D01*
X147116837Y-81946950D01*
X147116059Y-81911581D01*
X147112725Y-81880027D01*
X147105319Y-81847190D01*
X147092325Y-81807972D01*
X147072226Y-81757273D01*
X147043507Y-81689997D01*
X147033738Y-81667550D01*
X147003385Y-81597951D01*
X146974470Y-81531647D01*
X146949461Y-81474296D01*
X146930828Y-81431557D01*
X146924362Y-81416725D01*
X146907918Y-81382646D01*
X146894306Y-81360774D01*
X146889027Y-81356400D01*
X146875402Y-81361325D01*
X146841765Y-81375187D01*
X146791322Y-81396614D01*
X146727274Y-81424236D01*
X146652826Y-81456683D01*
X146583929Y-81486957D01*
X146485433Y-81530895D01*
X146408555Y-81566401D01*
X146351332Y-81594485D01*
X146311801Y-81616155D01*
X146288002Y-81632421D01*
X146277971Y-81644293D01*
X146277936Y-81644386D01*
X146277182Y-81661311D01*
X146283961Y-81690799D01*
X146283961Y-81690799D01*
G37*
X146283961Y-81690799D02*
X146299123Y-81735283D01*
X146323515Y-81797199D01*
X146357987Y-81878979D01*
X146367057Y-81899993D01*
X146417402Y-82012755D01*
X146461977Y-82103642D01*
X146502806Y-82174956D01*
X146541913Y-82228996D01*
X146581322Y-82268064D01*
X146623056Y-82294459D01*
X146669139Y-82310484D01*
X146721596Y-82318437D01*
X146736040Y-82319439D01*
X146814573Y-82316607D01*
X146883800Y-82296742D01*
X146950361Y-82257265D01*
X146997430Y-82217956D01*
X147059708Y-82147340D01*
X147098522Y-82069801D01*
X147115643Y-81981323D01*
X147116837Y-81946950D01*
X147116059Y-81911581D01*
X147112725Y-81880027D01*
X147105319Y-81847190D01*
X147092325Y-81807972D01*
X147072226Y-81757273D01*
X147043507Y-81689997D01*
X147033738Y-81667550D01*
X147003385Y-81597951D01*
X146974470Y-81531647D01*
X146949461Y-81474296D01*
X146930828Y-81431557D01*
X146924362Y-81416725D01*
X146907918Y-81382646D01*
X146894306Y-81360774D01*
X146889027Y-81356400D01*
X146875402Y-81361325D01*
X146841765Y-81375187D01*
X146791322Y-81396614D01*
X146727274Y-81424236D01*
X146652826Y-81456683D01*
X146583929Y-81486957D01*
X146485433Y-81530895D01*
X146408555Y-81566401D01*
X146351332Y-81594485D01*
X146311801Y-81616155D01*
X146288002Y-81632421D01*
X146277971Y-81644293D01*
X146277936Y-81644386D01*
X146277182Y-81661311D01*
X146283961Y-81690799D01*
G36*
X147995289Y-82790420D02*
X148004079Y-82821356D01*
X148020654Y-82865481D01*
X148042819Y-82918189D01*
X148068379Y-82974875D01*
X148095136Y-83030934D01*
X148120897Y-83081760D01*
X148143463Y-83122748D01*
X148160641Y-83149293D01*
X148170032Y-83156909D01*
X148241117Y-83121711D01*
X148293185Y-83094004D01*
X148330288Y-83070648D01*
X148356477Y-83048504D01*
X148375804Y-83024433D01*
X148392321Y-82995296D01*
X148400596Y-82978258D01*
X148431145Y-82885783D01*
X148436790Y-82791678D01*
X148417432Y-82698452D01*
X148412319Y-82684581D01*
X148375434Y-82615539D01*
X148326388Y-82561084D01*
X148269217Y-82523882D01*
X148207957Y-82506601D01*
X148149696Y-82511050D01*
X148084528Y-82540647D01*
X148034998Y-82588254D01*
X148002934Y-82650562D01*
X147990164Y-82724263D01*
X147995289Y-82790420D01*
X147995289Y-82790420D01*
G37*
X147995289Y-82790420D02*
X148004079Y-82821356D01*
X148020654Y-82865481D01*
X148042819Y-82918189D01*
X148068379Y-82974875D01*
X148095136Y-83030934D01*
X148120897Y-83081760D01*
X148143463Y-83122748D01*
X148160641Y-83149293D01*
X148170032Y-83156909D01*
X148241117Y-83121711D01*
X148293185Y-83094004D01*
X148330288Y-83070648D01*
X148356477Y-83048504D01*
X148375804Y-83024433D01*
X148392321Y-82995296D01*
X148400596Y-82978258D01*
X148431145Y-82885783D01*
X148436790Y-82791678D01*
X148417432Y-82698452D01*
X148412319Y-82684581D01*
X148375434Y-82615539D01*
X148326388Y-82561084D01*
X148269217Y-82523882D01*
X148207957Y-82506601D01*
X148149696Y-82511050D01*
X148084528Y-82540647D01*
X148034998Y-82588254D01*
X148002934Y-82650562D01*
X147990164Y-82724263D01*
X147995289Y-82790420D01*
G36*
X142121118Y-89198650D02*
X142125432Y-89280206D01*
X142138885Y-89349849D01*
X142164250Y-89416000D01*
X142204303Y-89487081D01*
X142228033Y-89523177D01*
X142312835Y-89628726D01*
X142408150Y-89712492D01*
X142512086Y-89773937D01*
X142622747Y-89812522D01*
X142738239Y-89827706D01*
X142856668Y-89818951D01*
X142976140Y-89785717D01*
X143044162Y-89755522D01*
X143088596Y-89727726D01*
X143144369Y-89684943D01*
X143206544Y-89631686D01*
X143270184Y-89572466D01*
X143330352Y-89511798D01*
X143382111Y-89454193D01*
X143405168Y-89425503D01*
X143442610Y-89376369D01*
X143480593Y-89326642D01*
X143511728Y-89285994D01*
X143515411Y-89281200D01*
X143537152Y-89251764D01*
X143569817Y-89206082D01*
X143610050Y-89148914D01*
X143654496Y-89085022D01*
X143689951Y-89033550D01*
X143749524Y-88947407D01*
X143817500Y-88850354D01*
X143889817Y-88748094D01*
X143962411Y-88646332D01*
X144031222Y-88550773D01*
X144092186Y-88467121D01*
X144122890Y-88425580D01*
X144196793Y-88331046D01*
X144286479Y-88224093D01*
X144388277Y-88108632D01*
X144498516Y-87988574D01*
X144613524Y-87867828D01*
X144729630Y-87750307D01*
X144843163Y-87639920D01*
X144950449Y-87540578D01*
X144970981Y-87522250D01*
X145054629Y-87449911D01*
X145149563Y-87370882D01*
X145251159Y-87288775D01*
X145354795Y-87207204D01*
X145455849Y-87129781D01*
X145549697Y-87060119D01*
X145631716Y-87001832D01*
X145669300Y-86976465D01*
X145805876Y-86890675D01*
X145928886Y-86822755D01*
X146041668Y-86771615D01*
X146147556Y-86736166D01*
X146249889Y-86715317D01*
X146352000Y-86707979D01*
X146457228Y-86713062D01*
X146471048Y-86714548D01*
X146518727Y-86720907D01*
X146559217Y-86729355D01*
X146599067Y-86742182D01*
X146644826Y-86761680D01*
X146703043Y-86790142D01*
X146737748Y-86807872D01*
X146867690Y-86870182D01*
X147004439Y-86926359D01*
X147151965Y-86977709D01*
X147314241Y-87025536D01*
X147495236Y-87071147D01*
X147631450Y-87101652D01*
X147701652Y-87115716D01*
X147773425Y-87128427D01*
X147837352Y-87138202D01*
X147876275Y-87142822D01*
X147968701Y-87151312D01*
X148039502Y-87228831D01*
X148133000Y-87326249D01*
X148240049Y-87429386D01*
X148355923Y-87534234D01*
X148475892Y-87636786D01*
X148595229Y-87733033D01*
X148709204Y-87818968D01*
X148813090Y-87890583D01*
X148841622Y-87908701D01*
X148996956Y-87996736D01*
X149154571Y-88070281D01*
X149311040Y-88128265D01*
X149462931Y-88169619D01*
X149606816Y-88193273D01*
X149739264Y-88198157D01*
X149765050Y-88196717D01*
X149921240Y-88173201D01*
X150067242Y-88126514D01*
X150202767Y-88056875D01*
X150327525Y-87964504D01*
X150441228Y-87849620D01*
X150543587Y-87712443D01*
X150634312Y-87553193D01*
X150647895Y-87525332D01*
X150717002Y-87364325D01*
X150774797Y-87193775D01*
X150821791Y-87011122D01*
X150858492Y-86813800D01*
X150885409Y-86599248D01*
X150903052Y-86364901D01*
X150909578Y-86207800D01*
X150913316Y-86107115D01*
X150917769Y-86028562D01*
X150922860Y-85973062D01*
X150928517Y-85941533D01*
X150931834Y-85934750D01*
X150965113Y-85900075D01*
X151008274Y-85847017D01*
X151058796Y-85779361D01*
X151114155Y-85700887D01*
X151171832Y-85615379D01*
X151229303Y-85526620D01*
X151284047Y-85438392D01*
X151333541Y-85354478D01*
X151375265Y-85278662D01*
X151394445Y-85240844D01*
X151465916Y-85087023D01*
X151530873Y-84933166D01*
X151587286Y-84784593D01*
X151633128Y-84646623D01*
X151664464Y-84532624D01*
X151708442Y-84329086D01*
X151739790Y-84134637D01*
X151759230Y-83941563D01*
X151767485Y-83742148D01*
X151765280Y-83528677D01*
X151763390Y-83477300D01*
X151753654Y-83315318D01*
X151737548Y-83164571D01*
X151713550Y-83013572D01*
X151681073Y-82855000D01*
X151619064Y-82624793D01*
X151535469Y-82390097D01*
X151432373Y-82155631D01*
X151311863Y-81926113D01*
X151176025Y-81706261D01*
X151167926Y-81694211D01*
X150991547Y-81455491D01*
X150796357Y-81233708D01*
X150655954Y-81099334D01*
X150655954Y-86239045D01*
X150660291Y-86242278D01*
X150659212Y-86258221D01*
X150656361Y-86294018D01*
X150652185Y-86344220D01*
X150647566Y-86398300D01*
X150624736Y-86610488D01*
X150594324Y-86801773D01*
X150555440Y-86975752D01*
X150507191Y-87136025D01*
X150448685Y-87286191D01*
X150403817Y-87381915D01*
X150320607Y-87525740D01*
X150226467Y-87646984D01*
X150121638Y-87745479D01*
X150006361Y-87821058D01*
X149880878Y-87873555D01*
X149745430Y-87902803D01*
X149640044Y-87909379D01*
X149519877Y-87900722D01*
X149387601Y-87875168D01*
X149248642Y-87834201D01*
X149108423Y-87779304D01*
X149031146Y-87742916D01*
X148938586Y-87690987D01*
X148833706Y-87622555D01*
X148720440Y-87540634D01*
X148602722Y-87448239D01*
X148484484Y-87348386D01*
X148369660Y-87244089D01*
X148326775Y-87202978D01*
X148312228Y-87184431D01*
X148314941Y-87171849D01*
X148337114Y-87164236D01*
X148380950Y-87160594D01*
X148422025Y-87159886D01*
X148536530Y-87154637D01*
X148668892Y-87140395D01*
X148813660Y-87118257D01*
X148965383Y-87089325D01*
X149118608Y-87054696D01*
X149267885Y-87015471D01*
X149407762Y-86972748D01*
X149486967Y-86945136D01*
X149556377Y-86918938D01*
X149624479Y-86892122D01*
X149686606Y-86866639D01*
X149738089Y-86844439D01*
X149774263Y-86827472D01*
X149789274Y-86818796D01*
X149804915Y-86809103D01*
X149838639Y-86789883D01*
X149886115Y-86763551D01*
X149943010Y-86732524D01*
X149969987Y-86717968D01*
X150041531Y-86678129D01*
X150116690Y-86633993D01*
X150187034Y-86590643D01*
X150244131Y-86553161D01*
X150249387Y-86549513D01*
X150298664Y-86514154D01*
X150354323Y-86472771D01*
X150412468Y-86428428D01*
X150469205Y-86384194D01*
X150520639Y-86343135D01*
X150562876Y-86308318D01*
X150592021Y-86282809D01*
X150603767Y-86270462D01*
X150618470Y-86256189D01*
X150639106Y-86244102D01*
X150655954Y-86239045D01*
X150655954Y-81099334D01*
X150583132Y-81029638D01*
X150352644Y-80844052D01*
X150232542Y-80759358D01*
X150125320Y-80689041D01*
X150022933Y-80626463D01*
X149920577Y-80569197D01*
X149813451Y-80514817D01*
X149696753Y-80460895D01*
X149565682Y-80405004D01*
X149494253Y-80376344D01*
X149494253Y-85001285D01*
X149528589Y-85012492D01*
X149559012Y-85040567D01*
X149578019Y-85077233D01*
X149580900Y-85096855D01*
X149572861Y-85128450D01*
X149558675Y-85152021D01*
X149540935Y-85164686D01*
X149503496Y-85185527D01*
X149450008Y-85212718D01*
X149384118Y-85244432D01*
X149309475Y-85278843D01*
X149270432Y-85296303D01*
X149004415Y-85414050D01*
X148941804Y-85570139D01*
X148919036Y-85628172D01*
X148900757Y-85677219D01*
X148888575Y-85712775D01*
X148884096Y-85730336D01*
X148884305Y-85731338D01*
X148897396Y-85735116D01*
X148932673Y-85743791D01*
X148987522Y-85756758D01*
X149059331Y-85773414D01*
X149145489Y-85793155D01*
X149243382Y-85815376D01*
X149350398Y-85839475D01*
X149403432Y-85851351D01*
X149514951Y-85876288D01*
X149619529Y-85899688D01*
X149714393Y-85920929D01*
X149796770Y-85939390D01*
X149863886Y-85954450D01*
X149912968Y-85965486D01*
X149941242Y-85971876D01*
X149946348Y-85973050D01*
X149988830Y-85993182D01*
X150015168Y-86026577D01*
X150020968Y-86067364D01*
X150020222Y-86071764D01*
X150007783Y-86107840D01*
X149991530Y-86133941D01*
X149959524Y-86152137D01*
X149925006Y-86156390D01*
X149903159Y-86153411D01*
X149859418Y-86145149D01*
X149796594Y-86132213D01*
X149717500Y-86115212D01*
X149624948Y-86094757D01*
X149521751Y-86071457D01*
X149410720Y-86045923D01*
X149345950Y-86030823D01*
X149233451Y-86004696D01*
X149128635Y-85980790D01*
X149034073Y-85959659D01*
X148952336Y-85941859D01*
X148885996Y-85927944D01*
X148837623Y-85918468D01*
X148809788Y-85913985D01*
X148803971Y-85913958D01*
X148797276Y-85927248D01*
X148782199Y-85961271D01*
X148759924Y-86013228D01*
X148731632Y-86080322D01*
X148698505Y-86159755D01*
X148661726Y-86248727D01*
X148634210Y-86315750D01*
X148594996Y-86411272D01*
X148558136Y-86500564D01*
X148524907Y-86580568D01*
X148496590Y-86648225D01*
X148474460Y-86700477D01*
X148459797Y-86734266D01*
X148454855Y-86744920D01*
X148425878Y-86779059D01*
X148387890Y-86795121D01*
X148347240Y-86794479D01*
X148310276Y-86778504D01*
X148283347Y-86748572D01*
X148272801Y-86706054D01*
X148272800Y-86705547D01*
X148277730Y-86689302D01*
X148291871Y-86652135D01*
X148314246Y-86596392D01*
X148343882Y-86524419D01*
X148379801Y-86438562D01*
X148421030Y-86341167D01*
X148466592Y-86234580D01*
X148515512Y-86121148D01*
X148521677Y-86106923D01*
X148570658Y-85993569D01*
X148616209Y-85887409D01*
X148657388Y-85790691D01*
X148693253Y-85705665D01*
X148722860Y-85634580D01*
X148745267Y-85579684D01*
X148759533Y-85543227D01*
X148764714Y-85527459D01*
X148764649Y-85527016D01*
X148752058Y-85530551D01*
X148719005Y-85543288D01*
X148668225Y-85564081D01*
X148602451Y-85591781D01*
X148524417Y-85625241D01*
X148436857Y-85663312D01*
X148369288Y-85693006D01*
X148274929Y-85734179D01*
X148186614Y-85771816D01*
X148107361Y-85804697D01*
X148040191Y-85831605D01*
X147988122Y-85851323D01*
X147954172Y-85862632D01*
X147943087Y-85864900D01*
X147902747Y-85852881D01*
X147880021Y-85831437D01*
X147857087Y-85786845D01*
X147858776Y-85744088D01*
X147875925Y-85714927D01*
X147891487Y-85705144D01*
X147928051Y-85686411D01*
X147983263Y-85659766D01*
X148054772Y-85626248D01*
X148140223Y-85586892D01*
X148237265Y-85542737D01*
X148343545Y-85494820D01*
X148456709Y-85444179D01*
X148574406Y-85391852D01*
X148694281Y-85338875D01*
X148813983Y-85286286D01*
X148931159Y-85235123D01*
X149043455Y-85186424D01*
X149148520Y-85141225D01*
X149244000Y-85100565D01*
X149327542Y-85065481D01*
X149396794Y-85037010D01*
X149449403Y-85016190D01*
X149483016Y-85004059D01*
X149494253Y-85001285D01*
X149494253Y-80376344D01*
X149415435Y-80344718D01*
X149400972Y-80339058D01*
X149326067Y-80313234D01*
X149232237Y-80286190D01*
X149125821Y-80259335D01*
X149013159Y-80234081D01*
X148900587Y-80211841D01*
X148794446Y-80194025D01*
X148701075Y-80182046D01*
X148691900Y-80181150D01*
X148596650Y-80172184D01*
X148418850Y-79991393D01*
X148252017Y-79828763D01*
X148091132Y-79686800D01*
X147932517Y-79562668D01*
X147772491Y-79453530D01*
X147607376Y-79356550D01*
X147568743Y-79335902D01*
X147385046Y-79250529D01*
X147204957Y-79189067D01*
X147029149Y-79151558D01*
X146935879Y-79144181D01*
X146935879Y-79420871D01*
X147086876Y-79439779D01*
X147244527Y-79481799D01*
X147408394Y-79546843D01*
X147578038Y-79634822D01*
X147753021Y-79745648D01*
X147932906Y-79879231D01*
X148117255Y-80035485D01*
X148129925Y-80046915D01*
X148169174Y-80083379D01*
X148200091Y-80113848D01*
X148218578Y-80134184D01*
X148222000Y-80139860D01*
X148211269Y-80149481D01*
X148193425Y-80155197D01*
X148186434Y-80156039D01*
X148186434Y-82257167D01*
X148274196Y-82268896D01*
X148345910Y-82296660D01*
X148426297Y-82347975D01*
X148492089Y-82415597D01*
X148546703Y-82503205D01*
X148556484Y-82523233D01*
X148575111Y-82565238D01*
X148586807Y-82600664D01*
X148593178Y-82638009D01*
X148595827Y-82685772D01*
X148596340Y-82734350D01*
X148595517Y-82794125D01*
X148593055Y-82849226D01*
X148589392Y-82891459D01*
X148587121Y-82905800D01*
X148577592Y-82950250D01*
X148653652Y-82945954D01*
X148697697Y-82944644D01*
X148725938Y-82948810D01*
X148747829Y-82961260D01*
X148767956Y-82979902D01*
X148792245Y-83005569D01*
X148803146Y-83025704D01*
X148802158Y-83049458D01*
X148790780Y-83085979D01*
X148787065Y-83096540D01*
X148764763Y-83144966D01*
X148737211Y-83171596D01*
X148699375Y-83180032D01*
X148672850Y-83178286D01*
X148656124Y-83177274D01*
X148637590Y-83179323D01*
X148636647Y-83179580D01*
X148636647Y-83649415D01*
X148694695Y-83650507D01*
X148737067Y-83654579D01*
X148773476Y-83663818D01*
X148813634Y-83680415D01*
X148848204Y-83697103D01*
X148938846Y-83755090D01*
X149022182Y-83833675D01*
X149096212Y-83928617D01*
X149158934Y-84035676D01*
X149208346Y-84150611D01*
X149242446Y-84269179D01*
X149259234Y-84387140D01*
X149256708Y-84500252D01*
X149249120Y-84546649D01*
X149214874Y-84649707D01*
X149160001Y-84740947D01*
X149087499Y-84817720D01*
X149000368Y-84877375D01*
X148901605Y-84917263D01*
X148811171Y-84933614D01*
X148738522Y-84935138D01*
X148671274Y-84925761D01*
X148606501Y-84903756D01*
X148541281Y-84867396D01*
X148472688Y-84814954D01*
X148397798Y-84744701D01*
X148313687Y-84654911D01*
X148285556Y-84623150D01*
X148211145Y-84539920D01*
X148148746Y-84474234D01*
X148095200Y-84423263D01*
X148047350Y-84384178D01*
X148002039Y-84354150D01*
X147961650Y-84332920D01*
X147882579Y-84307966D01*
X147805662Y-84305934D01*
X147733874Y-84324358D01*
X147670193Y-84360775D01*
X147617596Y-84412719D01*
X147579061Y-84477726D01*
X147557564Y-84553330D01*
X147556083Y-84637067D01*
X147560322Y-84665177D01*
X147590607Y-84776939D01*
X147634895Y-84873776D01*
X147691514Y-84953028D01*
X147758794Y-85012034D01*
X147789305Y-85029875D01*
X147827799Y-85047576D01*
X147863018Y-85058125D01*
X147904046Y-85063275D01*
X147959967Y-85064780D01*
X147970277Y-85064800D01*
X148038461Y-85067333D01*
X148085225Y-85076432D01*
X148114179Y-85094341D01*
X148128934Y-85123308D01*
X148133099Y-85165579D01*
X148133100Y-85166107D01*
X148128534Y-85203880D01*
X148112681Y-85230683D01*
X148082308Y-85248138D01*
X148034180Y-85257870D01*
X147965064Y-85261503D01*
X147942891Y-85261650D01*
X147883399Y-85260899D01*
X147840488Y-85257463D01*
X147805355Y-85249564D01*
X147769198Y-85235424D01*
X147736952Y-85220068D01*
X147642903Y-85159685D01*
X147559993Y-85076891D01*
X147488734Y-84972346D01*
X147429637Y-84846707D01*
X147417286Y-84812972D01*
X147417286Y-85931056D01*
X147431501Y-85939445D01*
X147463310Y-85958577D01*
X147508620Y-85985979D01*
X147563335Y-86019177D01*
X147590798Y-86035873D01*
X147753347Y-86134758D01*
X147711448Y-86162889D01*
X147674043Y-86187769D01*
X147638903Y-86210791D01*
X147636082Y-86212615D01*
X147602615Y-86234211D01*
X147548162Y-86147980D01*
X147514598Y-86094950D01*
X147479206Y-86039222D01*
X147450016Y-85993436D01*
X147429397Y-85959643D01*
X147417663Y-85937223D01*
X147417286Y-85931056D01*
X147417286Y-84812972D01*
X147414166Y-84804450D01*
X147396812Y-84749306D01*
X147386080Y-84700134D01*
X147380448Y-84646939D01*
X147378392Y-84579728D01*
X147378307Y-84569256D01*
X147378423Y-84507753D01*
X147380682Y-84463833D01*
X147386548Y-84429690D01*
X147397483Y-84397516D01*
X147414950Y-84359504D01*
X147419258Y-84350714D01*
X147469211Y-84270102D01*
X147533756Y-84204904D01*
X147617513Y-84150668D01*
X147637326Y-84140572D01*
X147674910Y-84123718D01*
X147709258Y-84113377D01*
X147748806Y-84108025D01*
X147801989Y-84106132D01*
X147828300Y-84106003D01*
X147886485Y-84106604D01*
X147927795Y-84109709D01*
X147960745Y-84117180D01*
X147993850Y-84130877D01*
X148031434Y-84150400D01*
X148064701Y-84170118D01*
X148099986Y-84195090D01*
X148139546Y-84227407D01*
X148185639Y-84269161D01*
X148240521Y-84322445D01*
X148306449Y-84389351D01*
X148385681Y-84471971D01*
X148437900Y-84527150D01*
X148511243Y-84600993D01*
X148574815Y-84655487D01*
X148632281Y-84692837D01*
X148687307Y-84715247D01*
X148743560Y-84724921D01*
X148768100Y-84725718D01*
X148847739Y-84716637D01*
X148917898Y-84687878D01*
X148977392Y-84644222D01*
X149028458Y-84586753D01*
X149059375Y-84519761D01*
X149072070Y-84438637D01*
X149072621Y-84416230D01*
X149062031Y-84309618D01*
X149031480Y-84202208D01*
X148983844Y-84099791D01*
X148921996Y-84008162D01*
X148848811Y-83933112D01*
X148823000Y-83913211D01*
X148745518Y-83871894D01*
X148658624Y-83852248D01*
X148559949Y-83853824D01*
X148531008Y-83857826D01*
X148481653Y-83864109D01*
X148439253Y-83866532D01*
X148412505Y-83864622D01*
X148411481Y-83864326D01*
X148383279Y-83843415D01*
X148364313Y-83806831D01*
X148357883Y-83763602D01*
X148363227Y-83732377D01*
X148388121Y-83699071D01*
X148436055Y-83674001D01*
X148505930Y-83657498D01*
X148596648Y-83649898D01*
X148636647Y-83649415D01*
X148636647Y-83179580D01*
X148614403Y-83185663D01*
X148583720Y-83197525D01*
X148542695Y-83216138D01*
X148488485Y-83242734D01*
X148418245Y-83278542D01*
X148329131Y-83324795D01*
X148304550Y-83337622D01*
X148190968Y-83396748D01*
X148097054Y-83445011D01*
X148020068Y-83483513D01*
X147957270Y-83513352D01*
X147905920Y-83535628D01*
X147863279Y-83551440D01*
X147826606Y-83561889D01*
X147793163Y-83568073D01*
X147760208Y-83571093D01*
X147725003Y-83572047D01*
X147720350Y-83572075D01*
X147644349Y-83568229D01*
X147583696Y-83553513D01*
X147529802Y-83524370D01*
X147474077Y-83477243D01*
X147461495Y-83464886D01*
X147385478Y-83371173D01*
X147329907Y-83263105D01*
X147295331Y-83142113D01*
X147282297Y-83009626D01*
X147282200Y-82996624D01*
X147282803Y-82938681D01*
X147285883Y-82897607D01*
X147293349Y-82864875D01*
X147307107Y-82831960D01*
X147327853Y-82792554D01*
X147364971Y-82728968D01*
X147396171Y-82686366D01*
X147424168Y-82661846D01*
X147451674Y-82652505D01*
X147459038Y-82652203D01*
X147503222Y-82664091D01*
X147536833Y-82694155D01*
X147554770Y-82735769D01*
X147553859Y-82775364D01*
X147544113Y-82804916D01*
X147526856Y-82847571D01*
X147507407Y-82890687D01*
X147486367Y-82938750D01*
X147475994Y-82976258D01*
X147473973Y-83014489D01*
X147475946Y-83044006D01*
X147492494Y-83124568D01*
X147524950Y-83198448D01*
X147570010Y-83261790D01*
X147624367Y-83310738D01*
X147684717Y-83341436D01*
X147738515Y-83350300D01*
X147782831Y-83343739D01*
X147837824Y-83326666D01*
X147893267Y-83302998D01*
X147938934Y-83276648D01*
X147947279Y-83270380D01*
X147983708Y-83241072D01*
X147913173Y-83102011D01*
X147869687Y-83012592D01*
X147838653Y-82938523D01*
X147818501Y-82873972D01*
X147807662Y-82813109D01*
X147804567Y-82750103D01*
X147806041Y-82703848D01*
X147818304Y-82600189D01*
X147844003Y-82513591D01*
X147885514Y-82438246D01*
X147942104Y-82371458D01*
X148019339Y-82308642D01*
X148101132Y-82270480D01*
X148186434Y-82257167D01*
X148186434Y-80156039D01*
X148169807Y-80158042D01*
X148127015Y-80161446D01*
X148071253Y-80164968D01*
X148012450Y-80168001D01*
X147844401Y-80181821D01*
X147662917Y-80207718D01*
X147660206Y-80208248D01*
X147660206Y-80818441D01*
X147704263Y-80826971D01*
X147733036Y-80854969D01*
X147746639Y-80894123D01*
X147748828Y-80915930D01*
X147744632Y-80935939D01*
X147731831Y-80955623D01*
X147708202Y-80976454D01*
X147671522Y-80999904D01*
X147619570Y-81027447D01*
X147550122Y-81060556D01*
X147460956Y-81100702D01*
X147383800Y-81134574D01*
X147300708Y-81171007D01*
X147225213Y-81204456D01*
X147160469Y-81233495D01*
X147109632Y-81256700D01*
X147075856Y-81272642D01*
X147062345Y-81279850D01*
X147064577Y-81293174D01*
X147075391Y-81325305D01*
X147092959Y-81371877D01*
X147115456Y-81428528D01*
X147141054Y-81490895D01*
X147167927Y-81554613D01*
X147194248Y-81615319D01*
X147218192Y-81668649D01*
X147237930Y-81710239D01*
X147251636Y-81735727D01*
X147255254Y-81740684D01*
X147269697Y-81743981D01*
X147306484Y-81748986D01*
X147362640Y-81755389D01*
X147435189Y-81762880D01*
X147521155Y-81771149D01*
X147617564Y-81779887D01*
X147699542Y-81786950D01*
X147822891Y-81797418D01*
X147923290Y-81806388D01*
X148003101Y-81814473D01*
X148064688Y-81822290D01*
X148110411Y-81830452D01*
X148142633Y-81839573D01*
X148163716Y-81850270D01*
X148176024Y-81863156D01*
X148181916Y-81878847D01*
X148183757Y-81897957D01*
X148183900Y-81912993D01*
X148178034Y-81950343D01*
X148163823Y-81979789D01*
X148162881Y-81980874D01*
X148131331Y-81999112D01*
X148096206Y-82004043D01*
X148072157Y-82002811D01*
X148027060Y-81999407D01*
X147965140Y-81994229D01*
X147890618Y-81987673D01*
X147807717Y-81980135D01*
X147720661Y-81972013D01*
X147633673Y-81963703D01*
X147550974Y-81955601D01*
X147476789Y-81948103D01*
X147415339Y-81941608D01*
X147370848Y-81936510D01*
X147355225Y-81934459D01*
X147324065Y-81931602D01*
X147310522Y-81937432D01*
X147307390Y-81955241D01*
X147307379Y-81956324D01*
X147302369Y-82005052D01*
X147289621Y-82067361D01*
X147271671Y-82133600D01*
X147251052Y-82194122D01*
X147235690Y-82229309D01*
X147195519Y-82291030D01*
X147139259Y-82354391D01*
X147074569Y-82412033D01*
X147009113Y-82456594D01*
X146987567Y-82467679D01*
X146874965Y-82507937D01*
X146765745Y-82523751D01*
X146693972Y-82518231D01*
X146693972Y-84843547D01*
X146697623Y-84844149D01*
X146706283Y-84856837D01*
X146727076Y-84888900D01*
X146758639Y-84938195D01*
X146799612Y-85002578D01*
X146848633Y-85079904D01*
X146904340Y-85168031D01*
X146965372Y-85264814D01*
X147030368Y-85368110D01*
X147031305Y-85369600D01*
X147100815Y-85480140D01*
X147170049Y-85590145D01*
X147237041Y-85696500D01*
X147299826Y-85796087D01*
X147356439Y-85885790D01*
X147404913Y-85962494D01*
X147443285Y-86023083D01*
X147463822Y-86055400D01*
X147500658Y-86114297D01*
X147531751Y-86166083D01*
X147554859Y-86206854D01*
X147567738Y-86232702D01*
X147569594Y-86239550D01*
X147558042Y-86251245D01*
X147529529Y-86272904D01*
X147488704Y-86301141D01*
X147452742Y-86324636D01*
X147405448Y-86354445D01*
X147366272Y-86378419D01*
X147340001Y-86393674D01*
X147331609Y-86397661D01*
X147322794Y-86387599D01*
X147302948Y-86359231D01*
X147274293Y-86315918D01*
X147239055Y-86261022D01*
X147199686Y-86198275D01*
X147155575Y-86127340D01*
X147120557Y-86071149D01*
X147120557Y-86123909D01*
X147128096Y-86132567D01*
X147145998Y-86158090D01*
X147171228Y-86195765D01*
X147200749Y-86240879D01*
X147231528Y-86288718D01*
X147260528Y-86334568D01*
X147284714Y-86373716D01*
X147301051Y-86401449D01*
X147306527Y-86412690D01*
X147296993Y-86422667D01*
X147270911Y-86441308D01*
X147233796Y-86464691D01*
X147231400Y-86466123D01*
X147194031Y-86486986D01*
X147166857Y-86499493D01*
X147155290Y-86501188D01*
X147155200Y-86500714D01*
X147153929Y-86484813D01*
X147150438Y-86448482D01*
X147145207Y-86396544D01*
X147138716Y-86333824D01*
X147136077Y-86308712D01*
X147129507Y-86243973D01*
X147124421Y-86188944D01*
X147121202Y-86148206D01*
X147120236Y-86126337D01*
X147120557Y-86123909D01*
X147120557Y-86071149D01*
X147101943Y-86041279D01*
X147042776Y-85946477D01*
X146982060Y-85849320D01*
X146923782Y-85756191D01*
X146902627Y-85722425D01*
X146813078Y-85579514D01*
X146736121Y-85456572D01*
X146670837Y-85352063D01*
X146616304Y-85264449D01*
X146571602Y-85192193D01*
X146535811Y-85133756D01*
X146508011Y-85087601D01*
X146487282Y-85052191D01*
X146472704Y-85025989D01*
X146463355Y-85007455D01*
X146458317Y-84995054D01*
X146456668Y-84987247D01*
X146457489Y-84982497D01*
X146458663Y-84980627D01*
X146477073Y-84964400D01*
X146509756Y-84941798D01*
X146551189Y-84915974D01*
X146595851Y-84890083D01*
X146638217Y-84867279D01*
X146672765Y-84850715D01*
X146693972Y-84843547D01*
X146693972Y-82518231D01*
X146661795Y-82515755D01*
X146564999Y-82484585D01*
X146477246Y-82430877D01*
X146400421Y-82355265D01*
X146357279Y-82289969D01*
X146357279Y-84575960D01*
X146368209Y-84581680D01*
X146394961Y-84599799D01*
X146433291Y-84627145D01*
X146478954Y-84660546D01*
X146527704Y-84696829D01*
X146575297Y-84732822D01*
X146617489Y-84765353D01*
X146650035Y-84791248D01*
X146668690Y-84807336D01*
X146671493Y-84810800D01*
X146661475Y-84819652D01*
X146634174Y-84838731D01*
X146593998Y-84865052D01*
X146554680Y-84889858D01*
X146502525Y-84921670D01*
X146467665Y-84940990D01*
X146446236Y-84949376D01*
X146434373Y-84948387D01*
X146428636Y-84940658D01*
X146422731Y-84920163D01*
X146413865Y-84882075D01*
X146403094Y-84831787D01*
X146391474Y-84774695D01*
X146380060Y-84716192D01*
X146369907Y-84661672D01*
X146362071Y-84616530D01*
X146357607Y-84586160D01*
X146357279Y-84575960D01*
X146357279Y-82289969D01*
X146336412Y-82258386D01*
X146330157Y-82246306D01*
X146309210Y-82203238D01*
X146282169Y-82145317D01*
X146250924Y-82076835D01*
X146217367Y-82002087D01*
X146183388Y-81925366D01*
X146150879Y-81850965D01*
X146121730Y-81783177D01*
X146097833Y-81726296D01*
X146081079Y-81684616D01*
X146073932Y-81664571D01*
X146069307Y-81609339D01*
X146083004Y-81552181D01*
X146112021Y-81504291D01*
X146118762Y-81497403D01*
X146136923Y-81486117D01*
X146175878Y-81466037D01*
X146233192Y-81438235D01*
X146306430Y-81403783D01*
X146393158Y-81363754D01*
X146490939Y-81319220D01*
X146597339Y-81271256D01*
X146709922Y-81220932D01*
X146826253Y-81169321D01*
X146943897Y-81117497D01*
X147060419Y-81066532D01*
X147173383Y-81017498D01*
X147280355Y-80971469D01*
X147378899Y-80929516D01*
X147466579Y-80892713D01*
X147540962Y-80862132D01*
X147599610Y-80838846D01*
X147640090Y-80823927D01*
X147659966Y-80818448D01*
X147660206Y-80818441D01*
X147660206Y-80208248D01*
X147476079Y-80244274D01*
X147291973Y-80290072D01*
X147252723Y-80301222D01*
X147197892Y-80319103D01*
X147125655Y-80345470D01*
X147041611Y-80378039D01*
X146951356Y-80414523D01*
X146860489Y-80452639D01*
X146774606Y-80490101D01*
X146699306Y-80524624D01*
X146666250Y-80540627D01*
X146593858Y-80579307D01*
X146510203Y-80628567D01*
X146419233Y-80685664D01*
X146324898Y-80747853D01*
X146231145Y-80812391D01*
X146141924Y-80876535D01*
X146061183Y-80937540D01*
X145992870Y-80992663D01*
X145940934Y-81039160D01*
X145924261Y-81056209D01*
X145900611Y-81078516D01*
X145882833Y-81089470D01*
X145881183Y-81089700D01*
X145877530Y-81077934D01*
X145875796Y-81046201D01*
X145875816Y-80999848D01*
X145877421Y-80944222D01*
X145880444Y-80884670D01*
X145884719Y-80826539D01*
X145890078Y-80775176D01*
X145891311Y-80765850D01*
X145921276Y-80570467D01*
X145954275Y-80397968D01*
X145991209Y-80245929D01*
X146032979Y-80111922D01*
X146080487Y-79993523D01*
X146134632Y-79888306D01*
X146196316Y-79793845D01*
X146266439Y-79707714D01*
X146296019Y-79676115D01*
X146407181Y-79578133D01*
X146527185Y-79503707D01*
X146655595Y-79452746D01*
X146791972Y-79425164D01*
X146935879Y-79420871D01*
X146935879Y-79144181D01*
X146858292Y-79138044D01*
X146693059Y-79148569D01*
X146534122Y-79183175D01*
X146382151Y-79241904D01*
X146348750Y-79258570D01*
X146283884Y-79299654D01*
X146211471Y-79357655D01*
X146136616Y-79427466D01*
X146064420Y-79503977D01*
X145999989Y-79582082D01*
X145948424Y-79656672D01*
X145944475Y-79663229D01*
X145865049Y-79816928D01*
X145796260Y-79991534D01*
X145738629Y-80184656D01*
X145692674Y-80393904D01*
X145658915Y-80616888D01*
X145637871Y-80851215D01*
X145630061Y-81094497D01*
X145630024Y-81110989D01*
X145630192Y-81192123D01*
X145629778Y-81252940D01*
X145627294Y-81298506D01*
X145621251Y-81333886D01*
X145610158Y-81364147D01*
X145592526Y-81394355D01*
X145566866Y-81429576D01*
X145531689Y-81474876D01*
X145517755Y-81492879D01*
X145452622Y-81577881D01*
X145399984Y-81648147D01*
X145356533Y-81708826D01*
X145318960Y-81765067D01*
X145283955Y-81822018D01*
X145248210Y-81884828D01*
X145208416Y-81958645D01*
X145164146Y-82043085D01*
X145068842Y-82237546D01*
X144989902Y-82425250D01*
X144925208Y-82612855D01*
X144872641Y-82807021D01*
X144830084Y-83014405D01*
X144804900Y-83172500D01*
X144776078Y-83463017D01*
X144772221Y-83756537D01*
X144793254Y-84051799D01*
X144839103Y-84347542D01*
X144886988Y-84558325D01*
X144919543Y-84678917D01*
X144951958Y-84785010D01*
X144987136Y-84884458D01*
X145027980Y-84985113D01*
X145077393Y-85094830D01*
X145112779Y-85169140D01*
X145215414Y-85381430D01*
X145221346Y-85524740D01*
X145221364Y-85642739D01*
X145209686Y-85747262D01*
X145184608Y-85848184D01*
X145149049Y-85944405D01*
X145127436Y-85988970D01*
X145093550Y-86049851D01*
X145050100Y-86122851D01*
X144999795Y-86203774D01*
X144945345Y-86288425D01*
X144889457Y-86372608D01*
X144834841Y-86452125D01*
X144784205Y-86522783D01*
X144740259Y-86580384D01*
X144731432Y-86591285D01*
X144689867Y-86642146D01*
X144640069Y-86703480D01*
X144589647Y-86765902D01*
X144562185Y-86800065D01*
X144407905Y-86983349D01*
X144238767Y-87167865D01*
X144059752Y-87348776D01*
X143875839Y-87521242D01*
X143692005Y-87680425D01*
X143513231Y-87821488D01*
X143503950Y-87828398D01*
X143446752Y-87871014D01*
X143389236Y-87914152D01*
X143338716Y-87952313D01*
X143307100Y-87976448D01*
X143272195Y-88002359D01*
X143221700Y-88038567D01*
X143161102Y-88081198D01*
X143095887Y-88126375D01*
X143059450Y-88151307D01*
X142908657Y-88254989D01*
X142777752Y-88347386D01*
X142729250Y-88382927D01*
X142729250Y-88951557D01*
X142807267Y-88962925D01*
X142874674Y-88994527D01*
X142929223Y-89042617D01*
X142968668Y-89103447D01*
X142990762Y-89173268D01*
X142993256Y-89248331D01*
X142973904Y-89324890D01*
X142964956Y-89344700D01*
X142926660Y-89396138D01*
X142871500Y-89437438D01*
X142807557Y-89463261D01*
X142777675Y-89468448D01*
X142695277Y-89465497D01*
X142621664Y-89442196D01*
X142559725Y-89401610D01*
X142512345Y-89346806D01*
X142482414Y-89280849D01*
X142472818Y-89206806D01*
X142479693Y-89152039D01*
X142508949Y-89074397D01*
X142555763Y-89014400D01*
X142618231Y-88973579D01*
X142694447Y-88953464D01*
X142729250Y-88951557D01*
X142729250Y-88382927D01*
X142664777Y-88430172D01*
X142567777Y-88505025D01*
X142484795Y-88573620D01*
X142413874Y-88637634D01*
X142353058Y-88698742D01*
X142300390Y-88758621D01*
X142253915Y-88818946D01*
X142217098Y-88872938D01*
X142170336Y-88953683D01*
X142140645Y-89028303D01*
X142125184Y-89106440D01*
X142121112Y-89197737D01*
X142121118Y-89198650D01*
X142121118Y-89198650D01*
G37*
X142121118Y-89198650D02*
X142125432Y-89280206D01*
X142138885Y-89349849D01*
X142164250Y-89416000D01*
X142204303Y-89487081D01*
X142228033Y-89523177D01*
X142312835Y-89628726D01*
X142408150Y-89712492D01*
X142512086Y-89773937D01*
X142622747Y-89812522D01*
X142738239Y-89827706D01*
X142856668Y-89818951D01*
X142976140Y-89785717D01*
X143044162Y-89755522D01*
X143088596Y-89727726D01*
X143144369Y-89684943D01*
X143206544Y-89631686D01*
X143270184Y-89572466D01*
X143330352Y-89511798D01*
X143382111Y-89454193D01*
X143405168Y-89425503D01*
X143442610Y-89376369D01*
X143480593Y-89326642D01*
X143511728Y-89285994D01*
X143515411Y-89281200D01*
X143537152Y-89251764D01*
X143569817Y-89206082D01*
X143610050Y-89148914D01*
X143654496Y-89085022D01*
X143689951Y-89033550D01*
X143749524Y-88947407D01*
X143817500Y-88850354D01*
X143889817Y-88748094D01*
X143962411Y-88646332D01*
X144031222Y-88550773D01*
X144092186Y-88467121D01*
X144122890Y-88425580D01*
X144196793Y-88331046D01*
X144286479Y-88224093D01*
X144388277Y-88108632D01*
X144498516Y-87988574D01*
X144613524Y-87867828D01*
X144729630Y-87750307D01*
X144843163Y-87639920D01*
X144950449Y-87540578D01*
X144970981Y-87522250D01*
X145054629Y-87449911D01*
X145149563Y-87370882D01*
X145251159Y-87288775D01*
X145354795Y-87207204D01*
X145455849Y-87129781D01*
X145549697Y-87060119D01*
X145631716Y-87001832D01*
X145669300Y-86976465D01*
X145805876Y-86890675D01*
X145928886Y-86822755D01*
X146041668Y-86771615D01*
X146147556Y-86736166D01*
X146249889Y-86715317D01*
X146352000Y-86707979D01*
X146457228Y-86713062D01*
X146471048Y-86714548D01*
X146518727Y-86720907D01*
X146559217Y-86729355D01*
X146599067Y-86742182D01*
X146644826Y-86761680D01*
X146703043Y-86790142D01*
X146737748Y-86807872D01*
X146867690Y-86870182D01*
X147004439Y-86926359D01*
X147151965Y-86977709D01*
X147314241Y-87025536D01*
X147495236Y-87071147D01*
X147631450Y-87101652D01*
X147701652Y-87115716D01*
X147773425Y-87128427D01*
X147837352Y-87138202D01*
X147876275Y-87142822D01*
X147968701Y-87151312D01*
X148039502Y-87228831D01*
X148133000Y-87326249D01*
X148240049Y-87429386D01*
X148355923Y-87534234D01*
X148475892Y-87636786D01*
X148595229Y-87733033D01*
X148709204Y-87818968D01*
X148813090Y-87890583D01*
X148841622Y-87908701D01*
X148996956Y-87996736D01*
X149154571Y-88070281D01*
X149311040Y-88128265D01*
X149462931Y-88169619D01*
X149606816Y-88193273D01*
X149739264Y-88198157D01*
X149765050Y-88196717D01*
X149921240Y-88173201D01*
X150067242Y-88126514D01*
X150202767Y-88056875D01*
X150327525Y-87964504D01*
X150441228Y-87849620D01*
X150543587Y-87712443D01*
X150634312Y-87553193D01*
X150647895Y-87525332D01*
X150717002Y-87364325D01*
X150774797Y-87193775D01*
X150821791Y-87011122D01*
X150858492Y-86813800D01*
X150885409Y-86599248D01*
X150903052Y-86364901D01*
X150909578Y-86207800D01*
X150913316Y-86107115D01*
X150917769Y-86028562D01*
X150922860Y-85973062D01*
X150928517Y-85941533D01*
X150931834Y-85934750D01*
X150965113Y-85900075D01*
X151008274Y-85847017D01*
X151058796Y-85779361D01*
X151114155Y-85700887D01*
X151171832Y-85615379D01*
X151229303Y-85526620D01*
X151284047Y-85438392D01*
X151333541Y-85354478D01*
X151375265Y-85278662D01*
X151394445Y-85240844D01*
X151465916Y-85087023D01*
X151530873Y-84933166D01*
X151587286Y-84784593D01*
X151633128Y-84646623D01*
X151664464Y-84532624D01*
X151708442Y-84329086D01*
X151739790Y-84134637D01*
X151759230Y-83941563D01*
X151767485Y-83742148D01*
X151765280Y-83528677D01*
X151763390Y-83477300D01*
X151753654Y-83315318D01*
X151737548Y-83164571D01*
X151713550Y-83013572D01*
X151681073Y-82855000D01*
X151619064Y-82624793D01*
X151535469Y-82390097D01*
X151432373Y-82155631D01*
X151311863Y-81926113D01*
X151176025Y-81706261D01*
X151167926Y-81694211D01*
X150991547Y-81455491D01*
X150796357Y-81233708D01*
X150655954Y-81099334D01*
X150655954Y-86239045D01*
X150660291Y-86242278D01*
X150659212Y-86258221D01*
X150656361Y-86294018D01*
X150652185Y-86344220D01*
X150647566Y-86398300D01*
X150624736Y-86610488D01*
X150594324Y-86801773D01*
X150555440Y-86975752D01*
X150507191Y-87136025D01*
X150448685Y-87286191D01*
X150403817Y-87381915D01*
X150320607Y-87525740D01*
X150226467Y-87646984D01*
X150121638Y-87745479D01*
X150006361Y-87821058D01*
X149880878Y-87873555D01*
X149745430Y-87902803D01*
X149640044Y-87909379D01*
X149519877Y-87900722D01*
X149387601Y-87875168D01*
X149248642Y-87834201D01*
X149108423Y-87779304D01*
X149031146Y-87742916D01*
X148938586Y-87690987D01*
X148833706Y-87622555D01*
X148720440Y-87540634D01*
X148602722Y-87448239D01*
X148484484Y-87348386D01*
X148369660Y-87244089D01*
X148326775Y-87202978D01*
X148312228Y-87184431D01*
X148314941Y-87171849D01*
X148337114Y-87164236D01*
X148380950Y-87160594D01*
X148422025Y-87159886D01*
X148536530Y-87154637D01*
X148668892Y-87140395D01*
X148813660Y-87118257D01*
X148965383Y-87089325D01*
X149118608Y-87054696D01*
X149267885Y-87015471D01*
X149407762Y-86972748D01*
X149486967Y-86945136D01*
X149556377Y-86918938D01*
X149624479Y-86892122D01*
X149686606Y-86866639D01*
X149738089Y-86844439D01*
X149774263Y-86827472D01*
X149789274Y-86818796D01*
X149804915Y-86809103D01*
X149838639Y-86789883D01*
X149886115Y-86763551D01*
X149943010Y-86732524D01*
X149969987Y-86717968D01*
X150041531Y-86678129D01*
X150116690Y-86633993D01*
X150187034Y-86590643D01*
X150244131Y-86553161D01*
X150249387Y-86549513D01*
X150298664Y-86514154D01*
X150354323Y-86472771D01*
X150412468Y-86428428D01*
X150469205Y-86384194D01*
X150520639Y-86343135D01*
X150562876Y-86308318D01*
X150592021Y-86282809D01*
X150603767Y-86270462D01*
X150618470Y-86256189D01*
X150639106Y-86244102D01*
X150655954Y-86239045D01*
X150655954Y-81099334D01*
X150583132Y-81029638D01*
X150352644Y-80844052D01*
X150232542Y-80759358D01*
X150125320Y-80689041D01*
X150022933Y-80626463D01*
X149920577Y-80569197D01*
X149813451Y-80514817D01*
X149696753Y-80460895D01*
X149565682Y-80405004D01*
X149494253Y-80376344D01*
X149494253Y-85001285D01*
X149528589Y-85012492D01*
X149559012Y-85040567D01*
X149578019Y-85077233D01*
X149580900Y-85096855D01*
X149572861Y-85128450D01*
X149558675Y-85152021D01*
X149540935Y-85164686D01*
X149503496Y-85185527D01*
X149450008Y-85212718D01*
X149384118Y-85244432D01*
X149309475Y-85278843D01*
X149270432Y-85296303D01*
X149004415Y-85414050D01*
X148941804Y-85570139D01*
X148919036Y-85628172D01*
X148900757Y-85677219D01*
X148888575Y-85712775D01*
X148884096Y-85730336D01*
X148884305Y-85731338D01*
X148897396Y-85735116D01*
X148932673Y-85743791D01*
X148987522Y-85756758D01*
X149059331Y-85773414D01*
X149145489Y-85793155D01*
X149243382Y-85815376D01*
X149350398Y-85839475D01*
X149403432Y-85851351D01*
X149514951Y-85876288D01*
X149619529Y-85899688D01*
X149714393Y-85920929D01*
X149796770Y-85939390D01*
X149863886Y-85954450D01*
X149912968Y-85965486D01*
X149941242Y-85971876D01*
X149946348Y-85973050D01*
X149988830Y-85993182D01*
X150015168Y-86026577D01*
X150020968Y-86067364D01*
X150020222Y-86071764D01*
X150007783Y-86107840D01*
X149991530Y-86133941D01*
X149959524Y-86152137D01*
X149925006Y-86156390D01*
X149903159Y-86153411D01*
X149859418Y-86145149D01*
X149796594Y-86132213D01*
X149717500Y-86115212D01*
X149624948Y-86094757D01*
X149521751Y-86071457D01*
X149410720Y-86045923D01*
X149345950Y-86030823D01*
X149233451Y-86004696D01*
X149128635Y-85980790D01*
X149034073Y-85959659D01*
X148952336Y-85941859D01*
X148885996Y-85927944D01*
X148837623Y-85918468D01*
X148809788Y-85913985D01*
X148803971Y-85913958D01*
X148797276Y-85927248D01*
X148782199Y-85961271D01*
X148759924Y-86013228D01*
X148731632Y-86080322D01*
X148698505Y-86159755D01*
X148661726Y-86248727D01*
X148634210Y-86315750D01*
X148594996Y-86411272D01*
X148558136Y-86500564D01*
X148524907Y-86580568D01*
X148496590Y-86648225D01*
X148474460Y-86700477D01*
X148459797Y-86734266D01*
X148454855Y-86744920D01*
X148425878Y-86779059D01*
X148387890Y-86795121D01*
X148347240Y-86794479D01*
X148310276Y-86778504D01*
X148283347Y-86748572D01*
X148272801Y-86706054D01*
X148272800Y-86705547D01*
X148277730Y-86689302D01*
X148291871Y-86652135D01*
X148314246Y-86596392D01*
X148343882Y-86524419D01*
X148379801Y-86438562D01*
X148421030Y-86341167D01*
X148466592Y-86234580D01*
X148515512Y-86121148D01*
X148521677Y-86106923D01*
X148570658Y-85993569D01*
X148616209Y-85887409D01*
X148657388Y-85790691D01*
X148693253Y-85705665D01*
X148722860Y-85634580D01*
X148745267Y-85579684D01*
X148759533Y-85543227D01*
X148764714Y-85527459D01*
X148764649Y-85527016D01*
X148752058Y-85530551D01*
X148719005Y-85543288D01*
X148668225Y-85564081D01*
X148602451Y-85591781D01*
X148524417Y-85625241D01*
X148436857Y-85663312D01*
X148369288Y-85693006D01*
X148274929Y-85734179D01*
X148186614Y-85771816D01*
X148107361Y-85804697D01*
X148040191Y-85831605D01*
X147988122Y-85851323D01*
X147954172Y-85862632D01*
X147943087Y-85864900D01*
X147902747Y-85852881D01*
X147880021Y-85831437D01*
X147857087Y-85786845D01*
X147858776Y-85744088D01*
X147875925Y-85714927D01*
X147891487Y-85705144D01*
X147928051Y-85686411D01*
X147983263Y-85659766D01*
X148054772Y-85626248D01*
X148140223Y-85586892D01*
X148237265Y-85542737D01*
X148343545Y-85494820D01*
X148456709Y-85444179D01*
X148574406Y-85391852D01*
X148694281Y-85338875D01*
X148813983Y-85286286D01*
X148931159Y-85235123D01*
X149043455Y-85186424D01*
X149148520Y-85141225D01*
X149244000Y-85100565D01*
X149327542Y-85065481D01*
X149396794Y-85037010D01*
X149449403Y-85016190D01*
X149483016Y-85004059D01*
X149494253Y-85001285D01*
X149494253Y-80376344D01*
X149415435Y-80344718D01*
X149400972Y-80339058D01*
X149326067Y-80313234D01*
X149232237Y-80286190D01*
X149125821Y-80259335D01*
X149013159Y-80234081D01*
X148900587Y-80211841D01*
X148794446Y-80194025D01*
X148701075Y-80182046D01*
X148691900Y-80181150D01*
X148596650Y-80172184D01*
X148418850Y-79991393D01*
X148252017Y-79828763D01*
X148091132Y-79686800D01*
X147932517Y-79562668D01*
X147772491Y-79453530D01*
X147607376Y-79356550D01*
X147568743Y-79335902D01*
X147385046Y-79250529D01*
X147204957Y-79189067D01*
X147029149Y-79151558D01*
X146935879Y-79144181D01*
X146935879Y-79420871D01*
X147086876Y-79439779D01*
X147244527Y-79481799D01*
X147408394Y-79546843D01*
X147578038Y-79634822D01*
X147753021Y-79745648D01*
X147932906Y-79879231D01*
X148117255Y-80035485D01*
X148129925Y-80046915D01*
X148169174Y-80083379D01*
X148200091Y-80113848D01*
X148218578Y-80134184D01*
X148222000Y-80139860D01*
X148211269Y-80149481D01*
X148193425Y-80155197D01*
X148186434Y-80156039D01*
X148186434Y-82257167D01*
X148274196Y-82268896D01*
X148345910Y-82296660D01*
X148426297Y-82347975D01*
X148492089Y-82415597D01*
X148546703Y-82503205D01*
X148556484Y-82523233D01*
X148575111Y-82565238D01*
X148586807Y-82600664D01*
X148593178Y-82638009D01*
X148595827Y-82685772D01*
X148596340Y-82734350D01*
X148595517Y-82794125D01*
X148593055Y-82849226D01*
X148589392Y-82891459D01*
X148587121Y-82905800D01*
X148577592Y-82950250D01*
X148653652Y-82945954D01*
X148697697Y-82944644D01*
X148725938Y-82948810D01*
X148747829Y-82961260D01*
X148767956Y-82979902D01*
X148792245Y-83005569D01*
X148803146Y-83025704D01*
X148802158Y-83049458D01*
X148790780Y-83085979D01*
X148787065Y-83096540D01*
X148764763Y-83144966D01*
X148737211Y-83171596D01*
X148699375Y-83180032D01*
X148672850Y-83178286D01*
X148656124Y-83177274D01*
X148637590Y-83179323D01*
X148636647Y-83179580D01*
X148636647Y-83649415D01*
X148694695Y-83650507D01*
X148737067Y-83654579D01*
X148773476Y-83663818D01*
X148813634Y-83680415D01*
X148848204Y-83697103D01*
X148938846Y-83755090D01*
X149022182Y-83833675D01*
X149096212Y-83928617D01*
X149158934Y-84035676D01*
X149208346Y-84150611D01*
X149242446Y-84269179D01*
X149259234Y-84387140D01*
X149256708Y-84500252D01*
X149249120Y-84546649D01*
X149214874Y-84649707D01*
X149160001Y-84740947D01*
X149087499Y-84817720D01*
X149000368Y-84877375D01*
X148901605Y-84917263D01*
X148811171Y-84933614D01*
X148738522Y-84935138D01*
X148671274Y-84925761D01*
X148606501Y-84903756D01*
X148541281Y-84867396D01*
X148472688Y-84814954D01*
X148397798Y-84744701D01*
X148313687Y-84654911D01*
X148285556Y-84623150D01*
X148211145Y-84539920D01*
X148148746Y-84474234D01*
X148095200Y-84423263D01*
X148047350Y-84384178D01*
X148002039Y-84354150D01*
X147961650Y-84332920D01*
X147882579Y-84307966D01*
X147805662Y-84305934D01*
X147733874Y-84324358D01*
X147670193Y-84360775D01*
X147617596Y-84412719D01*
X147579061Y-84477726D01*
X147557564Y-84553330D01*
X147556083Y-84637067D01*
X147560322Y-84665177D01*
X147590607Y-84776939D01*
X147634895Y-84873776D01*
X147691514Y-84953028D01*
X147758794Y-85012034D01*
X147789305Y-85029875D01*
X147827799Y-85047576D01*
X147863018Y-85058125D01*
X147904046Y-85063275D01*
X147959967Y-85064780D01*
X147970277Y-85064800D01*
X148038461Y-85067333D01*
X148085225Y-85076432D01*
X148114179Y-85094341D01*
X148128934Y-85123308D01*
X148133099Y-85165579D01*
X148133100Y-85166107D01*
X148128534Y-85203880D01*
X148112681Y-85230683D01*
X148082308Y-85248138D01*
X148034180Y-85257870D01*
X147965064Y-85261503D01*
X147942891Y-85261650D01*
X147883399Y-85260899D01*
X147840488Y-85257463D01*
X147805355Y-85249564D01*
X147769198Y-85235424D01*
X147736952Y-85220068D01*
X147642903Y-85159685D01*
X147559993Y-85076891D01*
X147488734Y-84972346D01*
X147429637Y-84846707D01*
X147417286Y-84812972D01*
X147417286Y-85931056D01*
X147431501Y-85939445D01*
X147463310Y-85958577D01*
X147508620Y-85985979D01*
X147563335Y-86019177D01*
X147590798Y-86035873D01*
X147753347Y-86134758D01*
X147711448Y-86162889D01*
X147674043Y-86187769D01*
X147638903Y-86210791D01*
X147636082Y-86212615D01*
X147602615Y-86234211D01*
X147548162Y-86147980D01*
X147514598Y-86094950D01*
X147479206Y-86039222D01*
X147450016Y-85993436D01*
X147429397Y-85959643D01*
X147417663Y-85937223D01*
X147417286Y-85931056D01*
X147417286Y-84812972D01*
X147414166Y-84804450D01*
X147396812Y-84749306D01*
X147386080Y-84700134D01*
X147380448Y-84646939D01*
X147378392Y-84579728D01*
X147378307Y-84569256D01*
X147378423Y-84507753D01*
X147380682Y-84463833D01*
X147386548Y-84429690D01*
X147397483Y-84397516D01*
X147414950Y-84359504D01*
X147419258Y-84350714D01*
X147469211Y-84270102D01*
X147533756Y-84204904D01*
X147617513Y-84150668D01*
X147637326Y-84140572D01*
X147674910Y-84123718D01*
X147709258Y-84113377D01*
X147748806Y-84108025D01*
X147801989Y-84106132D01*
X147828300Y-84106003D01*
X147886485Y-84106604D01*
X147927795Y-84109709D01*
X147960745Y-84117180D01*
X147993850Y-84130877D01*
X148031434Y-84150400D01*
X148064701Y-84170118D01*
X148099986Y-84195090D01*
X148139546Y-84227407D01*
X148185639Y-84269161D01*
X148240521Y-84322445D01*
X148306449Y-84389351D01*
X148385681Y-84471971D01*
X148437900Y-84527150D01*
X148511243Y-84600993D01*
X148574815Y-84655487D01*
X148632281Y-84692837D01*
X148687307Y-84715247D01*
X148743560Y-84724921D01*
X148768100Y-84725718D01*
X148847739Y-84716637D01*
X148917898Y-84687878D01*
X148977392Y-84644222D01*
X149028458Y-84586753D01*
X149059375Y-84519761D01*
X149072070Y-84438637D01*
X149072621Y-84416230D01*
X149062031Y-84309618D01*
X149031480Y-84202208D01*
X148983844Y-84099791D01*
X148921996Y-84008162D01*
X148848811Y-83933112D01*
X148823000Y-83913211D01*
X148745518Y-83871894D01*
X148658624Y-83852248D01*
X148559949Y-83853824D01*
X148531008Y-83857826D01*
X148481653Y-83864109D01*
X148439253Y-83866532D01*
X148412505Y-83864622D01*
X148411481Y-83864326D01*
X148383279Y-83843415D01*
X148364313Y-83806831D01*
X148357883Y-83763602D01*
X148363227Y-83732377D01*
X148388121Y-83699071D01*
X148436055Y-83674001D01*
X148505930Y-83657498D01*
X148596648Y-83649898D01*
X148636647Y-83649415D01*
X148636647Y-83179580D01*
X148614403Y-83185663D01*
X148583720Y-83197525D01*
X148542695Y-83216138D01*
X148488485Y-83242734D01*
X148418245Y-83278542D01*
X148329131Y-83324795D01*
X148304550Y-83337622D01*
X148190968Y-83396748D01*
X148097054Y-83445011D01*
X148020068Y-83483513D01*
X147957270Y-83513352D01*
X147905920Y-83535628D01*
X147863279Y-83551440D01*
X147826606Y-83561889D01*
X147793163Y-83568073D01*
X147760208Y-83571093D01*
X147725003Y-83572047D01*
X147720350Y-83572075D01*
X147644349Y-83568229D01*
X147583696Y-83553513D01*
X147529802Y-83524370D01*
X147474077Y-83477243D01*
X147461495Y-83464886D01*
X147385478Y-83371173D01*
X147329907Y-83263105D01*
X147295331Y-83142113D01*
X147282297Y-83009626D01*
X147282200Y-82996624D01*
X147282803Y-82938681D01*
X147285883Y-82897607D01*
X147293349Y-82864875D01*
X147307107Y-82831960D01*
X147327853Y-82792554D01*
X147364971Y-82728968D01*
X147396171Y-82686366D01*
X147424168Y-82661846D01*
X147451674Y-82652505D01*
X147459038Y-82652203D01*
X147503222Y-82664091D01*
X147536833Y-82694155D01*
X147554770Y-82735769D01*
X147553859Y-82775364D01*
X147544113Y-82804916D01*
X147526856Y-82847571D01*
X147507407Y-82890687D01*
X147486367Y-82938750D01*
X147475994Y-82976258D01*
X147473973Y-83014489D01*
X147475946Y-83044006D01*
X147492494Y-83124568D01*
X147524950Y-83198448D01*
X147570010Y-83261790D01*
X147624367Y-83310738D01*
X147684717Y-83341436D01*
X147738515Y-83350300D01*
X147782831Y-83343739D01*
X147837824Y-83326666D01*
X147893267Y-83302998D01*
X147938934Y-83276648D01*
X147947279Y-83270380D01*
X147983708Y-83241072D01*
X147913173Y-83102011D01*
X147869687Y-83012592D01*
X147838653Y-82938523D01*
X147818501Y-82873972D01*
X147807662Y-82813109D01*
X147804567Y-82750103D01*
X147806041Y-82703848D01*
X147818304Y-82600189D01*
X147844003Y-82513591D01*
X147885514Y-82438246D01*
X147942104Y-82371458D01*
X148019339Y-82308642D01*
X148101132Y-82270480D01*
X148186434Y-82257167D01*
X148186434Y-80156039D01*
X148169807Y-80158042D01*
X148127015Y-80161446D01*
X148071253Y-80164968D01*
X148012450Y-80168001D01*
X147844401Y-80181821D01*
X147662917Y-80207718D01*
X147660206Y-80208248D01*
X147660206Y-80818441D01*
X147704263Y-80826971D01*
X147733036Y-80854969D01*
X147746639Y-80894123D01*
X147748828Y-80915930D01*
X147744632Y-80935939D01*
X147731831Y-80955623D01*
X147708202Y-80976454D01*
X147671522Y-80999904D01*
X147619570Y-81027447D01*
X147550122Y-81060556D01*
X147460956Y-81100702D01*
X147383800Y-81134574D01*
X147300708Y-81171007D01*
X147225213Y-81204456D01*
X147160469Y-81233495D01*
X147109632Y-81256700D01*
X147075856Y-81272642D01*
X147062345Y-81279850D01*
X147064577Y-81293174D01*
X147075391Y-81325305D01*
X147092959Y-81371877D01*
X147115456Y-81428528D01*
X147141054Y-81490895D01*
X147167927Y-81554613D01*
X147194248Y-81615319D01*
X147218192Y-81668649D01*
X147237930Y-81710239D01*
X147251636Y-81735727D01*
X147255254Y-81740684D01*
X147269697Y-81743981D01*
X147306484Y-81748986D01*
X147362640Y-81755389D01*
X147435189Y-81762880D01*
X147521155Y-81771149D01*
X147617564Y-81779887D01*
X147699542Y-81786950D01*
X147822891Y-81797418D01*
X147923290Y-81806388D01*
X148003101Y-81814473D01*
X148064688Y-81822290D01*
X148110411Y-81830452D01*
X148142633Y-81839573D01*
X148163716Y-81850270D01*
X148176024Y-81863156D01*
X148181916Y-81878847D01*
X148183757Y-81897957D01*
X148183900Y-81912993D01*
X148178034Y-81950343D01*
X148163823Y-81979789D01*
X148162881Y-81980874D01*
X148131331Y-81999112D01*
X148096206Y-82004043D01*
X148072157Y-82002811D01*
X148027060Y-81999407D01*
X147965140Y-81994229D01*
X147890618Y-81987673D01*
X147807717Y-81980135D01*
X147720661Y-81972013D01*
X147633673Y-81963703D01*
X147550974Y-81955601D01*
X147476789Y-81948103D01*
X147415339Y-81941608D01*
X147370848Y-81936510D01*
X147355225Y-81934459D01*
X147324065Y-81931602D01*
X147310522Y-81937432D01*
X147307390Y-81955241D01*
X147307379Y-81956324D01*
X147302369Y-82005052D01*
X147289621Y-82067361D01*
X147271671Y-82133600D01*
X147251052Y-82194122D01*
X147235690Y-82229309D01*
X147195519Y-82291030D01*
X147139259Y-82354391D01*
X147074569Y-82412033D01*
X147009113Y-82456594D01*
X146987567Y-82467679D01*
X146874965Y-82507937D01*
X146765745Y-82523751D01*
X146693972Y-82518231D01*
X146693972Y-84843547D01*
X146697623Y-84844149D01*
X146706283Y-84856837D01*
X146727076Y-84888900D01*
X146758639Y-84938195D01*
X146799612Y-85002578D01*
X146848633Y-85079904D01*
X146904340Y-85168031D01*
X146965372Y-85264814D01*
X147030368Y-85368110D01*
X147031305Y-85369600D01*
X147100815Y-85480140D01*
X147170049Y-85590145D01*
X147237041Y-85696500D01*
X147299826Y-85796087D01*
X147356439Y-85885790D01*
X147404913Y-85962494D01*
X147443285Y-86023083D01*
X147463822Y-86055400D01*
X147500658Y-86114297D01*
X147531751Y-86166083D01*
X147554859Y-86206854D01*
X147567738Y-86232702D01*
X147569594Y-86239550D01*
X147558042Y-86251245D01*
X147529529Y-86272904D01*
X147488704Y-86301141D01*
X147452742Y-86324636D01*
X147405448Y-86354445D01*
X147366272Y-86378419D01*
X147340001Y-86393674D01*
X147331609Y-86397661D01*
X147322794Y-86387599D01*
X147302948Y-86359231D01*
X147274293Y-86315918D01*
X147239055Y-86261022D01*
X147199686Y-86198275D01*
X147155575Y-86127340D01*
X147120557Y-86071149D01*
X147120557Y-86123909D01*
X147128096Y-86132567D01*
X147145998Y-86158090D01*
X147171228Y-86195765D01*
X147200749Y-86240879D01*
X147231528Y-86288718D01*
X147260528Y-86334568D01*
X147284714Y-86373716D01*
X147301051Y-86401449D01*
X147306527Y-86412690D01*
X147296993Y-86422667D01*
X147270911Y-86441308D01*
X147233796Y-86464691D01*
X147231400Y-86466123D01*
X147194031Y-86486986D01*
X147166857Y-86499493D01*
X147155290Y-86501188D01*
X147155200Y-86500714D01*
X147153929Y-86484813D01*
X147150438Y-86448482D01*
X147145207Y-86396544D01*
X147138716Y-86333824D01*
X147136077Y-86308712D01*
X147129507Y-86243973D01*
X147124421Y-86188944D01*
X147121202Y-86148206D01*
X147120236Y-86126337D01*
X147120557Y-86123909D01*
X147120557Y-86071149D01*
X147101943Y-86041279D01*
X147042776Y-85946477D01*
X146982060Y-85849320D01*
X146923782Y-85756191D01*
X146902627Y-85722425D01*
X146813078Y-85579514D01*
X146736121Y-85456572D01*
X146670837Y-85352063D01*
X146616304Y-85264449D01*
X146571602Y-85192193D01*
X146535811Y-85133756D01*
X146508011Y-85087601D01*
X146487282Y-85052191D01*
X146472704Y-85025989D01*
X146463355Y-85007455D01*
X146458317Y-84995054D01*
X146456668Y-84987247D01*
X146457489Y-84982497D01*
X146458663Y-84980627D01*
X146477073Y-84964400D01*
X146509756Y-84941798D01*
X146551189Y-84915974D01*
X146595851Y-84890083D01*
X146638217Y-84867279D01*
X146672765Y-84850715D01*
X146693972Y-84843547D01*
X146693972Y-82518231D01*
X146661795Y-82515755D01*
X146564999Y-82484585D01*
X146477246Y-82430877D01*
X146400421Y-82355265D01*
X146357279Y-82289969D01*
X146357279Y-84575960D01*
X146368209Y-84581680D01*
X146394961Y-84599799D01*
X146433291Y-84627145D01*
X146478954Y-84660546D01*
X146527704Y-84696829D01*
X146575297Y-84732822D01*
X146617489Y-84765353D01*
X146650035Y-84791248D01*
X146668690Y-84807336D01*
X146671493Y-84810800D01*
X146661475Y-84819652D01*
X146634174Y-84838731D01*
X146593998Y-84865052D01*
X146554680Y-84889858D01*
X146502525Y-84921670D01*
X146467665Y-84940990D01*
X146446236Y-84949376D01*
X146434373Y-84948387D01*
X146428636Y-84940658D01*
X146422731Y-84920163D01*
X146413865Y-84882075D01*
X146403094Y-84831787D01*
X146391474Y-84774695D01*
X146380060Y-84716192D01*
X146369907Y-84661672D01*
X146362071Y-84616530D01*
X146357607Y-84586160D01*
X146357279Y-84575960D01*
X146357279Y-82289969D01*
X146336412Y-82258386D01*
X146330157Y-82246306D01*
X146309210Y-82203238D01*
X146282169Y-82145317D01*
X146250924Y-82076835D01*
X146217367Y-82002087D01*
X146183388Y-81925366D01*
X146150879Y-81850965D01*
X146121730Y-81783177D01*
X146097833Y-81726296D01*
X146081079Y-81684616D01*
X146073932Y-81664571D01*
X146069307Y-81609339D01*
X146083004Y-81552181D01*
X146112021Y-81504291D01*
X146118762Y-81497403D01*
X146136923Y-81486117D01*
X146175878Y-81466037D01*
X146233192Y-81438235D01*
X146306430Y-81403783D01*
X146393158Y-81363754D01*
X146490939Y-81319220D01*
X146597339Y-81271256D01*
X146709922Y-81220932D01*
X146826253Y-81169321D01*
X146943897Y-81117497D01*
X147060419Y-81066532D01*
X147173383Y-81017498D01*
X147280355Y-80971469D01*
X147378899Y-80929516D01*
X147466579Y-80892713D01*
X147540962Y-80862132D01*
X147599610Y-80838846D01*
X147640090Y-80823927D01*
X147659966Y-80818448D01*
X147660206Y-80818441D01*
X147660206Y-80208248D01*
X147476079Y-80244274D01*
X147291973Y-80290072D01*
X147252723Y-80301222D01*
X147197892Y-80319103D01*
X147125655Y-80345470D01*
X147041611Y-80378039D01*
X146951356Y-80414523D01*
X146860489Y-80452639D01*
X146774606Y-80490101D01*
X146699306Y-80524624D01*
X146666250Y-80540627D01*
X146593858Y-80579307D01*
X146510203Y-80628567D01*
X146419233Y-80685664D01*
X146324898Y-80747853D01*
X146231145Y-80812391D01*
X146141924Y-80876535D01*
X146061183Y-80937540D01*
X145992870Y-80992663D01*
X145940934Y-81039160D01*
X145924261Y-81056209D01*
X145900611Y-81078516D01*
X145882833Y-81089470D01*
X145881183Y-81089700D01*
X145877530Y-81077934D01*
X145875796Y-81046201D01*
X145875816Y-80999848D01*
X145877421Y-80944222D01*
X145880444Y-80884670D01*
X145884719Y-80826539D01*
X145890078Y-80775176D01*
X145891311Y-80765850D01*
X145921276Y-80570467D01*
X145954275Y-80397968D01*
X145991209Y-80245929D01*
X146032979Y-80111922D01*
X146080487Y-79993523D01*
X146134632Y-79888306D01*
X146196316Y-79793845D01*
X146266439Y-79707714D01*
X146296019Y-79676115D01*
X146407181Y-79578133D01*
X146527185Y-79503707D01*
X146655595Y-79452746D01*
X146791972Y-79425164D01*
X146935879Y-79420871D01*
X146935879Y-79144181D01*
X146858292Y-79138044D01*
X146693059Y-79148569D01*
X146534122Y-79183175D01*
X146382151Y-79241904D01*
X146348750Y-79258570D01*
X146283884Y-79299654D01*
X146211471Y-79357655D01*
X146136616Y-79427466D01*
X146064420Y-79503977D01*
X145999989Y-79582082D01*
X145948424Y-79656672D01*
X145944475Y-79663229D01*
X145865049Y-79816928D01*
X145796260Y-79991534D01*
X145738629Y-80184656D01*
X145692674Y-80393904D01*
X145658915Y-80616888D01*
X145637871Y-80851215D01*
X145630061Y-81094497D01*
X145630024Y-81110989D01*
X145630192Y-81192123D01*
X145629778Y-81252940D01*
X145627294Y-81298506D01*
X145621251Y-81333886D01*
X145610158Y-81364147D01*
X145592526Y-81394355D01*
X145566866Y-81429576D01*
X145531689Y-81474876D01*
X145517755Y-81492879D01*
X145452622Y-81577881D01*
X145399984Y-81648147D01*
X145356533Y-81708826D01*
X145318960Y-81765067D01*
X145283955Y-81822018D01*
X145248210Y-81884828D01*
X145208416Y-81958645D01*
X145164146Y-82043085D01*
X145068842Y-82237546D01*
X144989902Y-82425250D01*
X144925208Y-82612855D01*
X144872641Y-82807021D01*
X144830084Y-83014405D01*
X144804900Y-83172500D01*
X144776078Y-83463017D01*
X144772221Y-83756537D01*
X144793254Y-84051799D01*
X144839103Y-84347542D01*
X144886988Y-84558325D01*
X144919543Y-84678917D01*
X144951958Y-84785010D01*
X144987136Y-84884458D01*
X145027980Y-84985113D01*
X145077393Y-85094830D01*
X145112779Y-85169140D01*
X145215414Y-85381430D01*
X145221346Y-85524740D01*
X145221364Y-85642739D01*
X145209686Y-85747262D01*
X145184608Y-85848184D01*
X145149049Y-85944405D01*
X145127436Y-85988970D01*
X145093550Y-86049851D01*
X145050100Y-86122851D01*
X144999795Y-86203774D01*
X144945345Y-86288425D01*
X144889457Y-86372608D01*
X144834841Y-86452125D01*
X144784205Y-86522783D01*
X144740259Y-86580384D01*
X144731432Y-86591285D01*
X144689867Y-86642146D01*
X144640069Y-86703480D01*
X144589647Y-86765902D01*
X144562185Y-86800065D01*
X144407905Y-86983349D01*
X144238767Y-87167865D01*
X144059752Y-87348776D01*
X143875839Y-87521242D01*
X143692005Y-87680425D01*
X143513231Y-87821488D01*
X143503950Y-87828398D01*
X143446752Y-87871014D01*
X143389236Y-87914152D01*
X143338716Y-87952313D01*
X143307100Y-87976448D01*
X143272195Y-88002359D01*
X143221700Y-88038567D01*
X143161102Y-88081198D01*
X143095887Y-88126375D01*
X143059450Y-88151307D01*
X142908657Y-88254989D01*
X142777752Y-88347386D01*
X142729250Y-88382927D01*
X142729250Y-88951557D01*
X142807267Y-88962925D01*
X142874674Y-88994527D01*
X142929223Y-89042617D01*
X142968668Y-89103447D01*
X142990762Y-89173268D01*
X142993256Y-89248331D01*
X142973904Y-89324890D01*
X142964956Y-89344700D01*
X142926660Y-89396138D01*
X142871500Y-89437438D01*
X142807557Y-89463261D01*
X142777675Y-89468448D01*
X142695277Y-89465497D01*
X142621664Y-89442196D01*
X142559725Y-89401610D01*
X142512345Y-89346806D01*
X142482414Y-89280849D01*
X142472818Y-89206806D01*
X142479693Y-89152039D01*
X142508949Y-89074397D01*
X142555763Y-89014400D01*
X142618231Y-88973579D01*
X142694447Y-88953464D01*
X142729250Y-88951557D01*
X142729250Y-88382927D01*
X142664777Y-88430172D01*
X142567777Y-88505025D01*
X142484795Y-88573620D01*
X142413874Y-88637634D01*
X142353058Y-88698742D01*
X142300390Y-88758621D01*
X142253915Y-88818946D01*
X142217098Y-88872938D01*
X142170336Y-88953683D01*
X142140645Y-89028303D01*
X142125184Y-89106440D01*
X142121112Y-89197737D01*
X142121118Y-89198650D01*
G04 #@! TO.C,C3*
D10*
X130736742Y-90409733D02*
X130784361Y-90362114D01*
X130831980Y-90219257D01*
X130831980Y-90124019D01*
X130784361Y-89981161D01*
X130689123Y-89885923D01*
X130593885Y-89838304D01*
X130403409Y-89790685D01*
X130260552Y-89790685D01*
X130070076Y-89838304D01*
X129974838Y-89885923D01*
X129879600Y-89981161D01*
X129831980Y-90124019D01*
X129831980Y-90219257D01*
X129879600Y-90362114D01*
X129927219Y-90409733D01*
X129831980Y-90743066D02*
X129831980Y-91362114D01*
X130212933Y-91028780D01*
X130212933Y-91171638D01*
X130260552Y-91266876D01*
X130308171Y-91314495D01*
X130403409Y-91362114D01*
X130641504Y-91362114D01*
X130736742Y-91314495D01*
X130784361Y-91266876D01*
X130831980Y-91171638D01*
X130831980Y-90885923D01*
X130784361Y-90790685D01*
X130736742Y-90743066D01*
G04 #@! TO.C,C4*
X141835466Y-94692942D02*
X141883085Y-94740561D01*
X142025942Y-94788180D01*
X142121180Y-94788180D01*
X142264038Y-94740561D01*
X142359276Y-94645323D01*
X142406895Y-94550085D01*
X142454514Y-94359609D01*
X142454514Y-94216752D01*
X142406895Y-94026276D01*
X142359276Y-93931038D01*
X142264038Y-93835800D01*
X142121180Y-93788180D01*
X142025942Y-93788180D01*
X141883085Y-93835800D01*
X141835466Y-93883419D01*
X140978323Y-94121514D02*
X140978323Y-94788180D01*
X141216419Y-93740561D02*
X141454514Y-94454847D01*
X140835466Y-94454847D01*
G04 #@! TO.C,C5*
X132945466Y-91060742D02*
X132993085Y-91108361D01*
X133135942Y-91155980D01*
X133231180Y-91155980D01*
X133374038Y-91108361D01*
X133469276Y-91013123D01*
X133516895Y-90917885D01*
X133564514Y-90727409D01*
X133564514Y-90584552D01*
X133516895Y-90394076D01*
X133469276Y-90298838D01*
X133374038Y-90203600D01*
X133231180Y-90155980D01*
X133135942Y-90155980D01*
X132993085Y-90203600D01*
X132945466Y-90251219D01*
X132040704Y-90155980D02*
X132516895Y-90155980D01*
X132564514Y-90632171D01*
X132516895Y-90584552D01*
X132421657Y-90536933D01*
X132183561Y-90536933D01*
X132088323Y-90584552D01*
X132040704Y-90632171D01*
X131993085Y-90727409D01*
X131993085Y-90965504D01*
X132040704Y-91060742D01*
X132088323Y-91108361D01*
X132183561Y-91155980D01*
X132421657Y-91155980D01*
X132516895Y-91108361D01*
X132564514Y-91060742D01*
G04 #@! TO.C,C6*
X144248466Y-91060742D02*
X144296085Y-91108361D01*
X144438942Y-91155980D01*
X144534180Y-91155980D01*
X144677038Y-91108361D01*
X144772276Y-91013123D01*
X144819895Y-90917885D01*
X144867514Y-90727409D01*
X144867514Y-90584552D01*
X144819895Y-90394076D01*
X144772276Y-90298838D01*
X144677038Y-90203600D01*
X144534180Y-90155980D01*
X144438942Y-90155980D01*
X144296085Y-90203600D01*
X144248466Y-90251219D01*
X143391323Y-90155980D02*
X143581800Y-90155980D01*
X143677038Y-90203600D01*
X143724657Y-90251219D01*
X143819895Y-90394076D01*
X143867514Y-90584552D01*
X143867514Y-90965504D01*
X143819895Y-91060742D01*
X143772276Y-91108361D01*
X143677038Y-91155980D01*
X143486561Y-91155980D01*
X143391323Y-91108361D01*
X143343704Y-91060742D01*
X143296085Y-90965504D01*
X143296085Y-90727409D01*
X143343704Y-90632171D01*
X143391323Y-90584552D01*
X143486561Y-90536933D01*
X143677038Y-90536933D01*
X143772276Y-90584552D01*
X143819895Y-90632171D01*
X143867514Y-90727409D01*
G04 #@! TO.C,C7*
X137873066Y-83212142D02*
X137920685Y-83259761D01*
X138063542Y-83307380D01*
X138158780Y-83307380D01*
X138301638Y-83259761D01*
X138396876Y-83164523D01*
X138444495Y-83069285D01*
X138492114Y-82878809D01*
X138492114Y-82735952D01*
X138444495Y-82545476D01*
X138396876Y-82450238D01*
X138301638Y-82355000D01*
X138158780Y-82307380D01*
X138063542Y-82307380D01*
X137920685Y-82355000D01*
X137873066Y-82402619D01*
X137539733Y-82307380D02*
X136873066Y-82307380D01*
X137301638Y-83307380D01*
G04 #@! TO.C,C8*
X141033642Y-83843833D02*
X141081261Y-83796214D01*
X141128880Y-83653357D01*
X141128880Y-83558119D01*
X141081261Y-83415261D01*
X140986023Y-83320023D01*
X140890785Y-83272404D01*
X140700309Y-83224785D01*
X140557452Y-83224785D01*
X140366976Y-83272404D01*
X140271738Y-83320023D01*
X140176500Y-83415261D01*
X140128880Y-83558119D01*
X140128880Y-83653357D01*
X140176500Y-83796214D01*
X140224119Y-83843833D01*
X140557452Y-84415261D02*
X140509833Y-84320023D01*
X140462214Y-84272404D01*
X140366976Y-84224785D01*
X140319357Y-84224785D01*
X140224119Y-84272404D01*
X140176500Y-84320023D01*
X140128880Y-84415261D01*
X140128880Y-84605738D01*
X140176500Y-84700976D01*
X140224119Y-84748595D01*
X140319357Y-84796214D01*
X140366976Y-84796214D01*
X140462214Y-84748595D01*
X140509833Y-84700976D01*
X140557452Y-84605738D01*
X140557452Y-84415261D01*
X140605071Y-84320023D01*
X140652690Y-84272404D01*
X140747928Y-84224785D01*
X140938404Y-84224785D01*
X141033642Y-84272404D01*
X141081261Y-84320023D01*
X141128880Y-84415261D01*
X141128880Y-84605738D01*
X141081261Y-84700976D01*
X141033642Y-84748595D01*
X140938404Y-84796214D01*
X140747928Y-84796214D01*
X140652690Y-84748595D01*
X140605071Y-84700976D01*
X140557452Y-84605738D01*
G04 #@! TO.C,C9*
X136387142Y-85304533D02*
X136434761Y-85256914D01*
X136482380Y-85114057D01*
X136482380Y-85018819D01*
X136434761Y-84875961D01*
X136339523Y-84780723D01*
X136244285Y-84733104D01*
X136053809Y-84685485D01*
X135910952Y-84685485D01*
X135720476Y-84733104D01*
X135625238Y-84780723D01*
X135530000Y-84875961D01*
X135482380Y-85018819D01*
X135482380Y-85114057D01*
X135530000Y-85256914D01*
X135577619Y-85304533D01*
X136482380Y-85780723D02*
X136482380Y-85971200D01*
X136434761Y-86066438D01*
X136387142Y-86114057D01*
X136244285Y-86209295D01*
X136053809Y-86256914D01*
X135672857Y-86256914D01*
X135577619Y-86209295D01*
X135530000Y-86161676D01*
X135482380Y-86066438D01*
X135482380Y-85875961D01*
X135530000Y-85780723D01*
X135577619Y-85733104D01*
X135672857Y-85685485D01*
X135910952Y-85685485D01*
X136006190Y-85733104D01*
X136053809Y-85780723D01*
X136101428Y-85875961D01*
X136101428Y-86066438D01*
X136053809Y-86161676D01*
X136006190Y-86209295D01*
X135910952Y-86256914D01*
G04 #@! TO.C,C10*
X134761542Y-85082342D02*
X134809161Y-85034723D01*
X134856780Y-84891866D01*
X134856780Y-84796628D01*
X134809161Y-84653771D01*
X134713923Y-84558533D01*
X134618685Y-84510914D01*
X134428209Y-84463295D01*
X134285352Y-84463295D01*
X134094876Y-84510914D01*
X133999638Y-84558533D01*
X133904400Y-84653771D01*
X133856780Y-84796628D01*
X133856780Y-84891866D01*
X133904400Y-85034723D01*
X133952019Y-85082342D01*
X134856780Y-86034723D02*
X134856780Y-85463295D01*
X134856780Y-85749009D02*
X133856780Y-85749009D01*
X133999638Y-85653771D01*
X134094876Y-85558533D01*
X134142495Y-85463295D01*
X133856780Y-86653771D02*
X133856780Y-86749009D01*
X133904400Y-86844247D01*
X133952019Y-86891866D01*
X134047257Y-86939485D01*
X134237733Y-86987104D01*
X134475828Y-86987104D01*
X134666304Y-86939485D01*
X134761542Y-86891866D01*
X134809161Y-86844247D01*
X134856780Y-86749009D01*
X134856780Y-86653771D01*
X134809161Y-86558533D01*
X134761542Y-86510914D01*
X134666304Y-86463295D01*
X134475828Y-86415676D01*
X134237733Y-86415676D01*
X134047257Y-86463295D01*
X133952019Y-86510914D01*
X133904400Y-86558533D01*
X133856780Y-86653771D01*
G04 #@! TO.C,C15*
X157602157Y-87352142D02*
X157649776Y-87399761D01*
X157792633Y-87447380D01*
X157887871Y-87447380D01*
X158030728Y-87399761D01*
X158125966Y-87304523D01*
X158173585Y-87209285D01*
X158221204Y-87018809D01*
X158221204Y-86875952D01*
X158173585Y-86685476D01*
X158125966Y-86590238D01*
X158030728Y-86495000D01*
X157887871Y-86447380D01*
X157792633Y-86447380D01*
X157649776Y-86495000D01*
X157602157Y-86542619D01*
X156649776Y-87447380D02*
X157221204Y-87447380D01*
X156935490Y-87447380D02*
X156935490Y-86447380D01*
X157030728Y-86590238D01*
X157125966Y-86685476D01*
X157221204Y-86733095D01*
X155745014Y-86447380D02*
X156221204Y-86447380D01*
X156268823Y-86923571D01*
X156221204Y-86875952D01*
X156125966Y-86828333D01*
X155887871Y-86828333D01*
X155792633Y-86875952D01*
X155745014Y-86923571D01*
X155697395Y-87018809D01*
X155697395Y-87256904D01*
X155745014Y-87352142D01*
X155792633Y-87399761D01*
X155887871Y-87447380D01*
X156125966Y-87447380D01*
X156221204Y-87399761D01*
X156268823Y-87352142D01*
G04 #@! TD*
M02*
